{
.appVersion = "1286";
copyright = "Copyright 2014 The Comic Neue Angular Project Authors (https://github.com/crozynski/comicneue)";
customParameters = (
{
name = note;
value = "";
},
{
name = macintoshFONDName;
value = "Comic Neue Angular";
},
{
name = license;
value = "Licensed under the SIL Open Font License. Version 1.1.";
},
{
name = licenseURL;
value = "http://scripts.sil.org/OFL";
},
{
name = preferredFamilyName;
value = "Comic Neue Angular";
},
{
name = uniqueID;
value = "2.003;;Comic Neue Angular Bold";
},
{
name = versionString;
value = "Version 2.003";
},
{
name = codePageRanges;
value = (
1252,
1250
);
},
{
name = openTypeOS2FamilyClass;
value = (
0,
0
);
},
{
name = openTypeOS2Panose;
value = (
2,
0,
0,
0,
0,
0,
0,
0,
0,
0
);
},
{
name = strikeoutPosition;
value = 309;
},
{
name = strikeoutSize;
value = 50;
},
{
name = openTypeOS2SubscriptXOffset;
value = 0;
},
{
name = openTypeOS2SubscriptXSize;
value = 650;
},
{
name = openTypeOS2SubscriptYOffset;
value = 75;
},
{
name = openTypeOS2SubscriptYSize;
value = 600;
},
{
name = openTypeOS2SuperscriptXOffset;
value = 0;
},
{
name = openTypeOS2SuperscriptXSize;
value = 650;
},
{
name = openTypeOS2SuperscriptYOffset;
value = 350;
},
{
name = openTypeOS2SuperscriptYSize;
value = 600;
},
{
name = fsType;
value = (
);
},
{
name = unicodeRanges;
value = (
0,
1,
2
);
},
{
name = vendorID;
value = "    ";
},
{
name = blueFuzz;
value = 1;
},
{
name = blueScale;
value = 0.03963;
},
{
name = blueShift;
value = 7;
},
{
name = postscriptForceBold;
value = 1;
},
{
name = trademark;
value = "-";
}
);
date = "2020-03-11 04:05:07 +0000";
designer = "Craig Rozynski";
designerURL = "http://www.craigrozynski.com";
disablesNiceNames = 1;
familyName = "Comic Neue Angular";
featurePrefixes = (
{
code = "languagesystem DFLT dflt;\012languagesystem latn dflt;\012";
name = Languagesystems;
},
{

glyphs = (
{
glyphname = A;
layers = (
{
layerId = master01;
paths = (
{
closed = 1;
nodes = (
"585 45 LINE",
"501 -12 LINE",
"417 240 LINE",
"204 195 LINE",
"129 -8 LINE",
"42 36 LINE",
"93 171 LINE",
"70 168 LINE",
"53 264 LINE",
"133 279 LINE",
"277 666 LINE",
"375 684 LINE"
);
},
{
closed = 1;
nodes = (
"387 334 LINE",
"325 518 LINE",
"244 303 LINE"
);
}
);
width = 649;
}
);
unicode = 0041;
},
{
glyphname = Aacute;
layers = (
{
layerId = master01;
paths = (
{
closed = 1;
nodes = (
"365 906 LINE",
"451 831 LINE",
"271 710 LINE",
"198 772 LINE"
);
},
{
closed = 1;
nodes = (
"585 45 LINE",
"501 -12 LINE",
"417 240 LINE",
"204 195 LINE",
"129 -8 LINE",
"42 36 LINE",
"93 171 LINE",
"70 168 LINE",
"53 264 LINE",
"133 279 LINE",
"277 666 LINE",
"375 684 LINE"
);
},
{
closed = 1;
nodes = (
"387 334 LINE",
"325 518 LINE",
"244 303 LINE"
);
}
);
width = 649;
}
);
unicode = 00C1;
},
{
glyphname = Abreve;
layers = (
{
layerId = master01;
paths = (
{
closed = 1;
nodes = (
"585 45 LINE",
"501 -12 LINE",
"417 240 LINE",
"204 195 LINE",
"129 -8 LINE",
"42 36 LINE",
"93 171 LINE",
"70 168 LINE",
"53 264 LINE",
"133 279 LINE",
"277 666 LINE",
"375 684 LINE"
);
},
{
closed = 1;
nodes = (
"387 334 LINE",
"325 518 LINE",
"244 303 LINE"
);
},
{
closed = 1;
nodes = (
"376 806 OFFCURVE",
"406 829 OFFCURVE",
"427 886 CURVE",
"491 822 LINE",
"468 755 OFFCURVE",
"402 718 OFFCURVE",
"335 718 CURVE SMOOTH",
"262 718 OFFCURVE",
"199 752 OFFCURVE",
"170 817 CURVE",
"230 878 LINE",
"268 809 OFFCURVE",
"303 806 OFFCURVE",
"330 806 CURVE SMOOTH"
);
}
);
userData = {
com.fontlab.hintData = {
hhints = (
{
position = 718;
width = 88;
}
);
};
};
width = 649;
}
);
unicode = 0102;
},
{
glyphname = Acircumflex;
layers = (
{
layerId = master01;
paths = (
{
closed = 1;
nodes = (
"163 756 LINE",
"337 895 LINE",
"489 751 LINE",
"423 691 LINE",
"331 773 LINE",
"223 690 LINE"
);
},
{
closed = 1;
nodes = (
"585 45 LINE",
"501 -12 LINE",
"417 240 LINE",
"204 195 LINE",
"129 -8 LINE",
"42 36 LINE",
"93 171 LINE",
"70 168 LINE",
"53 264 LINE",
"133 279 LINE",
"277 666 LINE",
"375 684 LINE"
);
},
{
closed = 1;
nodes = (
"387 334 LINE",
"325 518 LINE",
"244 303 LINE"
);
}
);
userData = {
com.fontlab.hintData = {
hhints = (
{
position = 690;
width = 21;
}
);
};
};
width = 649;
}
);
unicode = 00C2;
},
{
glyphname = Adieresis;
layers = (
{
layerId = master01;
paths = (
{
closed = 1;
nodes = (
"585 45 LINE",
"501 -12 LINE",
"417 240 LINE",
"204 195 LINE",
"129 -8 LINE",
"42 36 LINE",
"93 171 LINE",
"70 168 LINE",
"53 264 LINE",
"133 279 LINE",
"277 666 LINE",
"375 684 LINE"
);
},
{
closed = 1;
nodes = (
"387 334 LINE",
"325 518 LINE",
"244 303 LINE"
);
},
{
closed = 1;
nodes = (
"300 719 LINE",
"182 704 LINE",
"196 818 LINE",
"312 833 LINE"
);
},
{
closed = 1;
nodes = (
"470 719 LINE",
"352 704 LINE",
"366 818 LINE",
"482 833 LINE"
);
}
);
width = 649;
}
);
unicode = 00C4;
},
{
glyphname = Agrave;
layers = (
{
layerId = master01;
paths = (
{
closed = 1;
nodes = (
"364 700 LINE",
"209 856 LINE",
"308 912 LINE",
"447 750 LINE"
);
},
{
closed = 1;
nodes = (
"585 45 LINE",
"501 -12 LINE",
"417 240 LINE",
"204 195 LINE",
"129 -8 LINE",
"42 36 LINE",
"93 171 LINE",
"70 168 LINE",
"53 264 LINE",
"133 279 LINE",
"277 666 LINE",
"375 684 LINE"
);
},
{
closed = 1;
nodes = (
"387 334 LINE",
"325 518 LINE",
"244 303 LINE"
);
}
);
width = 649;
}
);
unicode = 00C0;
},
{
glyphname = Aogonek;
layers = (
{
layerId = master01;
paths = (
{
closed = 1;
nodes = (
"466 -34 LINE SMOOTH",
"448 -46 OFFCURVE",
"425 -60 OFFCURVE",
"425 -86 CURVE SMOOTH",
"425 -100 OFFCURVE",
"438 -112 OFFCURVE",
"453 -112 CURVE SMOOTH",
"474 -112 OFFCURVE",
"496 -98 OFFCURVE",
"524 -75 CURVE",
"575 -131 LINE",
"549 -164 OFFCURVE",
"498 -196 OFFCURVE",
"453 -196 CURVE SMOOTH",
"385 -196 OFFCURVE",
"334 -161 OFFCURVE",
"334 -94 CURVE SMOOTH",
"334 -28 OFFCURVE",
"387 3 OFFCURVE",
"434 30 CURVE SMOOTH",
"478 55 LINE",
"417 240 LINE",
"204 195 LINE",
"129 -8 LINE",
"42 36 LINE",
"93 171 LINE",
"70 168 LINE",
"53 264 LINE",
"133 279 LINE",
"277 666 LINE",
"375 684 LINE",
"585 45 LINE"
);
},
{
closed = 1;
nodes = (
"387 334 LINE",
"325 518 LINE",
"244 303 LINE"
);
}
);
userData = {
com.fontlab.hintData = {
hhints = (
{
position = -196;
width = 84;
}
);
vhints = (
{
position = 334;
width = 91;
}
);
};
};
width = 663;
}
);
unicode = 0104;
},
{
glyphname = Aring;
layers = (
{
layerId = master01;
paths = (
{
closed = 1;
nodes = (
"238 702 OFFCURVE",
"185 752 OFFCURVE",
"185 815 CURVE SMOOTH",
"185 886 OFFCURVE",
"251 942 OFFCURVE",
"333 942 CURVE SMOOTH",
"412 942 OFFCURVE",
"462 887 OFFCURVE",
"462 828 CURVE SMOOTH",
"462 744 OFFCURVE",
"384 702 OFFCURVE",
"314 702 CURVE SMOOTH"
);
},
{
closed = 1;
nodes = (
"307 857 OFFCURVE",
"271 842 OFFCURVE",
"271 815 CURVE SMOOTH",
"271 798 OFFCURVE",
"291 786 OFFCURVE",
"316 786 CURVE SMOOTH",
"344 786 OFFCURVE",
"378 803 OFFCURVE",
"378 826 CURVE SMOOTH",
"378 843 OFFCURVE",
"356 857 OFFCURVE",
"330 857 CURVE SMOOTH"
);
},
{
closed = 1;
nodes = (
"585 45 LINE",
"501 -12 LINE",
"417 240 LINE",
"204 195 LINE",
"129 -8 LINE",
"42 36 LINE",
"93 171 LINE",
"70 168 LINE",
"53 264 LINE",
"133 279 LINE",
"277 666 LINE",
"375 684 LINE"
);
},
{
closed = 1;
nodes = (
"387 334 LINE",
"325 518 LINE",
"244 303 LINE"
);
}
);
userData = {
com.fontlab.hintData = {
hhints = (
{
position = 702;
width = 84;
},
{
position = 857;
width = 85;
}
);
vhints = (
{
position = 185;
width = 86;
},
{
position = 378;
width = 84;
}
);
};
};
width = 649;
}
);
unicode = 00C5;
},
{
glyphname = Atilde;
layers = (
{
layerId = master01;
paths = (
{
closed = 1;
nodes = (
"585 45 LINE",
"501 -12 LINE",
"417 240 LINE",
"204 195 LINE",
"129 -8 LINE",
"42 36 LINE",
"93 171 LINE",
"70 168 LINE",
"53 264 LINE",
"133 279 LINE",
"277 666 LINE",
"375 684 LINE"
);
},
{
closed = 1;
nodes = (
"387 334 LINE",
"325 518 LINE",
"244 303 LINE"
);
},
{
closed = 1;
nodes = (
"518 838 LINE",
"507 807 OFFCURVE",
"473 705 OFFCURVE",
"372 705 CURVE SMOOTH",
"340 705 OFFCURVE",
"313 722 OFFCURVE",
"291 753 CURVE SMOOTH",
"275 776 OFFCURVE",
"264 788 OFFCURVE",
"249 788 CURVE SMOOTH",
"214 788 OFFCURVE",
"194 732 OFFCURVE",
"192 720 CURVE",
"127 753 LINE",
"143 809 OFFCURVE",
"183 877 OFFCURVE",
"261 877 CURVE SMOOTH",
"300 877 OFFCURVE",
"326 860 OFFCURVE",
"348 829 CURVE SMOOTH",
"364 807 OFFCURVE",
"375 793 OFFCURVE",
"390 793 CURVE SMOOTH",
"411 793 OFFCURVE",
"437 816 OFFCURVE",
"451 870 CURVE"
);
}
);
userData = {
com.fontlab.hintData = {
hhints = (
{
position = 705;
width = 88;
},
{
position = 788;
width = 89;
}
);
};
};
width = 649;
}
);
unicode = 00C3;
},
{
glyphname = AE;
layers = (
{
layerId = master01;
paths = (
{
closed = 1;
nodes = (
"148 313 LINE",
"253 334 LINE",
"497 681 LINE",
"975 681 LINE",
"958 582 LINE",
"575 582 LINE",
"575 402 LINE",
"941 402 LINE",
"912 304 LINE",
"575 304 LINE",
"575 99 LINE",
"985 99 LINE",
"950 0 LINE",
"476 0 LINE",
"476 281 LINE",
"307 246 LINE",
"129 -6 LINE",
"44 39 LINE",
"167 215 LINE"
);
},
{
closed = 1;
nodes = (
"476 484 LINE",
"389 361 LINE",
"476 379 LINE"
);
}
);
userData = {
com.fontlab.hintData = {
hhints = (
{
position = 0;
width = 99;
},
{
position = 304;
width = 98;
},
{
position = 582;
width = 99;
}
);
vhints = (
{
position = 476;
width = 99;
}
);
};
};
width = 1075;
}
);
unicode = 00C6;
},
{
glyphname = B;
layers = (
{
layerId = master01;
paths = (
{
closed = 1;
nodes = (
"61 681 LINE",
"281 681 LINE SMOOTH",
"421 681 OFFCURVE",
"505 610 OFFCURVE",
"505 493 CURVE SMOOTH",
"505 443 OFFCURVE",
"479 403 OFFCURVE",
"438 374 CURVE",
"498 355 OFFCURVE",
"561 293 OFFCURVE",
"561 212 CURVE SMOOTH",
"561 20 OFFCURVE",
"270 0 OFFCURVE",
"147 0 CURVE SMOOTH",
"61 0 LINE"
);
},
{
closed = 1;
nodes = (
"158 96 LINE",
"160.197 95.976 OFFCURVE",
"162.466 95.963 OFFCURVE",
"164.802 95.963 CURVE SMOOTH",
"259.255 95.963 OFFCURVE",
"464 116.366 OFFCURVE",
"464 212 CURVE SMOOTH",
"464 294 OFFCURVE",
"364 309 OFFCURVE",
"306 309 CURVE SMOOTH",
"158 309 LINE"
);
},
{
closed = 1;
nodes = (
"158 405 LINE",
"265 405 LINE SMOOTH",
"327 405 OFFCURVE",
"408 423 OFFCURVE",
"408 493 CURVE SMOOTH",
"408 535 OFFCURVE",
"386 584 OFFCURVE",
"281 584 CURVE SMOOTH",
"158 584 LINE"
);
}
);
userData = {
com.fontlab.hintData = {
hhints = (
{
position = 0;
width = 96;
},
{
position = 309;
width = 96;
},
{
position = 584;
width = 97;
}
);
vhints = (
{
position = 61;
width = 97;
},
{
position = 408;
width = 97;
},
{
position = 464;
width = 97;
}
);
};
};
width = 628;
}
);
unicode = 0042;
},
{
glyphname = C;
layers = (
{
layerId = master01;
paths = (
{
closed = 1;
nodes = (
"179 -1 OFFCURVE",
"48 127 OFFCURVE",
"48 294 CURVE SMOOTH",
"48 454 OFFCURVE",
"167 681 OFFCURVE",
"346 681 CURVE SMOOTH",
"386 681 OFFCURVE",
"426 667 OFFCURVE",
"460 651 CURVE",
"460 665 LINE",
"549 665 LINE",
"549 502 LINE",
"460 502 LINE",
"460 539 LINE",
"438 561 OFFCURVE",
"400 585 OFFCURVE",
"341 585 CURVE SMOOTH",
"232 585 OFFCURVE",
"143 411 OFFCURVE",
"143 296 CURVE SMOOTH",
"143 186 OFFCURVE",
"229 95 OFFCURVE",
"335 95 CURVE SMOOTH",
"414 95 OFFCURVE",
"482 140 OFFCURVE",
"523 221 CURVE",
"595 149 LINE",
"538 56 OFFCURVE",
"440 -1 OFFCURVE",
"335 -1 CURVE SMOOTH"
);
}
);
userData = {
com.fontlab.hintData = {
hhints = (
{
position = -1;
width = 96;
},
{
position = 502;
width = 163;
},
{
position = 585;
width = 96;
}
);
vhints = (
{
position = 48;
width = 95;
},
{
position = 460;
width = 89;
}
);
};
};
width = 657;
}
);
unicode = 0043;
},
{
glyphname = Cacute;
layers = (
{
layerId = master01;
paths = (
{
closed = 1;
nodes = (
"399 906 LINE",
"485 831 LINE",
"295 710 LINE",
"222 772 LINE"
);
},
{
closed = 1;
nodes = (
"179 -1 OFFCURVE",
"48 127 OFFCURVE",
"48 294 CURVE SMOOTH",
"48 454 OFFCURVE",
"167 681 OFFCURVE",
"346 681 CURVE SMOOTH",
"386 681 OFFCURVE",
"426 667 OFFCURVE",
"460 651 CURVE",
"460 665 LINE",
"549 665 LINE",
"549 502 LINE",
"460 502 LINE",
"460 539 LINE",
"438 561 OFFCURVE",
"400 585 OFFCURVE",
"341 585 CURVE SMOOTH",
"232 585 OFFCURVE",
"143 411 OFFCURVE",
"143 296 CURVE SMOOTH",
"143 186 OFFCURVE",
"229 95 OFFCURVE",
"335 95 CURVE SMOOTH",
"414 95 OFFCURVE",
"482 140 OFFCURVE",
"523 221 CURVE",
"595 149 LINE",
"538 56 OFFCURVE",
"440 -1 OFFCURVE",
"335 -1 CURVE SMOOTH"
);
}
);
userData = {
com.fontlab.hintData = {
hhints = (
{
position = -1;
width = 96;
},
{
position = 502;
width = 163;
},
{
position = 585;
width = 96;
}
);
vhints = (
{
position = 48;
width = 95;
},
{
position = 460;
width = 89;
}
);
};
};
width = 657;
}
);
unicode = 0106;
},
{
glyphname = Ccaron;
layers = (
{
layerId = master01;
paths = (
{
closed = 1;
nodes = (
"513 824 LINE",
"339 701 LINE",
"187 830 LINE",
"252 897 LINE",
"343 812 LINE",
"454 897 LINE"
);
},
{
closed = 1;
nodes = (
"179 -1 OFFCURVE",
"48 127 OFFCURVE",
"48 294 CURVE SMOOTH",
"48 454 OFFCURVE",
"167 681 OFFCURVE",
"346 681 CURVE SMOOTH",
"386 681 OFFCURVE",
"426 667 OFFCURVE",
"460 651 CURVE",
"460 665 LINE",
"549 665 LINE",
"549 502 LINE",
"460 502 LINE",
"460 539 LINE",
"438 561 OFFCURVE",
"400 585 OFFCURVE",
"341 585 CURVE SMOOTH",
"232 585 OFFCURVE",
"143 411 OFFCURVE",
"143 296 CURVE SMOOTH",
"143 186 OFFCURVE",
"229 95 OFFCURVE",
"335 95 CURVE SMOOTH",
"414 95 OFFCURVE",
"482 140 OFFCURVE",
"523 221 CURVE",
"595 149 LINE",
"538 56 OFFCURVE",
"440 -1 OFFCURVE",
"335 -1 CURVE SMOOTH"
);
}
);
userData = {
com.fontlab.hintData = {
hhints = (
{
position = -1;
width = 96;
},
{
position = 502;
width = 163;
},
{
position = 585;
width = 96;
}
);
vhints = (
{
position = 48;
width = 95;
},
{
position = 460;
width = 89;
}
);
};
};
width = 657;
}
);
unicode = 010C;
},
{
glyphname = Ccedilla;
layers = (
{
layerId = master01;
paths = (
{
closed = 1;
nodes = (
"294 2 LINE",
"156 22 OFFCURVE",
"48 142 OFFCURVE",
"48 294 CURVE SMOOTH",
"48 454 OFFCURVE",
"167 681 OFFCURVE",
"346 681 CURVE SMOOTH",
"386 681 OFFCURVE",
"426 667 OFFCURVE",
"460 651 CURVE",
"460 665 LINE",
"549 665 LINE",
"549 502 LINE",
"460 502 LINE",
"460 539 LINE",
"438 561 OFFCURVE",
"400 585 OFFCURVE",
"341 585 CURVE SMOOTH",
"232 585 OFFCURVE",
"143 411 OFFCURVE",
"143 296 CURVE SMOOTH",
"143 186 OFFCURVE",
"229 95 OFFCURVE",
"335 95 CURVE SMOOTH",
"414 95 OFFCURVE",
"482 140 OFFCURVE",
"523 221 CURVE",
"595 149 LINE",
"540 60 OFFCURVE",
"448 4 OFFCURVE",
"348 0 CURVE",
"347 -33 LINE",
"400 -38 OFFCURVE",
"438 -60 OFFCURVE",
"438 -115 CURVE SMOOTH",
"438 -167 OFFCURVE",
"395 -196 OFFCURVE",
"343 -196 CURVE SMOOTH",
"312 -196 OFFCURVE",
"290 -186 OFFCURVE",
"267 -157 CURVE",
"311 -123 LINE",
"317 -132 OFFCURVE",
"329 -139 OFFCURVE",
"343 -139 CURVE SMOOTH",
"359 -139 OFFCURVE",
"371 -130 OFFCURVE",
"371 -115 CURVE SMOOTH",
"371 -99 OFFCURVE",
"359 -90 OFFCURVE",
"339 -90 CURVE SMOOTH",
"332 -90 OFFCURVE",
"321 -93 OFFCURVE",
"316 -98 CURVE",
"274 -54 LINE"
);
}
);
userData = {
com.fontlab.hintData = {
hhints = (
{
position = -196;
width = 57;
},
{
position = 0;
width = 95;
},
{
position = 502;
width = 163;
},
{
position = 585;
width = 96;
}
);
vhints = (
{
position = 48;
width = 95;
},
{
position = 371;
width = 67;
},
{
position = 460;
width = 89;
}
);
};
};
width = 657;
}
);
unicode = 00C7;
},
{
glyphname = Ccircumflex;
layers = (
{
layerId = master01;
paths = (
{
closed = 1;
nodes = (
"179 -1 OFFCURVE",
"48 127 OFFCURVE",
"48 294 CURVE SMOOTH",
"48 454 OFFCURVE",
"167 681 OFFCURVE",
"346 681 CURVE SMOOTH",
"386 681 OFFCURVE",
"426 667 OFFCURVE",
"460 651 CURVE",
"460 665 LINE",
"549 665 LINE",
"549 502 LINE",
"460 502 LINE",
"460 539 LINE",
"438 561 OFFCURVE",
"400 585 OFFCURVE",
"341 585 CURVE SMOOTH",
"232 585 OFFCURVE",
"143 411 OFFCURVE",
"143 296 CURVE SMOOTH",
"143 186 OFFCURVE",
"229 95 OFFCURVE",
"335 95 CURVE SMOOTH",
"414 95 OFFCURVE",
"482 140 OFFCURVE",
"523 221 CURVE",
"595 149 LINE",
"538 56 OFFCURVE",
"440 -1 OFFCURVE",
"335 -1 CURVE SMOOTH"
);
},
{
closed = 1;
nodes = (
"183 756 LINE",
"357 895 LINE",
"509 751 LINE",
"443 691 LINE",
"351 773 LINE",
"243 690 LINE"
);
}
);
userData = {
com.fontlab.hintData = {
hhints = (
{
position = -1;
width = 96;
},
{
position = 502;
width = 163;
},
{
position = 585;
width = 96;
},
{
position = 690;
width = 21;
}
);
vhints = (
{
position = 48;
width = 95;
},
{
position = 460;
width = 89;
}
);
};
};
width = 657;
}
);
unicode = 0108;
},
{
glyphname = D;
layers = (
{
layerId = master01;
paths = (
{
closed = 1;
nodes = (
"61 680 LINE",
"108 680 LINE SMOOTH",
"218 680 OFFCURVE",
"307 656 OFFCURVE",
"365 630 CURVE",
"488 567 OFFCURVE",
"565 451 OFFCURVE",
"565 304 CURVE SMOOTH",
"565 101 OFFCURVE",
"439 -14 OFFCURVE",
"216 -14 CURVE SMOOTH",
"180 -14 OFFCURVE",
"112 -7 OFFCURVE",
"61 7 CURVE"
);
},
{
closed = 1;
nodes = (
"441 158 OFFCURVE",
"468 219 OFFCURVE",
"468 304 CURVE SMOOTH",
"468 414 OFFCURVE",
"417 496 OFFCURVE",
"322 541 CURVE",
"264 566 OFFCURVE",
"206 581 OFFCURVE",
"158 583 CURVE",
"158 86 LINE",
"174 84 OFFCURVE",
"196 83 OFFCURVE",
"216 83 CURVE SMOOTH",
"265 83 OFFCURVE",
"335 89 OFFCURVE",
"386 123 CURVE SMOOTH"
);
}
);
userData = {
com.fontlab.hintData = {
hhints = (
{
position = -14;
width = 97;
},
{
position = 583;
width = 97;
}
);
vhints = (
{
position = 61;
width = 97;
},
{
position = 468;
width = 97;
}
);
};
};
width = 642;
}
);
unicode = 0044;
},
{
glyphname = Eth;
layers = (
{
layerId = master01;
paths = (
{
closed = 1;
nodes = (
"115 271 LINE",
"18 271 LINE",
"35 373 LINE",
"115 373 LINE",
"115 680 LINE",
"162 680 LINE SMOOTH",
"272 680 OFFCURVE",
"361 656 OFFCURVE",
"419 630 CURVE",
"542 567 OFFCURVE",
"619 451 OFFCURVE",
"619 304 CURVE SMOOTH",
"619 101 OFFCURVE",
"493 -14 OFFCURVE",
"270 -14 CURVE SMOOTH",
"234 -14 OFFCURVE",
"166 -7 OFFCURVE",
"115 7 CURVE"
);
},
{
closed = 1;
nodes = (
"495 158 OFFCURVE",
"522 219 OFFCURVE",
"522 304 CURVE SMOOTH",
"522 414 OFFCURVE",
"471 496 OFFCURVE",
"376 541 CURVE",
"318 566 OFFCURVE",
"260 581 OFFCURVE",
"212 583 CURVE",
"212 373 LINE",
"319 373 LINE",
"302 271 LINE",
"212 271 LINE",
"212 86 LINE",
"228 84 OFFCURVE",
"250 83 OFFCURVE",
"270 83 CURVE SMOOTH",
"319 83 OFFCURVE",
"389 89 OFFCURVE",
"440 123 CURVE SMOOTH"
);
}
);
userData = {
com.fontlab.hintData = {
hhints = (
{
position = -14;
width = 97;
},
{
position = 271;
width = 102;
},
{
position = 583;
width = 97;
}
);
vhints = (
{
position = 115;
width = 97;
},
{
position = 522;
width = 97;
}
);
};
};
width = 702;
}
);
unicode = 00D0;
},
{
glyphname = Dcaron;
layers = (
{
layerId = master01;
paths = (
{
closed = 1;
nodes = (
"445 824 LINE",
"271 701 LINE",
"120 830 LINE",
"185 897 LINE",
"276 812 LINE",
"386 897 LINE"
);
},
{
closed = 1;
nodes = (
"61 680 LINE",
"108 680 LINE SMOOTH",
"218 680 OFFCURVE",
"307 656 OFFCURVE",
"365 630 CURVE",
"488 567 OFFCURVE",
"565 451 OFFCURVE",
"565 304 CURVE SMOOTH",
"565 101 OFFCURVE",
"439 -14 OFFCURVE",
"216 -14 CURVE SMOOTH",
"180 -14 OFFCURVE",
"112 -7 OFFCURVE",
"61 7 CURVE"
);
},
{
closed = 1;
nodes = (
"441 158 OFFCURVE",
"468 219 OFFCURVE",
"468 304 CURVE SMOOTH",
"468 414 OFFCURVE",
"417 496 OFFCURVE",
"322 541 CURVE",
"264 566 OFFCURVE",
"206 581 OFFCURVE",
"158 583 CURVE",
"158 86 LINE",
"174 84 OFFCURVE",
"196 83 OFFCURVE",
"216 83 CURVE SMOOTH",
"265 83 OFFCURVE",
"335 89 OFFCURVE",
"386 123 CURVE SMOOTH"
);
}
);
userData = {
com.fontlab.hintData = {
hhints = (
{
position = -14;
width = 97;
},
{
position = 583;
width = 97;
}
);
vhints = (
{
position = 61;
width = 97;
},
{
position = 468;
width = 97;
}
);
};
};
width = 642;
}
);
unicode = 010E;
},
{
glyphname = Dcroat;
layers = (
{
layerId = master01;
paths = (
{
closed = 1;
nodes = (
"115 271 LINE",
"18 271 LINE",
"35 373 LINE",
"115 373 LINE",
"115 680 LINE",
"162 680 LINE SMOOTH",
"272 680 OFFCURVE",
"361 656 OFFCURVE",
"419 630 CURVE",
"542 567 OFFCURVE",
"619 451 OFFCURVE",
"619 304 CURVE SMOOTH",
"619 101 OFFCURVE",
"493 -14 OFFCURVE",
"270 -14 CURVE SMOOTH",
"234 -14 OFFCURVE",
"166 -7 OFFCURVE",
"115 7 CURVE"
);
},
{
closed = 1;
nodes = (
"495 158 OFFCURVE",
"522 219 OFFCURVE",
"522 304 CURVE SMOOTH",
"522 414 OFFCURVE",
"471 496 OFFCURVE",
"376 541 CURVE",
"318 566 OFFCURVE",
"260 581 OFFCURVE",
"212 583 CURVE",
"212 373 LINE",
"319 373 LINE",
"302 271 LINE",
"212 271 LINE",
"212 86 LINE",
"228 84 OFFCURVE",
"250 83 OFFCURVE",
"270 83 CURVE SMOOTH",
"319 83 OFFCURVE",
"389 89 OFFCURVE",
"440 123 CURVE SMOOTH"
);
}
);
userData = {
com.fontlab.hintData = {
hhints = (
{
position = -14;
width = 97;
},
{
position = 271;
width = 102;
},
{
position = 583;
width = 97;
}
);
vhints = (
{
position = 115;
width = 97;
},
{
position = 522;
width = 97;
}
);
};
};
width = 702;
}
);
unicode = 0110;
},
{
glyphname = E;
layers = (
{
layerId = master01;
paths = (
{
closed = 1;
nodes = (
"570 99 LINE",
"535 0 LINE",
"61 0 LINE",
"61 681 LINE",
"560 681 LINE",
"543 582 LINE",
"160 582 LINE",
"160 402 LINE",
"526 402 LINE",
"497 304 LINE",
"160 304 LINE",
"160 99 LINE"
);
}
);
userData = {
com.fontlab.hintData = {
hhints = (
{
position = 0;
width = 99;
},
{
position = 304;
width = 98;
},
{
position = 582;
width = 99;
}
);
vhints = (
{
position = 61;
width = 99;
}
);
};
};
width = 637;
}
);
unicode = 0045;
},
{
glyphname = Eacute;
layers = (
{
layerId = master01;
paths = (
{
closed = 1;
nodes = (
"349 906 LINE",
"435 831 LINE",
"245 710 LINE",
"172 772 LINE"
);
},
{
closed = 1;
nodes = (
"570 99 LINE",
"535 0 LINE",
"61 0 LINE",
"61 681 LINE",
"560 681 LINE",
"543 582 LINE",
"160 582 LINE",
"160 402 LINE",
"526 402 LINE",
"497 304 LINE",
"160 304 LINE",
"160 99 LINE"
);
}
);
userData = {
com.fontlab.hintData = {
hhints = (
{
position = 0;
width = 99;
},
{
position = 304;
width = 98;
},
{
position = 582;
width = 99;
}
);
vhints = (
{
position = 61;
width = 99;
}
);
};
};
width = 637;
}
);
unicode = 00C9;
},
{
glyphname = Ecaron;
layers = (
{
layerId = master01;
paths = (
{
closed = 1;
nodes = (
"473 824 LINE",
"299 701 LINE",
"147 830 LINE",
"212 897 LINE",
"303 812 LINE",
"414 897 LINE"
);
},
{
closed = 1;
nodes = (
"570 99 LINE",
"535 0 LINE",
"61 0 LINE",
"61 681 LINE",
"560 681 LINE",
"543 582 LINE",
"160 582 LINE",
"160 402 LINE",
"526 402 LINE",
"497 304 LINE",
"160 304 LINE",
"160 99 LINE"
);
}
);
userData = {
com.fontlab.hintData = {
hhints = (
{
position = 0;
width = 99;
},
{
position = 304;
width = 98;
},
{
position = 582;
width = 99;
}
);
vhints = (
{
position = 61;
width = 99;
}
);
};
};
width = 637;
}
);
unicode = 011A;
},
{
glyphname = Ecircumflex;
layers = (
{
layerId = master01;
paths = (
{
closed = 1;
nodes = (
"147 766 LINE",
"320 895 LINE",
"472 761 LINE",
"407 701 LINE",
"314 783 LINE",
"206 700 LINE"
);
},
{
closed = 1;
nodes = (
"570 99 LINE",
"535 0 LINE",
"61 0 LINE",
"61 681 LINE",
"560 681 LINE",
"543 582 LINE",
"160 582 LINE",
"160 402 LINE",
"526 402 LINE",
"497 304 LINE",
"160 304 LINE",
"160 99 LINE"
);
}
);
userData = {
com.fontlab.hintData = {
hhints = (
{
position = 0;
width = 99;
},
{
position = 304;
width = 98;
},
{
position = 582;
width = 99;
}
);
vhints = (
{
position = 61;
width = 99;
}
);
};
};
width = 637;
}
);
unicode = 00CA;
},
{
glyphname = Edieresis;
layers = (
{
layerId = master01;
paths = (
{
closed = 1;
nodes = (
"280 719 LINE",
"163 704 LINE",
"177 818 LINE",
"292 833 LINE"
);
},
{
closed = 1;
nodes = (
"450 719 LINE",
"333 704 LINE",
"347 818 LINE",
"462 833 LINE"
);
},
{
closed = 1;
nodes = (
"570 99 LINE",
"535 0 LINE",
"61 0 LINE",
"61 681 LINE",
"560 681 LINE",
"543 582 LINE",
"160 582 LINE",
"160 402 LINE",
"526 402 LINE",
"497 304 LINE",
"160 304 LINE",
"160 99 LINE"
);
}
);
userData = {
com.fontlab.hintData = {
hhints = (
{
position = 0;
width = 99;
},
{
position = 304;
width = 98;
},
{
position = 582;
width = 99;
}
);
vhints = (
{
position = 61;
width = 99;
}
);
};
};
width = 637;
}
);
unicode = 00CB;
},
{
glyphname = Egrave;
layers = (
{
layerId = master01;
paths = (
{
closed = 1;
nodes = (
"326 700 LINE",
"161 856 LINE",
"260 912 LINE",
"408 750 LINE"
);
},
{
closed = 1;
nodes = (
"570 99 LINE",
"535 0 LINE",
"61 0 LINE",
"61 681 LINE",
"560 681 LINE",
"543 582 LINE",
"160 582 LINE",
"160 402 LINE",
"526 402 LINE",
"497 304 LINE",
"160 304 LINE",
"160 99 LINE"
);
}
);
userData = {
com.fontlab.hintData = {
hhints = (
{
position = 0;
width = 99;
},
{
position = 304;
width = 98;
},
{
position = 582;
width = 99;
}
);
vhints = (
{
position = 61;
width = 99;
}
);
};
};
width = 637;
}
);
unicode = 00C8;
},
{
glyphname = Eogonek;
layers = (
{
layerId = master01;
paths = (
{
closed = 1;
nodes = (
"472 -34 LINE SMOOTH",
"454 -44 OFFCURVE",
"431 -60 OFFCURVE",
"431 -86 CURVE SMOOTH",
"431 -100 OFFCURVE",
"444 -112 OFFCURVE",
"459 -112 CURVE SMOOTH",
"480 -112 OFFCURVE",
"502 -98 OFFCURVE",
"530 -75 CURVE",
"583 -131 LINE",
"557 -164 OFFCURVE",
"504 -196 OFFCURVE",
"459 -196 CURVE SMOOTH",
"391 -196 OFFCURVE",
"340 -161 OFFCURVE",
"340 -94 CURVE SMOOTH",
"340 -50 OFFCURVE",
"370 -22 OFFCURVE",
"399 0 CURVE",
"61 0 LINE",
"61 681 LINE",
"560 681 LINE",
"543 582 LINE",
"160 582 LINE",
"160 402 LINE",
"526 402 LINE",
"497 304 LINE",
"160 304 LINE",
"160 99 LINE",
"570 99 LINE",
"535 0 LINE"
);
}
);
userData = {
com.fontlab.hintData = {
hhints = (
{
position = -196;
width = 84;
},
{
position = 0;
width = 99;
},
{
position = 304;
width = 98;
},
{
position = 582;
width = 99;
}
);
vhints = (
{
position = 61;
width = 99;
},
{
position = 340;
width = 91;
}
);
};
};
width = 637;
}
);
unicode = 0118;
},
{
glyphname = F;
layers = (
{
layerId = master01;
paths = (
{
closed = 1;
nodes = (
"154 582 LINE",
"154 395 LINE",
"474 395 LINE",
"457 295 LINE",
"154 295 LINE",
"154 12 LINE",
"55 -5 LINE",
"55 681 LINE",
"521 681 LINE",
"503 582 LINE"
);
}
);
userData = {
com.fontlab.hintData = {
hhints = (
{
position = 295;
width = 100;
},
{
position = 582;
width = 99;
}
);
vhints = (
{
position = 55;
width = 99;
}
);
};
};
width = 531;
}
);
unicode = 0046;
},
{
glyphname = G;
layers = (
{
layerId = master01;
paths = (
{
closed = 1;
nodes = (
"686 197 LINE",
"673 202 OFFCURVE",
"660 207 OFFCURVE",
"645 210 CURVE",
"626 142 OFFCURVE",
"561 -2 OFFCURVE",
"356 -2 CURVE SMOOTH",
"181 -2 OFFCURVE",
"58 149 OFFCURVE",
"58 341 CURVE SMOOTH",
"58 500 OFFCURVE",
"185 682 OFFCURVE",
"374 682 CURVE SMOOTH",
"527 682 OFFCURVE",
"626 587 OFFCURVE",
"660 449 CURVE",
"565 430 LINE",
"541 524 OFFCURVE",
"477 586 OFFCURVE",
"374 586 CURVE SMOOTH",
"220 586 OFFCURVE",
"155 424 OFFCURVE",
"155 341 CURVE SMOOTH",
"155 220 OFFCURVE",
"224 95 OFFCURVE",
"356 95 CURVE SMOOTH",
"451 95 OFFCURVE",
"517 141 OFFCURVE",
"547 220 CURVE",
"495 218 OFFCURVE",
"429 202 OFFCURVE",
"381 182 CURVE",
"381 288 LINE",
"437 306 OFFCURVE",
"501 316 OFFCURVE",
"557 316 CURVE SMOOTH",
"596 316 OFFCURVE",
"641 310 OFFCURVE",
"686 299 CURVE"
);
}
);
userData = {
com.fontlab.hintData = {
hhints = (
{
position = -2;
width = 97;
},
{
position = 220;
width = 96;
},
{
position = 586;
width = 96;
}
);
vhints = (
{
position = 58;
width = 97;
},
{
position = 565;
width = 95;
}
);
};
};
width = 770;
}
);
unicode = 0047;
},
{
glyphname = Gcircumflex;
layers = (
{
layerId = master01;
paths = (
{
closed = 1;
nodes = (
"686 197 LINE",
"673 202 OFFCURVE",
"660 207 OFFCURVE",
"645 210 CURVE",
"626 142 OFFCURVE",
"561 -2 OFFCURVE",
"356 -2 CURVE SMOOTH",
"181 -2 OFFCURVE",
"58 149 OFFCURVE",
"58 341 CURVE SMOOTH",
"58 500 OFFCURVE",
"185 682 OFFCURVE",
"374 682 CURVE SMOOTH",
"527 682 OFFCURVE",
"626 587 OFFCURVE",
"660 449 CURVE",
"565 430 LINE",
"541 524 OFFCURVE",
"477 586 OFFCURVE",
"374 586 CURVE SMOOTH",
"220 586 OFFCURVE",
"155 424 OFFCURVE",
"155 341 CURVE SMOOTH",
"155 220 OFFCURVE",
"224 95 OFFCURVE",
"356 95 CURVE SMOOTH",
"451 95 OFFCURVE",
"517 141 OFFCURVE",
"547 220 CURVE",
"495 218 OFFCURVE",
"429 202 OFFCURVE",
"381 182 CURVE",
"381 288 LINE",
"437 306 OFFCURVE",
"501 316 OFFCURVE",
"557 316 CURVE SMOOTH",
"596 316 OFFCURVE",
"641 310 OFFCURVE",
"686 299 CURVE"
);
},
{
closed = 1;
nodes = (
"213 756 LINE",
"387 895 LINE",
"539 751 LINE",
"473 691 LINE",
"381 773 LINE",
"273 690 LINE"
);
}
);
userData = {
com.fontlab.hintData = {
hhints = (
{
position = -2;
width = 97;
},
{
position = 220;
width = 96;
},
{
position = 586;
width = 96;
},
{
position = 690;
width = 21;
}
);
vhints = (
{
position = 58;
width = 97;
},
{
position = 565;
width = 95;
}
);
};
};
width = 770;
}
);
unicode = 011C;
},
{
glyphname = H;
layers = (
{
layerId = master01;
paths = (
{
closed = 1;
nodes = (
"624 686 LINE",
"624 25 LINE",
"525 -9 LINE",
"525 322 LINE",
"161 270 LINE",
"161 25 LINE",
"62 -9 LINE",
"62 668 LINE",
"161 686 LINE",
"161 370 LINE",
"525 422 LINE",
"525 668 LINE"
);
}
);
userData = {
com.fontlab.hintData = {
vhints = (
{
position = 62;
width = 99;
},
{
position = 525;
width = 99;
}
);
};
};
width = 709;
}
);
unicode = 0048;
},
{
glyphname = Hcircumflex;
layers = (
{
layerId = master01;
paths = (
{
closed = 1;
nodes = (
"624 686 LINE",
"624 25 LINE",
"525 -9 LINE",
"525 322 LINE",
"161 270 LINE",
"161 25 LINE",
"62 -9 LINE",
"62 668 LINE",
"161 686 LINE",
"161 370 LINE",
"525 422 LINE",
"525 668 LINE"
);
},
{
closed = 1;
nodes = (
"185 756 LINE",
"359 895 LINE",
"511 751 LINE",
"445 691 LINE",
"353 773 LINE",
"245 690 LINE"
);
}
);
userData = {
com.fontlab.hintData = {
hhints = (
{
position = 690;
width = 21;
}
);
vhints = (
{
position = 62;
width = 99;
},
{
position = 525;
width = 99;
}
);
};
};
width = 709;
}
);
unicode = 0124;
},
{
glyphname = I;
layers = (
{
layerId = master01;
paths = (
{
closed = 1;
nodes = (
"276 582 LINE",
"276 99 LINE",
"400 99 LINE",
"382 0 LINE",
"48 0 LINE",
"65 99 LINE",
"177 99 LINE",
"177 582 LINE",
"48 582 LINE",
"65 681 LINE",
"400 681 LINE",
"382 582 LINE"
);
}
);
userData = {
com.fontlab.hintData = {
hhints = (
{
position = 0;
width = 99;
},
{
position = 582;
width = 99;
}
);
vhints = (
{
position = 177;
width = 99;
}
);
};
};
width = 463;
}
);
unicode = 0049;
},
{
glyphname = Iacute;
layers = (
{
layerId = master01;
paths = (
{
closed = 1;
nodes = (
"277 906 LINE",
"363 831 LINE",
"173 710 LINE",
"100 772 LINE"
);
},
{
closed = 1;
nodes = (
"276 582 LINE",
"276 99 LINE",
"400 99 LINE",
"382 0 LINE",
"48 0 LINE",
"65 99 LINE",
"177 99 LINE",
"177 582 LINE",
"48 582 LINE",
"65 681 LINE",
"400 681 LINE",
"382 582 LINE"
);
}
);
userData = {
com.fontlab.hintData = {
hhints = (
{
position = 0;
width = 99;
},
{
position = 582;
width = 99;
}
);
vhints = (
{
position = 177;
width = 99;
}
);
};
};
width = 463;
}
);
unicode = 00CD;
},
{
glyphname = Icircumflex;
layers = (
{
layerId = master01;
paths = (
{
closed = 1;
nodes = (
"63 776 LINE",
"237 895 LINE",
"388 771 LINE",
"323 701 LINE",
"231 783 LINE",
"123 700 LINE"
);
},
{
closed = 1;
nodes = (
"276 582 LINE",
"276 99 LINE",
"400 99 LINE",
"382 0 LINE",
"48 0 LINE",
"65 99 LINE",
"177 99 LINE",
"177 582 LINE",
"48 582 LINE",
"65 681 LINE",
"400 681 LINE",
"382 582 LINE"
);
}
);
userData = {
com.fontlab.hintData = {
hhints = (
{
position = 0;
width = 99;
},
{
position = 582;
width = 99;
}
);
vhints = (
{
position = 177;
width = 99;
}
);
};
};
width = 463;
}
);
unicode = 00CE;
},
{
glyphname = Idieresis;
layers = (
{
layerId = master01;
paths = (
{
closed = 1;
nodes = (
"197 719 LINE",
"79 704 LINE",
"93 818 LINE",
"209 833 LINE"
);
},
{
closed = 1;
nodes = (
"367 719 LINE",
"249 704 LINE",
"263 818 LINE",
"379 833 LINE"
);
},
{
closed = 1;
nodes = (
"276 582 LINE",
"276 99 LINE",
"400 99 LINE",
"382 0 LINE",
"48 0 LINE",
"65 99 LINE",
"177 99 LINE",
"177 582 LINE",
"48 582 LINE",
"65 681 LINE",
"400 681 LINE",
"382 582 LINE"
);
}
);
userData = {
com.fontlab.hintData = {
hhints = (
{
position = 0;
width = 99;
},
{
position = 582;
width = 99;
}
);
vhints = (
{
position = 177;
width = 99;
}
);
};
};
width = 463;
}
);
unicode = 00CF;
},
{
glyphname = Igrave;
layers = (
{
layerId = master01;
paths = (
{
closed = 1;
nodes = (
"256 700 LINE",
"91 856 LINE",
"191 912 LINE",
"339 750 LINE"
);
},
{
closed = 1;
nodes = (
"276 582 LINE",
"276 99 LINE",
"400 99 LINE",
"382 0 LINE",
"48 0 LINE",
"65 99 LINE",
"177 99 LINE",
"177 582 LINE",
"48 582 LINE",
"65 681 LINE",
"400 681 LINE",
"382 582 LINE"
);
}
);
userData = {
com.fontlab.hintData = {
hhints = (
{
position = 0;
width = 99;
},
{
position = 582;
width = 99;
}
);
vhints = (
{
position = 177;
width = 99;
}
);
};
};
width = 463;
}
);
unicode = 00CC;
},
{
glyphname = J;
layers = (
{
layerId = master01;
paths = (
{
closed = 1;
nodes = (
"463 679 LINE",
"463 579 LINE",
"416 579 LINE",
"416 174 LINE SMOOTH",
"416 72 OFFCURVE",
"340 1 OFFCURVE",
"230 1 CURVE SMOOTH",
"122 1 OFFCURVE",
"45 75 OFFCURVE",
"45 174 CURVE SMOOTH",
"45 226 LINE",
"144 244 LINE",
"144 174 LINE SMOOTH",
"144 129 OFFCURVE",
"179 95 OFFCURVE",
"230 95 CURVE SMOOTH",
"283 95 OFFCURVE",
"317 129 OFFCURVE",
"317 174 CURVE SMOOTH",
"317 579 LINE",
"173 579 LINE",
"173 679 LINE"
);
}
);
userData = {
com.fontlab.hintData = {
hhints = (
{
position = 1;
width = 94;
},
{
position = 579;
width = 100;
}
);
vhints = (
{
position = 45;
width = 99;
},
{
position = 317;
width = 99;
}
);
};
};
width = 495;
}
);
unicode = 004A;
},
{
glyphname = Jcircumflex;
layers = (
{
layerId = master01;
paths = (
{
closed = 1;
nodes = (
"463 679 LINE",
"463 579 LINE",
"416 579 LINE",
"416 174 LINE SMOOTH",
"416 72 OFFCURVE",
"340 1 OFFCURVE",
"230 1 CURVE SMOOTH",
"122 1 OFFCURVE",
"45 75 OFFCURVE",
"45 174 CURVE SMOOTH",
"45 226 LINE",
"144 244 LINE",
"144 174 LINE SMOOTH",
"144 129 OFFCURVE",
"179 95 OFFCURVE",
"230 95 CURVE SMOOTH",
"283 95 OFFCURVE",
"317 129 OFFCURVE",
"317 174 CURVE SMOOTH",
"317 579 LINE",
"173 579 LINE",
"173 679 LINE"
);
},
{
closed = 1;
nodes = (
"163 756 LINE",
"337 895 LINE",
"489 751 LINE",
"423 691 LINE",
"331 773 LINE",
"223 690 LINE"
);
}
);
userData = {
com.fontlab.hintData = {
hhints = (
{
position = 1;
width = 94;
},
{
position = 579;
width = 100;
},
{
position = 690;
width = 21;
}
);
vhints = (
{
position = 45;
width = 99;
},
{
position = 317;
width = 99;
}
);
};
};
width = 495;
}
);
unicode = 0134;
},
{
glyphname = K;
layers = (
{
layerId = master01;
paths = (
{
closed = 1;
nodes = (
"487 -9 LINE",
"157 242 LINE",
"157 12 LINE",
"61 -5 LINE",
"61 668 LINE",
"157 686 LINE",
"157 435 LINE",
"460 689 LINE",
"523 616 LINE",
"191 337 LINE",
"547 68 LINE"
);
}
);
userData = {
com.fontlab.hintData = {
hhints = (
{
position = 669;
width = 20;
}
);
vhints = (
{
position = 61;
width = 96;
}
);
};
};
width = 603;
}
);
unicode = 004B;
},
{
glyphname = L;
layers = (
{
layerId = master01;
paths = (
{
closed = 1;
nodes = (
"59 665 LINE",
"158 683 LINE",
"158 104 LINE",
"475 128 LINE",
"480 29 LINE",
"59 -2 LINE"
);
}
);
userData = {
com.fontlab.hintData = {
hhints = (
{
position = -2;
width = 21;
}
);
vhints = (
{
position = 59;
width = 99;
}
);
};
};
width = 513;
}
);
unicode = 004C;
},
{
glyphname = Lacute;
layers = (
{
layerId = master01;
paths = (
{
closed = 1;
nodes = (
"268 906 LINE",
"354 831 LINE",
"164 710 LINE",
"91 772 LINE"
);
},
{
closed = 1;
nodes = (
"59 665 LINE",
"158 683 LINE",
"158 104 LINE",
"475 128 LINE",
"480 29 LINE",
"59 -2 LINE"
);
}
);
userData = {
com.fontlab.hintData = {
hhints = (
{
position = -2;
width = 21;
}
);
vhints = (
{
position = 59;
width = 99;
}
);
};
};
width = 513;
}
);
unicode = 0139;
},
{
glyphname = Lcaron;
layers = (
{
layerId = master01;
paths = (
{
closed = 1;
nodes = (
"102 665 LINE",
"201 683 LINE",
"201 104 LINE",
"517 128 LINE",
"523 29 LINE",
"102 -2 LINE"
);
},
{
closed = 1;
nodes = (
"376 824 LINE",
"202 701 LINE",
"51 825 LINE",
"116 897 LINE",
"207 812 LINE",
"317 897 LINE"
);
}
);
userData = {
com.fontlab.hintData = {
hhints = (
{
position = -2;
width = 21;
}
);
vhints = (
{
position = 102;
width = 99;
}
);
};
};
width = 558;
}
);
unicode = 013D;
},
{
glyphname = Lslash;
layers = (
{
layerId = master01;
paths = (
{
closed = 1;
nodes = (
"118 -2 LINE",
"118 254 LINE",
"85 234 LINE",
"28 318 LINE",
"118 374 LINE",
"118 665 LINE",
"216 683 LINE",
"216 435 LINE",
"251 457 LINE",
"304 374 LINE",
"216 318 LINE",
"216 104 LINE",
"533 128 LINE",
"539 29 LINE"
);
}
);
userData = {
com.fontlab.hintData = {
hhints = (
{
position = -2;
width = 21;
}
);
vhints = (
{
position = 118;
width = 98;
}
);
};
};
width = 575;
}
);
unicode = 0141;
},
{
glyphname = M;
layers = (
{
layerId = master01;
paths = (
{
closed = 1;
nodes = (
"145 12 LINE",
"45 -6 LINE",
"186 669 LINE",
"271 685 LINE",
"418 166 LINE",
"580 670 LINE",
"669 685 LINE",
"815 13 LINE",
"716 -4 LINE",
"616 467 LINE",
"470 11 LINE",
"365 -3 LINE",
"237 446 LINE"
);
}
);
userData = {
com.fontlab.hintData = {
hhints = (
{
position = -3;
width = 20;
}
);
};
};
width = 891;
}
);
unicode = 004D;
},
{
glyphname = N;
layers = (
{
layerId = master01;
paths = (
{
closed = 1;
nodes = (
"559 686 LINE",
"559 16 LINE",
"465 -3 LINE",
"158 489 LINE",
"158 15 LINE",
"62 -4 LINE",
"61 660 LINE",
"149 685 LINE",
"463 184 LINE",
"463 668 LINE"
);
}
);
userData = {
com.fontlab.hintData = {
hhints = (
{
position = -4;
width = 22;
}
);
vhints = (
{
position = 62;
width = 96;
},
{
position = 463;
width = 96;
}
);
};
};
width = 641;
}
);
unicode = 004E;
},
{
glyphname = Nacute;
layers = (
{
layerId = master01;
paths = (
{
closed = 1;
nodes = (
"357 906 LINE",
"444 831 LINE",
"254 710 LINE",
"180 772 LINE"
);
},
{
closed = 1;
nodes = (
"559 686 LINE",
"559 16 LINE",
"465 -3 LINE",
"158 489 LINE",
"158 15 LINE",
"62 -4 LINE",
"61 660 LINE",
"149 685 LINE",
"463 184 LINE",
"463 668 LINE"
);
}
);
userData = {
com.fontlab.hintData = {
hhints = (
{
position = -4;
width = 22;
}
);
vhints = (
{
position = 62;
width = 96;
},
{
position = 463;
width = 96;
}
);
};
};
width = 641;
}
);
unicode = 0143;
},
{
glyphname = Ncaron;
layers = (
{
layerId = master01;
paths = (
{
closed = 1;
nodes = (
"483 824 LINE",
"309 701 LINE",
"157 830 LINE",
"222 897 LINE",
"313 812 LINE",
"424 897 LINE"
);
},
{
closed = 1;
nodes = (
"559 686 LINE",
"559 16 LINE",
"465 -3 LINE",
"158 489 LINE",
"158 15 LINE",
"62 -4 LINE",
"61 660 LINE",
"149 685 LINE",
"463 184 LINE",
"463 668 LINE"
);
}
);
userData = {
com.fontlab.hintData = {
hhints = (
{
position = -4;
width = 22;
}
);
vhints = (
{
position = 62;
width = 96;
},
{
position = 463;
width = 96;
}
);
};
};
width = 641;
}
);
unicode = 0147;
},
{
glyphname = Ntilde;
layers = (
{
layerId = master01;
paths = (
{
closed = 1;
nodes = (
"559 686 LINE",
"559 16 LINE",
"465 -3 LINE",
"158 489 LINE",
"158 15 LINE",
"62 -4 LINE",
"61 660 LINE",
"149 685 LINE",
"463 184 LINE",
"463 668 LINE"
);
},
{
closed = 1;
nodes = (
"510 838 LINE",
"499 807 OFFCURVE",
"465 705 OFFCURVE",
"364 705 CURVE SMOOTH",
"332 705 OFFCURVE",
"305 722 OFFCURVE",
"283 753 CURVE SMOOTH",
"267 776 OFFCURVE",
"256 788 OFFCURVE",
"241 788 CURVE SMOOTH",
"206 788 OFFCURVE",
"186 732 OFFCURVE",
"184 720 CURVE",
"119 753 LINE",
"135 809 OFFCURVE",
"175 877 OFFCURVE",
"253 877 CURVE SMOOTH",
"292 877 OFFCURVE",
"318 860 OFFCURVE",
"340 829 CURVE SMOOTH",
"356 807 OFFCURVE",
"367 793 OFFCURVE",
"382 793 CURVE SMOOTH",
"403 793 OFFCURVE",
"429 816 OFFCURVE",
"443 870 CURVE"
);
}
);
userData = {
com.fontlab.hintData = {
hhints = (
{
position = -4;
width = 22;
},
{
position = 705;
width = 88;
},
{
position = 788;
width = 89;
}
);
vhints = (
{
position = 62;
width = 96;
},
{
position = 463;
width = 96;
}
);
};
};
width = 641;
}
);
unicode = 00D1;
},
{
glyphname = O;
layers = (
{
layerId = master01;
paths = (
{
closed = 1;
nodes = (
"163 -2 OFFCURVE",
"57 144 OFFCURVE",
"57 315 CURVE SMOOTH",
"57 514 OFFCURVE",
"194 682 OFFCURVE",
"351 682 CURVE SMOOTH",
"498 682 OFFCURVE",
"607 538 OFFCURVE",
"607 365 CURVE SMOOTH",
"607 166 OFFCURVE",
"470 -2 OFFCURVE",
"312 -2 CURVE SMOOTH"
);
},
{
closed = 1;
nodes = (
"242 587 OFFCURVE",
"153 466 OFFCURVE",
"153 315 CURVE SMOOTH",
"153 194 OFFCURVE",
"220 93 OFFCURVE",
"312 93 CURVE SMOOTH",
"415 93 OFFCURVE",
"511 216 OFFCURVE",
"511 361 CURVE SMOOTH",
"511 475 OFFCURVE",
"442 587 OFFCURVE",
"345 587 CURVE SMOOTH"
);
}
);
userData = {
com.fontlab.hintData = {
hhints = (
{
position = -2;
width = 95;
},
{
position = 587;
width = 95;
}
);
vhints = (
{
position = 57;
width = 96;
},
{
position = 511;
width = 96;
}
);
};
};
width = 686;
}
);
unicode = 004F;
},
{
glyphname = Oacute;
layers = (
{
layerId = master01;
paths = (
{
closed = 1;
nodes = (
"409 906 LINE",
"496 831 LINE",
"306 710 LINE",
"232 772 LINE"
);
},
{
closed = 1;
nodes = (
"163 0 OFFCURVE",
"57 146 OFFCURVE",
"57 317 CURVE SMOOTH",
"57 516 OFFCURVE",
"194 684 OFFCURVE",
"351 684 CURVE SMOOTH",
"498 684 OFFCURVE",
"607 540 OFFCURVE",
"607 367 CURVE SMOOTH",
"607 168 OFFCURVE",
"470 0 OFFCURVE",
"312 0 CURVE SMOOTH"
);
},
{
closed = 1;
nodes = (
"242 589 OFFCURVE",
"153 468 OFFCURVE",
"153 317 CURVE SMOOTH",
"153 196 OFFCURVE",
"220 95 OFFCURVE",
"312 95 CURVE SMOOTH",
"415 95 OFFCURVE",
"511 218 OFFCURVE",
"511 363 CURVE SMOOTH",
"511 477 OFFCURVE",
"442 589 OFFCURVE",
"345 589 CURVE SMOOTH"
);
}
);
userData = {
com.fontlab.hintData = {
hhints = (
{
position = 0;
width = 95;
},
{
position = 589;
width = 95;
}
);
vhints = (
{
position = 57;
width = 96;
},
{
position = 511;
width = 96;
}
);
};
};
width = 686;
}
);
unicode = 00D3;
},
{
glyphname = Ocircumflex;
layers = (
{
layerId = master01;
paths = (
{
closed = 1;
nodes = (
"194 766 LINE",
"368 895 LINE",
"520 761 LINE",
"455 696 LINE",
"362 778 LINE",
"253 695 LINE"
);
},
{
closed = 1;
nodes = (
"163 0 OFFCURVE",
"57 146 OFFCURVE",
"57 317 CURVE SMOOTH",
"57 516 OFFCURVE",
"194 684 OFFCURVE",
"351 684 CURVE SMOOTH",
"498 684 OFFCURVE",
"607 540 OFFCURVE",
"607 367 CURVE SMOOTH",
"607 168 OFFCURVE",
"470 0 OFFCURVE",
"312 0 CURVE SMOOTH"
);
},
{
closed = 1;
nodes = (
"242 589 OFFCURVE",
"153 468 OFFCURVE",
"153 317 CURVE SMOOTH",
"153 196 OFFCURVE",
"220 95 OFFCURVE",
"312 95 CURVE SMOOTH",
"415 95 OFFCURVE",
"511 218 OFFCURVE",
"511 363 CURVE SMOOTH",
"511 477 OFFCURVE",
"442 589 OFFCURVE",
"345 589 CURVE SMOOTH"
);
}
);
userData = {
com.fontlab.hintData = {
hhints = (
{
position = 0;
width = 95;
},
{
position = 589;
width = 95;
}
);
vhints = (
{
position = 57;
width = 96;
},
{
position = 511;
width = 96;
}
);
};
};
width = 686;
}
);
unicode = 00D4;
},
{
glyphname = Odieresis;
layers = (
{
layerId = master01;
paths = (
{
closed = 1;
nodes = (
"320 719 LINE",
"202 704 LINE",
"216 818 LINE",
"332 833 LINE"
);
},
{
closed = 1;
nodes = (
"489 719 LINE",
"372 704 LINE",
"385 818 LINE",
"501 833 LINE"
);
},
{
closed = 1;
nodes = (
"163 0 OFFCURVE",
"57 146 OFFCURVE",
"57 317 CURVE SMOOTH",
"57 516 OFFCURVE",
"194 684 OFFCURVE",
"351 684 CURVE SMOOTH",
"498 684 OFFCURVE",
"607 540 OFFCURVE",
"607 367 CURVE SMOOTH",
"607 168 OFFCURVE",
"470 0 OFFCURVE",
"312 0 CURVE SMOOTH"
);
},
{
closed = 1;
nodes = (
"242 589 OFFCURVE",
"153 468 OFFCURVE",
"153 317 CURVE SMOOTH",
"153 196 OFFCURVE",
"220 95 OFFCURVE",
"312 95 CURVE SMOOTH",
"415 95 OFFCURVE",
"511 218 OFFCURVE",
"511 363 CURVE SMOOTH",
"511 477 OFFCURVE",
"442 589 OFFCURVE",
"345 589 CURVE SMOOTH"
);
}
);
userData = {
com.fontlab.hintData = {
hhints = (
{
position = 0;
width = 95;
},
{
position = 589;
width = 95;
}
);
vhints = (
{
position = 57;
width = 96;
},
{
position = 511;
width = 96;
}
);
};
};
width = 686;
}
);
unicode = 00D6;
},
{
glyphname = Ograve;
layers = (
{
layerId = master01;
paths = (
{
closed = 1;
nodes = (
"380 700 LINE",
"215 856 LINE",
"315 912 LINE",
"463 750 LINE"
);
},
{
closed = 1;
nodes = (
"163 0 OFFCURVE",
"57 146 OFFCURVE",
"57 317 CURVE SMOOTH",
"57 516 OFFCURVE",
"194 684 OFFCURVE",
"351 684 CURVE SMOOTH",
"498 684 OFFCURVE",
"607 540 OFFCURVE",
"607 367 CURVE SMOOTH",
"607 168 OFFCURVE",
"470 0 OFFCURVE",
"312 0 CURVE SMOOTH"
);
},
{
closed = 1;
nodes = (
"242 589 OFFCURVE",
"153 468 OFFCURVE",
"153 317 CURVE SMOOTH",
"153 196 OFFCURVE",
"220 95 OFFCURVE",
"312 95 CURVE SMOOTH",
"415 95 OFFCURVE",
"511 218 OFFCURVE",
"511 363 CURVE SMOOTH",
"511 477 OFFCURVE",
"442 589 OFFCURVE",
"345 589 CURVE SMOOTH"
);
}
);
userData = {
com.fontlab.hintData = {
hhints = (
{
position = 0;
width = 95;
},
{
position = 589;
width = 95;
}
);
vhints = (
{
position = 57;
width = 96;
},
{
position = 511;
width = 96;
}
);
};
};
width = 686;
}
);
unicode = 00D2;
},
{
glyphname = Ohungarumlaut;
layers = (
{
layerId = master01;
paths = (
{
closed = 1;
nodes = (
"296 906 LINE",
"372 831 LINE",
"192 710 LINE",
"119 772 LINE"
);
},
{
closed = 1;
nodes = (
"515 906 LINE",
"592 831 LINE",
"401 710 LINE",
"338 772 LINE"
);
},
{
closed = 1;
nodes = (
"163 0 OFFCURVE",
"57 146 OFFCURVE",
"57 317 CURVE SMOOTH",
"57 516 OFFCURVE",
"194 684 OFFCURVE",
"351 684 CURVE SMOOTH",
"498 684 OFFCURVE",
"607 540 OFFCURVE",
"607 367 CURVE SMOOTH",
"607 168 OFFCURVE",
"470 0 OFFCURVE",
"312 0 CURVE SMOOTH"
);
},
{
closed = 1;
nodes = (
"242 589 OFFCURVE",
"153 468 OFFCURVE",
"153 317 CURVE SMOOTH",
"153 196 OFFCURVE",
"220 95 OFFCURVE",
"312 95 CURVE SMOOTH",
"415 95 OFFCURVE",
"511 218 OFFCURVE",
"511 363 CURVE SMOOTH",
"511 477 OFFCURVE",
"442 589 OFFCURVE",
"345 589 CURVE SMOOTH"
);
}
);
userData = {
com.fontlab.hintData = {
hhints = (
{
position = 0;
width = 95;
},
{
position = 589;
width = 95;
}
);
vhints = (
{
position = 57;
width = 96;
},
{
position = 511;
width = 96;
}
);
};
};
width = 686;
}
);
unicode = 0150;
},
{
glyphname = Oslash;
layers = (
{
layerId = master01;
paths = (
{
closed = 1;
nodes = (
"516 611 LINE",
"578 551 OFFCURVE",
"607 456 OFFCURVE",
"607 366 CURVE SMOOTH",
"607 167 OFFCURVE",
"470 -1 OFFCURVE",
"312 -1 CURVE SMOOTH",
"273 -1 OFFCURVE",
"229 12 OFFCURVE",
"195 33 CURVE",
"155 -39 LINE",
"71 7 LINE",
"123 100 LINE",
"77 158 OFFCURVE",
"57 230 OFFCURVE",
"57 314 CURVE SMOOTH",
"57 514 OFFCURVE",
"193 683 OFFCURVE",
"351 683 CURVE SMOOTH",
"381 683 OFFCURVE",
"411 677 OFFCURVE",
"437 666 CURVE",
"481 746 LINE",
"564 697 LINE"
);
},
{
closed = 1;
nodes = (
"389 579 LINE",
"375 585 OFFCURVE",
"360 588 OFFCURVE",
"345 588 CURVE SMOOTH",
"243 588 OFFCURVE",
"153 467 OFFCURVE",
"153 317 CURVE SMOOTH",
"153 274 OFFCURVE",
"161 232 OFFCURVE",
"177 197 CURVE"
);
},
{
closed = 1;
nodes = (
"435 94 OFFCURVE",
"511 245 OFFCURVE",
"511 362 CURVE SMOOTH",
"511 416 OFFCURVE",
"493 474 OFFCURVE",
"465 517 CURVE",
"240 116 LINE",
"262 102 OFFCURVE",
"286 94 OFFCURVE",
"312 94 CURVE SMOOTH"
);
}
);
userData = {
com.fontlab.hintData = {
hhints = (
{
position = -1;
width = 95;
},
{
position = 588;
width = 95;
}
);
vhints = (
{
position = 57;
width = 96;
},
{
position = 511;
width = 96;
}
);
};
};
width = 686;
}
);
unicode = 00D8;
},
{
glyphname = Otilde;
layers = (
{
layerId = master01;
paths = (
{
closed = 1;
nodes = (
"163 0 OFFCURVE",
"57 146 OFFCURVE",
"57 317 CURVE SMOOTH",
"57 516 OFFCURVE",
"194 684 OFFCURVE",
"351 684 CURVE SMOOTH",
"498 684 OFFCURVE",
"607 540 OFFCURVE",
"607 367 CURVE SMOOTH",
"607 168 OFFCURVE",
"470 0 OFFCURVE",
"312 0 CURVE SMOOTH"
);
},
{
closed = 1;
nodes = (
"242 589 OFFCURVE",
"153 468 OFFCURVE",
"153 317 CURVE SMOOTH",
"153 196 OFFCURVE",
"220 95 OFFCURVE",
"312 95 CURVE SMOOTH",
"415 95 OFFCURVE",
"511 218 OFFCURVE",
"511 363 CURVE SMOOTH",
"511 477 OFFCURVE",
"442 589 OFFCURVE",
"345 589 CURVE SMOOTH"
);
},
{
closed = 1;
nodes = (
"548 838 LINE",
"537 807 OFFCURVE",
"503 705 OFFCURVE",
"402 705 CURVE SMOOTH",
"370 705 OFFCURVE",
"343 722 OFFCURVE",
"321 753 CURVE SMOOTH",
"305 776 OFFCURVE",
"294 788 OFFCURVE",
"279 788 CURVE SMOOTH",
"244 788 OFFCURVE",
"224 732 OFFCURVE",
"222 720 CURVE",
"157 753 LINE",
"173 809 OFFCURVE",
"213 877 OFFCURVE",
"291 877 CURVE SMOOTH",
"330 877 OFFCURVE",
"356 860 OFFCURVE",
"378 829 CURVE SMOOTH",
"394 807 OFFCURVE",
"405 793 OFFCURVE",
"420 793 CURVE SMOOTH",
"441 793 OFFCURVE",
"467 816 OFFCURVE",
"481 870 CURVE"
);
}
);
userData = {
com.fontlab.hintData = {
hhints = (
{
position = 0;
width = 95;
},
{
position = 589;
width = 95;
},
{
position = 705;
width = 88;
},
{
position = 788;
width = 89;
}
);
vhints = (
{
position = 57;
width = 96;
},
{
position = 511;
width = 96;
}
);
};
};
width = 686;
}
);
unicode = 00D5;
},
{
glyphname = OE;
layers = (
{
layerId = master01;
paths = (
{
closed = 1;
nodes = (
"1027 99 LINE",
"992 0 LINE",
"518 0 LINE",
"518 99 LINE",
"466 38 OFFCURVE",
"394 0 OFFCURVE",
"320 0 CURVE SMOOTH",
"171 0 OFFCURVE",
"64 146 OFFCURVE",
"64 317 CURVE SMOOTH",
"64 516 OFFCURVE",
"201 684 OFFCURVE",
"359 684 CURVE SMOOTH",
"417 684 OFFCURVE",
"473 663 OFFCURVE",
"518 619 CURVE",
"518 681 LINE",
"1017 681 LINE",
"1000 582 LINE",
"617 582 LINE",
"617 402 LINE",
"983 402 LINE",
"954 304 LINE",
"617 304 LINE",
"617 99 LINE"
);
},
{
closed = 1;
nodes = (
"517 478 OFFCURVE",
"448 589 OFFCURVE",
"352 589 CURVE SMOOTH",
"250 589 OFFCURVE",
"160 468 OFFCURVE",
"160 317 CURVE SMOOTH",
"160 196 OFFCURVE",
"227 95 OFFCURVE",
"320 95 CURVE SMOOTH",
"419 95 OFFCURVE",
"507 199 OFFCURVE",
"518 365 CURVE"
);
}
);
userData = {
com.fontlab.hintData = {
hhints = (
{
position = 0;
width = 95;
},
{
position = 304;
width = 98;
},
{
position = 582;
width = 99;
},
{
position = 589;
width = 95;
}
);
vhints = (
{
position = 64;
width = 96;
},
{
position = 518;
width = 99;
}
);
};
};
width = 1119;
}
);
unicode = 0152;
},
{
glyphname = P;
layers = (
{
layerId = master01;
paths = (
{
closed = 1;
nodes = (
"158 12 LINE",
"60 -5 LINE",
"60 673 LINE",
"90 675 OFFCURVE",
"155 679 OFFCURVE",
"188 679 CURVE SMOOTH",
"327 679 OFFCURVE",
"526 650 OFFCURVE",
"526 463 CURVE SMOOTH",
"526 298 OFFCURVE",
"327 233 OFFCURVE",
"158 223 CURVE"
);
},
{
closed = 1;
nodes = (
"158 321 LINE",
"324 334 OFFCURVE",
"427 387 OFFCURVE",
"427 457 CURVE SMOOTH",
"427 524 OFFCURVE",
"375 580 OFFCURVE",
"178 580 CURVE SMOOTH",
"158 580 LINE"
);
}
);
userData = {
com.fontlab.hintData = {
hhints = (
{
position = 223;
width = 98;
},
{
position = 580;
width = 99;
}
);
vhints = (
{
position = 60;
width = 98;
},
{
position = 427;
width = 99;
}
);
};
};
width = 571;
}
);
unicode = 0050;
},
{
glyphname = Thorn;
layers = (
{
layerId = master01;
paths = (
{
closed = 1;
nodes = (
"157 691 LINE",
"157 583 LINE",
"295 581 OFFCURVE",
"489 557 OFFCURVE",
"489 375 CURVE SMOOTH",
"489 196 OFFCURVE",
"298 146 OFFCURVE",
"155 135 CURVE",
"155 16 LINE",
"59 -6 LINE",
"59 670 LINE"
);
},
{
closed = 1;
nodes = (
"294 245 OFFCURVE",
"389 293 OFFCURVE",
"389 375 CURVE SMOOTH",
"389 448 OFFCURVE",
"288 481 OFFCURVE",
"157 486 CURVE",
"156 234 LINE"
);
}
);
userData = {
com.fontlab.hintData = {
hhints = (
{
position = 135;
width = 99;
},
{
position = 486;
width = 97;
}
);
vhints = (
{
position = 59;
width = 96;
},
{
position = 389;
width = 100;
}
);
};
};
width = 532;
}
);
unicode = 00DE;
},
{
glyphname = Q;
layers = (
{
layerId = master01;
paths = (
{
closed = 1;
nodes = (
"681 42 LINE",
"638 -42 LINE",
"498 48 LINE",
"449 17 OFFCURVE",
"393 -1 OFFCURVE",
"336 -1 CURVE SMOOTH",
"172 -1 OFFCURVE",
"50 141 OFFCURVE",
"50 314 CURVE SMOOTH",
"50 512 OFFCURVE",
"203 679 OFFCURVE",
"379 679 CURVE SMOOTH",
"544 679 OFFCURVE",
"665 536 OFFCURVE",
"665 364 CURVE SMOOTH",
"665 266 OFFCURVE",
"633 181 OFFCURVE",
"572 114 CURVE"
);
},
{
closed = 1;
nodes = (
"532 218 OFFCURVE",
"563 286 OFFCURVE",
"563 358 CURVE SMOOTH",
"563 471 OFFCURVE",
"483 582 OFFCURVE",
"372 582 CURVE SMOOTH",
"255 582 OFFCURVE",
"153 461 OFFCURVE",
"153 314 CURVE SMOOTH",
"153 191 OFFCURVE",
"230 95 OFFCURVE",
"336 95 CURVE SMOOTH",
"362 95 OFFCURVE",
"383 100 OFFCURVE",
"407 111 CURVE",
"305 175 LINE",
"395 230 LINE",
"489 170 LINE"
);
}
);
userData = {
com.fontlab.hintData = {
hhints = (
{
position = -1;
width = 96;
},
{
position = 582;
width = 97;
}
);
vhints = (
{
position = 50;
width = 103;
},
{
position = 563;
width = 102;
}
);
};
};
width = 747;
}
);
unicode = 0051;
},
{
glyphname = R;
layers = (
{
layerId = master01;
paths = (
{
closed = 1;
nodes = (
"160 322 LINE",
"324 331 OFFCURVE",
"435 387 OFFCURVE",
"435 461 CURVE SMOOTH",
"435 529 OFFCURVE",
"378 587 OFFCURVE",
"175 587 CURVE SMOOTH",
"160 587 LINE"
);
},
{
closed = 1;
nodes = (
"269 230 OFFCURVE",
"249 232 OFFCURVE",
"232 232 CURVE SMOOTH",
"215 232 OFFCURVE",
"185 229 OFFCURVE",
"159 225 CURVE",
"159 12 LINE",
"61 -5 LINE",
"61 678 LINE",
"99 683 OFFCURVE",
"153 686 OFFCURVE",
"185 687 CURVE",
"327 687 OFFCURVE",
"533 657 OFFCURVE",
"533 467 CURVE SMOOTH",
"533 391 OFFCURVE",
"473 315 OFFCURVE",
"385 273 CURVE",
"435 233 OFFCURVE",
"501 163 OFFCURVE",
"560 52 CURVE",
"484 -13 LINE",
"403 143 OFFCURVE",
"325 202 OFFCURVE",
"281 224 CURVE SMOOTH"
);
}
);
userData = {
com.fontlab.hintData = {
hhints = (
{
position = 587;
width = 100;
}
);
vhints = (
{
position = 61;
width = 99;
},
{
position = 435;
width = 98;
}
);
};
};
width = 620;
}
);
unicode = 0052;
},
{
glyphname = Racute;
layers = (
{
layerId = master01;
paths = (
{
closed = 1;
nodes = (
"311 906 LINE",
"398 831 LINE",
"207 710 LINE",
"134 772 LINE"
);
},
{
closed = 1;
nodes = (
"160 322 LINE",
"324 331 OFFCURVE",
"435 387 OFFCURVE",
"435 461 CURVE SMOOTH",
"435 529 OFFCURVE",
"378 587 OFFCURVE",
"175 587 CURVE SMOOTH",
"160 587 LINE"
);
},
{
closed = 1;
nodes = (
"269 230 OFFCURVE",
"249 232 OFFCURVE",
"232 232 CURVE SMOOTH",
"215 232 OFFCURVE",
"185 229 OFFCURVE",
"159 225 CURVE",
"159 12 LINE",
"61 -5 LINE",
"61 678 LINE",
"99 683 OFFCURVE",
"153 686 OFFCURVE",
"185 687 CURVE",
"327 687 OFFCURVE",
"533 657 OFFCURVE",
"533 467 CURVE SMOOTH",
"533 391 OFFCURVE",
"473 315 OFFCURVE",
"385 273 CURVE",
"435 233 OFFCURVE",
"501 163 OFFCURVE",
"560 52 CURVE",
"484 -13 LINE",
"403 143 OFFCURVE",
"325 202 OFFCURVE",
"281 224 CURVE SMOOTH"
);
}
);
userData = {
com.fontlab.hintData = {
hhints = (
{
position = 587;
width = 100;
}
);
vhints = (
{
position = 61;
width = 99;
},
{
position = 435;
width = 98;
}
);
};
};
width = 620;
}
);
unicode = 0154;
},
{
glyphname = Rcaron;
layers = (
{
layerId = master01;
paths = (
{
closed = 1;
nodes = (
"450 824 LINE",
"276 701 LINE",
"124 825 LINE",
"189 897 LINE",
"281 812 LINE",
"392 897 LINE"
);
},
{
closed = 1;
nodes = (
"160 322 LINE",
"324 331 OFFCURVE",
"435 387 OFFCURVE",
"435 461 CURVE SMOOTH",
"435 529 OFFCURVE",
"378 587 OFFCURVE",
"175 587 CURVE SMOOTH",
"160 587 LINE"
);
},
{
closed = 1;
nodes = (
"269 230 OFFCURVE",
"249 232 OFFCURVE",
"232 232 CURVE SMOOTH",
"215 232 OFFCURVE",
"185 229 OFFCURVE",
"159 225 CURVE",
"159 12 LINE",
"61 -5 LINE",
"61 678 LINE",
"99 683 OFFCURVE",
"153 686 OFFCURVE",
"185 687 CURVE",
"327 687 OFFCURVE",
"533 657 OFFCURVE",
"533 467 CURVE SMOOTH",
"533 391 OFFCURVE",
"473 315 OFFCURVE",
"385 273 CURVE",
"435 233 OFFCURVE",
"501 163 OFFCURVE",
"560 52 CURVE",
"484 -13 LINE",
"403 143 OFFCURVE",
"325 202 OFFCURVE",
"281 224 CURVE SMOOTH"
);
}
);
userData = {
com.fontlab.hintData = {
hhints = (
{
position = 587;
width = 100;
}
);
vhints = (
{
position = 61;
width = 99;
},
{
position = 435;
width = 98;
}
);
};
};
width = 620;
}
);
unicode = 0158;
},
{
glyphname = S;
layers = (
{
layerId = master01;
paths = (
{
closed = 1;
nodes = (
"203 334 OFFCURVE",
"89 391 OFFCURVE",
"89 496 CURVE SMOOTH",
"89 647 OFFCURVE",
"225 681 OFFCURVE",
"330 681 CURVE SMOOTH",
"424 681 OFFCURVE",
"545 646 OFFCURVE",
"545 525 CURVE SMOOTH",
"545 518 OFFCURVE",
"545 511 OFFCURVE",
"541 488 CURVE",
"442 470 LINE",
"449 484 OFFCURVE",
"450 508 OFFCURVE",
"450 513 CURVE SMOOTH",
"450 572 OFFCURVE",
"375 588 OFFCURVE",
"330 588 CURVE SMOOTH",
"217 588 OFFCURVE",
"195 537 OFFCURVE",
"195 502 CURVE SMOOTH",
"195 459 OFFCURVE",
"240 430 OFFCURVE",
"327 406 CURVE SMOOTH",
"475 365 OFFCURVE",
"548 298 OFFCURVE",
"548 200 CURVE SMOOTH",
"548 63 OFFCURVE",
"412 -1 OFFCURVE",
"307 -1 CURVE SMOOTH",
"187 -1 OFFCURVE",
"85 73 OFFCURVE",
"48 184 CURVE",
"152 200 LINE",
"178 128 OFFCURVE",
"248 95 OFFCURVE",
"306 95 CURVE SMOOTH",
"381 95 OFFCURVE",
"442 136 OFFCURVE",
"442 199 CURVE SMOOTH",
"442 229 OFFCURVE",
"433 273 OFFCURVE",
"302 308 CURVE SMOOTH"
);
}
);
userData = {
com.fontlab.hintData = {
hhints = (
{
position = -1;
width = 96;
},
{
position = 588;
width = 93;
}
);
vhints = (
{
position = 89;
width = 106;
},
{
position = 442;
width = 106;
},
{
position = 450;
width = 95;
}
);
};
};
width = 625;
}
);
unicode = 0053;
},
{
glyphname = Sacute;
layers = (
{
layerId = master01;
paths = (
{
closed = 1;
nodes = (
"364 906 LINE",
"451 831 LINE",
"260 710 LINE",
"187 772 LINE"
);
},
{
closed = 1;
nodes = (
"203 334 OFFCURVE",
"89 391 OFFCURVE",
"89 496 CURVE SMOOTH",
"89 647 OFFCURVE",
"225 681 OFFCURVE",
"330 681 CURVE SMOOTH",
"424 681 OFFCURVE",
"545 646 OFFCURVE",
"545 525 CURVE SMOOTH",
"545 518 OFFCURVE",
"545 511 OFFCURVE",
"541 488 CURVE",
"442 470 LINE",
"449 484 OFFCURVE",
"450 508 OFFCURVE",
"450 513 CURVE SMOOTH",
"450 572 OFFCURVE",
"375 588 OFFCURVE",
"330 588 CURVE SMOOTH",
"217 588 OFFCURVE",
"195 537 OFFCURVE",
"195 502 CURVE SMOOTH",
"195 459 OFFCURVE",
"240 430 OFFCURVE",
"327 406 CURVE SMOOTH",
"475 365 OFFCURVE",
"548 298 OFFCURVE",
"548 200 CURVE SMOOTH",
"548 63 OFFCURVE",
"412 -1 OFFCURVE",
"307 -1 CURVE SMOOTH",
"187 -1 OFFCURVE",
"85 73 OFFCURVE",
"48 184 CURVE",
"152 200 LINE",
"178 128 OFFCURVE",
"248 95 OFFCURVE",
"306 95 CURVE SMOOTH",
"381 95 OFFCURVE",
"442 136 OFFCURVE",
"442 199 CURVE SMOOTH",
"442 229 OFFCURVE",
"433 273 OFFCURVE",
"302 308 CURVE SMOOTH"
);
}
);
userData = {
com.fontlab.hintData = {
hhints = (
{
position = -1;
width = 96;
},
{
position = 588;
width = 93;
}
);
vhints = (
{
position = 89;
width = 106;
},
{
position = 442;
width = 106;
},
{
position = 450;
width = 95;
}
);
};
};
width = 625;
}
);
unicode = 015A;
},
{
glyphname = Scaron;
layers = (
{
layerId = master01;
paths = (
{
closed = 1;
nodes = (
"494 829 LINE",
"321 701 LINE",
"169 835 LINE",
"235 907 LINE",
"326 822 LINE",
"436 907 LINE"
);
},
{
closed = 1;
nodes = (
"203 334 OFFCURVE",
"89 391 OFFCURVE",
"89 496 CURVE SMOOTH",
"89 647 OFFCURVE",
"225 681 OFFCURVE",
"330 681 CURVE SMOOTH",
"424 681 OFFCURVE",
"545 646 OFFCURVE",
"545 525 CURVE SMOOTH",
"545 518 OFFCURVE",
"545 511 OFFCURVE",
"541 488 CURVE",
"442 470 LINE",
"449 484 OFFCURVE",
"450 508 OFFCURVE",
"450 513 CURVE SMOOTH",
"450 572 OFFCURVE",
"375 588 OFFCURVE",
"330 588 CURVE SMOOTH",
"217 588 OFFCURVE",
"195 537 OFFCURVE",
"195 502 CURVE SMOOTH",
"195 459 OFFCURVE",
"240 430 OFFCURVE",
"327 406 CURVE SMOOTH",
"475 365 OFFCURVE",
"548 298 OFFCURVE",
"548 200 CURVE SMOOTH",
"548 63 OFFCURVE",
"412 -1 OFFCURVE",
"307 -1 CURVE SMOOTH",
"187 -1 OFFCURVE",
"85 73 OFFCURVE",
"48 184 CURVE",
"152 200 LINE",
"178 128 OFFCURVE",
"248 95 OFFCURVE",
"306 95 CURVE SMOOTH",
"381 95 OFFCURVE",
"442 136 OFFCURVE",
"442 199 CURVE SMOOTH",
"442 229 OFFCURVE",
"433 273 OFFCURVE",
"302 308 CURVE SMOOTH"
);
}
);
userData = {
com.fontlab.hintData = {
hhints = (
{
position = -1;
width = 96;
},
{
position = 588;
width = 93;
}
);
vhints = (
{
position = 89;
width = 106;
},
{
position = 442;
width = 106;
},
{
position = 450;
width = 95;
}
);
};
};
width = 625;
}
);
unicode = 0160;
},
{
glyphname = Scedilla;
layers = (
{
layerId = master01;
paths = (
{
closed = 1;
nodes = (
"204 334 OFFCURVE",
"89 391 OFFCURVE",
"89 496 CURVE SMOOTH",
"89 647 OFFCURVE",
"225 681 OFFCURVE",
"330 681 CURVE SMOOTH",
"424 681 OFFCURVE",
"545 646 OFFCURVE",
"545 525 CURVE SMOOTH",
"545 518 OFFCURVE",
"545 511 OFFCURVE",
"541 488 CURVE",
"442 470 LINE",
"449 484 OFFCURVE",
"450 508 OFFCURVE",
"450 513 CURVE SMOOTH",
"450 572 OFFCURVE",
"375 588 OFFCURVE",
"330 588 CURVE SMOOTH",
"217 588 OFFCURVE",
"195 537 OFFCURVE",
"195 502 CURVE SMOOTH",
"195 459 OFFCURVE",
"240 430 OFFCURVE",
"327 406 CURVE SMOOTH",
"475 365 OFFCURVE",
"548 298 OFFCURVE",
"548 200 CURVE SMOOTH",
"548 63 OFFCURVE",
"413 0 OFFCURVE",
"308 -1 CURVE",
"307 -33 LINE",
"360 -38 OFFCURVE",
"398 -60 OFFCURVE",
"398 -115 CURVE SMOOTH",
"398 -167 OFFCURVE",
"355 -196 OFFCURVE",
"303 -196 CURVE SMOOTH",
"272 -196 OFFCURVE",
"250 -186 OFFCURVE",
"227 -157 CURVE",
"271 -123 LINE",
"277 -132 OFFCURVE",
"289 -139 OFFCURVE",
"303 -139 CURVE SMOOTH",
"319 -139 OFFCURVE",
"331 -130 OFFCURVE",
"331 -115 CURVE SMOOTH",
"331 -99 OFFCURVE",
"319 -90 OFFCURVE",
"299 -90 CURVE SMOOTH",
"292 -90 OFFCURVE",
"281 -93 OFFCURVE",
"276 -98 CURVE",
"234 -54 LINE",
"254 4 LINE",
"158 22 OFFCURVE",
"79 89 OFFCURVE",
"48 184 CURVE",
"152 200 LINE",
"178 128 OFFCURVE",
"248 95 OFFCURVE",
"306 95 CURVE SMOOTH",
"381 95 OFFCURVE",
"442 136 OFFCURVE",
"442 199 CURVE SMOOTH",
"442 229 OFFCURVE",
"434 273 OFFCURVE",
"303 308 CURVE SMOOTH"
);
}
);
userData = {
com.fontlab.hintData = {
hhints = (
{
position = -196;
width = 57;
},
{
position = -1;
width = 96;
},
{
position = 588;
width = 93;
}
);
vhints = (
{
position = 89;
width = 106;
},
{
position = 331;
width = 67;
},
{
position = 442;
width = 106;
},
{
position = 450;
width = 95;
}
);
};
};
width = 625;
}
);
unicode = 015E;
},
{
glyphname = Scircumflex;
layers = (
{
layerId = master01;
paths = (
{
closed = 1;
nodes = (
"203 334 OFFCURVE",
"89 391 OFFCURVE",
"89 496 CURVE SMOOTH",
"89 647 OFFCURVE",
"225 681 OFFCURVE",
"330 681 CURVE SMOOTH",
"424 681 OFFCURVE",
"545 646 OFFCURVE",
"545 525 CURVE SMOOTH",
"545 518 OFFCURVE",
"545 511 OFFCURVE",
"541 488 CURVE",
"442 470 LINE",
"449 484 OFFCURVE",
"450 508 OFFCURVE",
"450 513 CURVE SMOOTH",
"450 572 OFFCURVE",
"375 588 OFFCURVE",
"330 588 CURVE SMOOTH",
"217 588 OFFCURVE",
"195 537 OFFCURVE",
"195 502 CURVE SMOOTH",
"195 459 OFFCURVE",
"240 430 OFFCURVE",
"327 406 CURVE SMOOTH",
"475 365 OFFCURVE",
"548 298 OFFCURVE",
"548 200 CURVE SMOOTH",
"548 63 OFFCURVE",
"412 -1 OFFCURVE",
"307 -1 CURVE SMOOTH",
"187 -1 OFFCURVE",
"85 73 OFFCURVE",
"48 184 CURVE",
"152 200 LINE",
"178 128 OFFCURVE",
"248 95 OFFCURVE",
"306 95 CURVE SMOOTH",
"381 95 OFFCURVE",
"442 136 OFFCURVE",
"442 199 CURVE SMOOTH",
"442 229 OFFCURVE",
"433 273 OFFCURVE",
"302 308 CURVE SMOOTH"
);
},
{
closed = 1;
nodes = (
"163 756 LINE",
"337 895 LINE",
"489 751 LINE",
"423 691 LINE",
"331 773 LINE",
"223 690 LINE"
);
}
);
userData = {
com.fontlab.hintData = {
hhints = (
{
position = -1;
width = 96;
},
{
position = 588;
width = 93;
},
{
position = 690;
width = 21;
}
);
vhints = (
{
position = 89;
width = 106;
},
{
position = 442;
width = 106;
},
{
position = 450;
width = 95;
}
);
};
};
width = 625;
}
);
unicode = 015C;
},
{
glyphname = T;
layers = (
{
layerId = master01;
paths = (
{
closed = 1;
nodes = (
"208 582 LINE",
"9 582 LINE",
"9 681 LINE",
"522 681 LINE",
"522 582 LINE",
"308 582 LINE",
"308 12 LINE",
"208 -5 LINE"
);
}
);
userData = {
com.fontlab.hintData = {
hhints = (
{
position = 582;
width = 99;
}
);
vhints = (
{
position = 208;
width = 100;
}
);
};
};
width = 548;
}
);
unicode = 0054;
},
{
glyphname = Tcaron;
layers = (
{
layerId = master01;
paths = (
{
closed = 1;
nodes = (
"433 824 LINE",
"259 701 LINE",
"108 830 LINE",
"173 897 LINE",
"264 812 LINE",
"374 897 LINE"
);
},
{
closed = 1;
nodes = (
"208 582 LINE",
"9 582 LINE",
"9 681 LINE",
"522 681 LINE",
"522 582 LINE",
"308 582 LINE",
"308 12 LINE",
"208 -5 LINE"
);
}
);
userData = {
com.fontlab.hintData = {
hhints = (
{
position = 582;
width = 99;
}
);
vhints = (
{
position = 208;
width = 100;
}
);
};
};
width = 548;
}
);
unicode = 0164;
},
{
glyphname = U;
layers = (
{
layerId = master01;
paths = (
{
closed = 1;
nodes = (
"103 0 OFFCURVE",
"63 194 OFFCURVE",
"63 451 CURVE SMOOTH",
"63 516 OFFCURVE",
"65 640 OFFCURVE",
"66 668 CURVE",
"165 685 LINE",
"164 664 OFFCURVE",
"162 521 OFFCURVE",
"162 443 CURVE SMOOTH",
"162 260 OFFCURVE",
"180 92 OFFCURVE",
"343 92 CURVE SMOOTH",
"512 92 OFFCURVE",
"525 276 OFFCURVE",
"525 425 CURVE SMOOTH",
"525 502 OFFCURVE",
"523 633 OFFCURVE",
"522 666 CURVE",
"621 685 LINE",
"622 662 OFFCURVE",
"624 536 OFFCURVE",
"624 467 CURVE SMOOTH",
"624 240 OFFCURVE",
"603 0 OFFCURVE",
"343 0 CURVE SMOOTH"
);
}
);
userData = {
com.fontlab.hintData = {
hhints = (
{
position = 0;
width = 92;
}
);
vhints = (
{
position = 63;
width = 99;
},
{
position = 525;
width = 99;
}
);
};
};
width = 710;
}
);
unicode = 0055;
},
{
glyphname = Uacute;
layers = (
{
layerId = master01;
paths = (
{
closed = 1;
nodes = (
"411 906 LINE",
"498 831 LINE",
"308 710 LINE",
"234 772 LINE"
);
},
{
closed = 1;
nodes = (
"103 0 OFFCURVE",
"63 194 OFFCURVE",
"63 451 CURVE SMOOTH",
"63 516 OFFCURVE",
"65 640 OFFCURVE",
"66 668 CURVE",
"165 685 LINE",
"164 664 OFFCURVE",
"162 521 OFFCURVE",
"162 443 CURVE SMOOTH",
"162 260 OFFCURVE",
"180 92 OFFCURVE",
"343 92 CURVE SMOOTH",
"512 92 OFFCURVE",
"525 276 OFFCURVE",
"525 425 CURVE SMOOTH",
"525 502 OFFCURVE",
"523 633 OFFCURVE",
"522 666 CURVE",
"621 685 LINE",
"622 662 OFFCURVE",
"624 536 OFFCURVE",
"624 467 CURVE SMOOTH",
"624 240 OFFCURVE",
"603 0 OFFCURVE",
"343 0 CURVE SMOOTH"
);
}
);
userData = {
com.fontlab.hintData = {
hhints = (
{
position = 0;
width = 92;
}
);
vhints = (
{
position = 63;
width = 99;
},
{
position = 525;
width = 99;
}
);
};
};
width = 710;
}
);
unicode = 00DA;
},
{
glyphname = Ubreve;
layers = (
{
layerId = master01;
paths = (
{
closed = 1;
nodes = (
"103 0 OFFCURVE",
"63 194 OFFCURVE",
"63 451 CURVE SMOOTH",
"63 516 OFFCURVE",
"65 640 OFFCURVE",
"66 668 CURVE",
"165 685 LINE",
"164 664 OFFCURVE",
"162 521 OFFCURVE",
"162 443 CURVE SMOOTH",
"162 260 OFFCURVE",
"180 92 OFFCURVE",
"343 92 CURVE SMOOTH",
"512 92 OFFCURVE",
"525 276 OFFCURVE",
"525 425 CURVE SMOOTH",
"525 502 OFFCURVE",
"523 633 OFFCURVE",
"522 666 CURVE",
"621 685 LINE",
"622 662 OFFCURVE",
"624 536 OFFCURVE",
"624 467 CURVE SMOOTH",
"624 240 OFFCURVE",
"603 0 OFFCURVE",
"343 0 CURVE SMOOTH"
);
},
{
closed = 1;
nodes = (
"389 806 OFFCURVE",
"419 829 OFFCURVE",
"440 886 CURVE",
"504 822 LINE",
"481 755 OFFCURVE",
"415 718 OFFCURVE",
"348 718 CURVE SMOOTH",
"275 718 OFFCURVE",
"212 752 OFFCURVE",
"183 817 CURVE",
"243 878 LINE",
"281 809 OFFCURVE",
"316 806 OFFCURVE",
"343 806 CURVE SMOOTH"
);
}
);
userData = {
com.fontlab.hintData = {
hhints = (
{
position = 0;
width = 92;
},
{
position = 718;
width = 88;
}
);
vhints = (
{
position = 63;
width = 99;
},
{
position = 525;
width = 99;
}
);
};
};
width = 710;
}
);
unicode = 016C;
},
{
glyphname = Ucircumflex;
layers = (
{
layerId = master01;
paths = (
{
closed = 1;
nodes = (
"184 756 LINE",
"357 895 LINE",
"509 751 LINE",
"444 691 LINE",
"354 773 LINE",
"244 690 LINE"
);
},
{
closed = 1;
nodes = (
"103 0 OFFCURVE",
"63 194 OFFCURVE",
"63 451 CURVE SMOOTH",
"63 516 OFFCURVE",
"65 640 OFFCURVE",
"66 668 CURVE",
"165 685 LINE",
"164 664 OFFCURVE",
"162 521 OFFCURVE",
"162 443 CURVE SMOOTH",
"162 260 OFFCURVE",
"180 92 OFFCURVE",
"343 92 CURVE SMOOTH",
"512 92 OFFCURVE",
"525 276 OFFCURVE",
"525 425 CURVE SMOOTH",
"525 502 OFFCURVE",
"523 633 OFFCURVE",
"522 666 CURVE",
"621 685 LINE",
"622 662 OFFCURVE",
"624 536 OFFCURVE",
"624 467 CURVE SMOOTH",
"624 240 OFFCURVE",
"603 0 OFFCURVE",
"343 0 CURVE SMOOTH"
);
}
);
userData = {
com.fontlab.hintData = {
hhints = (
{
position = 0;
width = 92;
},
{
position = 690;
width = 21;
}
);
vhints = (
{
position = 63;
width = 99;
},
{
position = 525;
width = 99;
}
);
};
};
width = 710;
}
);
unicode = 00DB;
},
{
glyphname = Udieresis;
layers = (
{
layerId = master01;
paths = (
{
closed = 1;
nodes = (
"320 719 LINE",
"203 704 LINE",
"217 818 LINE",
"332 833 LINE"
);
},
{
closed = 1;
nodes = (
"489 719 LINE",
"372 704 LINE",
"386 818 LINE",
"501 833 LINE"
);
},
{
closed = 1;
nodes = (
"103 0 OFFCURVE",
"63 194 OFFCURVE",
"63 451 CURVE SMOOTH",
"63 516 OFFCURVE",
"65 640 OFFCURVE",
"66 668 CURVE",
"165 685 LINE",
"164 664 OFFCURVE",
"162 521 OFFCURVE",
"162 443 CURVE SMOOTH",
"162 260 OFFCURVE",
"180 92 OFFCURVE",
"343 92 CURVE SMOOTH",
"512 92 OFFCURVE",
"525 276 OFFCURVE",
"525 425 CURVE SMOOTH",
"525 502 OFFCURVE",
"523 633 OFFCURVE",
"522 666 CURVE",
"621 685 LINE",
"622 662 OFFCURVE",
"624 536 OFFCURVE",
"624 467 CURVE SMOOTH",
"624 240 OFFCURVE",
"603 0 OFFCURVE",
"343 0 CURVE SMOOTH"
);
}
);
userData = {
com.fontlab.hintData = {
hhints = (
{
position = 0;
width = 92;
}
);
vhints = (
{
position = 63;
width = 99;
},
{
position = 525;
width = 99;
}
);
};
};
width = 710;
}
);
unicode = 00DC;
},
{
glyphname = Ugrave;
layers = (
{
layerId = master01;
paths = (
{
closed = 1;
nodes = (
"386 700 LINE",
"221 856 LINE",
"321 912 LINE",
"469 750 LINE"
);
},
{
closed = 1;
nodes = (
"103 0 OFFCURVE",
"63 194 OFFCURVE",
"63 451 CURVE SMOOTH",
"63 516 OFFCURVE",
"65 640 OFFCURVE",
"66 668 CURVE",
"165 685 LINE",
"164 664 OFFCURVE",
"162 521 OFFCURVE",
"162 443 CURVE SMOOTH",
"162 260 OFFCURVE",
"180 92 OFFCURVE",
"343 92 CURVE SMOOTH",
"512 92 OFFCURVE",
"525 276 OFFCURVE",
"525 425 CURVE SMOOTH",
"525 502 OFFCURVE",
"523 633 OFFCURVE",
"522 666 CURVE",
"621 685 LINE",
"622 662 OFFCURVE",
"624 536 OFFCURVE",
"624 467 CURVE SMOOTH",
"624 240 OFFCURVE",
"603 0 OFFCURVE",
"343 0 CURVE SMOOTH"
);
}
);
userData = {
com.fontlab.hintData = {
hhints = (
{
position = 0;
width = 92;
}
);
vhints = (
{
position = 63;
width = 99;
},
{
position = 525;
width = 99;
}
);
};
};
width = 710;
}
);
unicode = 00D9;
},
{
glyphname = Uhungarumlaut;
layers = (
{
layerId = master01;
paths = (
{
closed = 1;
nodes = (
"103 0 OFFCURVE",
"63 194 OFFCURVE",
"63 451 CURVE SMOOTH",
"63 516 OFFCURVE",
"65 640 OFFCURVE",
"66 668 CURVE",
"165 685 LINE",
"164 664 OFFCURVE",
"162 521 OFFCURVE",
"162 443 CURVE SMOOTH",
"162 260 OFFCURVE",
"180 92 OFFCURVE",
"343 92 CURVE SMOOTH",
"512 92 OFFCURVE",
"525 276 OFFCURVE",
"525 425 CURVE SMOOTH",
"525 502 OFFCURVE",
"523 633 OFFCURVE",
"522 666 CURVE",
"621 685 LINE",
"622 662 OFFCURVE",
"624 536 OFFCURVE",
"624 467 CURVE SMOOTH",
"624 240 OFFCURVE",
"603 0 OFFCURVE",
"343 0 CURVE SMOOTH"
);
},
{
closed = 1;
nodes = (
"308 906 LINE",
"384 831 LINE",
"204 710 LINE",
"131 772 LINE"
);
},
{
closed = 1;
nodes = (
"527 906 LINE",
"604 831 LINE",
"413 710 LINE",
"350 772 LINE"
);
}
);
userData = {
com.fontlab.hintData = {
hhints = (
{
position = 0;
width = 92;
}
);
vhints = (
{
position = 63;
width = 99;
},
{
position = 525;
width = 99;
}
);
};
};
width = 710;
}
);
unicode = 0170;
},
{
glyphname = Uring;
layers = (
{
layerId = master01;
paths = (
{
closed = 1;
nodes = (
"103 0 OFFCURVE",
"63 194 OFFCURVE",
"63 451 CURVE SMOOTH",
"63 516 OFFCURVE",
"65 640 OFFCURVE",
"66 668 CURVE",
"165 685 LINE",
"164 664 OFFCURVE",
"162 521 OFFCURVE",
"162 443 CURVE SMOOTH",
"162 260 OFFCURVE",
"180 92 OFFCURVE",
"343 92 CURVE SMOOTH",
"512 92 OFFCURVE",
"525 276 OFFCURVE",
"525 425 CURVE SMOOTH",
"525 502 OFFCURVE",
"523 633 OFFCURVE",
"522 666 CURVE",
"621 685 LINE",
"622 662 OFFCURVE",
"624 536 OFFCURVE",
"624 467 CURVE SMOOTH",
"624 240 OFFCURVE",
"603 0 OFFCURVE",
"343 0 CURVE SMOOTH"
);
},
{
closed = 1;
nodes = (
"268 702 OFFCURVE",
"215 752 OFFCURVE",
"215 815 CURVE SMOOTH",
"215 886 OFFCURVE",
"281 942 OFFCURVE",
"363 942 CURVE SMOOTH",
"442 942 OFFCURVE",
"492 887 OFFCURVE",
"492 828 CURVE SMOOTH",
"492 744 OFFCURVE",
"414 702 OFFCURVE",
"344 702 CURVE SMOOTH"
);
},
{
closed = 1;
nodes = (
"337 857 OFFCURVE",
"301 842 OFFCURVE",
"301 815 CURVE SMOOTH",
"301 798 OFFCURVE",
"321 786 OFFCURVE",
"346 786 CURVE SMOOTH",
"374 786 OFFCURVE",
"408 803 OFFCURVE",
"408 826 CURVE SMOOTH",
"408 843 OFFCURVE",
"386 857 OFFCURVE",
"360 857 CURVE SMOOTH"
);
}
);
userData = {
com.fontlab.hintData = {
hhints = (
{
position = 0;
width = 92;
},
{
position = 702;
width = 84;
},
{
position = 857;
width = 85;
}
);
vhints = (
{
position = 63;
width = 99;
},
{
position = 215;
width = 86;
},
{
position = 408;
width = 84;
},
{
position = 525;
width = 99;
}
);
};
};
width = 710;
}
);
unicode = 016E;
},
{
glyphname = V;
layers = (
{
layerId = master01;
paths = (
{
closed = 1;
nodes = (
"454 688 LINE",
"546 650 LINE",
"305 12 LINE",
"212 -3 LINE",
"2 652 LINE",
"96 687 LINE",
"261 174 LINE"
);
}
);
userData = {
com.fontlab.hintData = {
hhints = (
{
position = -3;
width = 21;
},
{
position = 668;
width = 20;
}
);
};
};
width = 566;
}
);
unicode = 0056;
},
{
glyphname = W;
layers = (
{
layerId = master01;
paths = (
{
closed = 1;
nodes = (
"642 12 LINE",
"552 -3 LINE",
"431 474 LINE",
"293 12 LINE",
"204 -3 LINE",
"8 667 LINE",
"104 685 LINE",
"247 198 LINE",
"294 353 OFFCURVE",
"343 517 OFFCURVE",
"388 669 CURVE",
"477 685 LINE",
"600 191 LINE",
"762 668 LINE",
"871 686 LINE"
);
}
);
userData = {
com.fontlab.hintData = {
hhints = (
{
position = -3;
width = 21;
}
);
};
};
width = 904;
}
);
unicode = 0057;
},
{
glyphname = X;
layers = (
{
layerId = master01;
paths = (
{
closed = 1;
nodes = (
"504 -13 LINE",
"316 261 LINE",
"115 -13 LINE",
"35 44 LINE",
"257 346 LINE",
"56 639 LINE",
"137 694 LINE",
"318 429 LINE",
"513 694 LINE",
"592 637 LINE",
"376 344 LINE",
"584 43 LINE"
);
}
);
width = 672;
}
);
unicode = 0058;
},
{
glyphname = Y;
layers = (
{
layerId = master01;
paths = (
{
closed = 1;
nodes = (
"537 677 LINE",
"650 677 LINE",
"248 0 LINE",
"135 0 LINE",
"266 223 LINE",
"2 677 LINE",
"114 677 LINE",
"324 318 LINE"
);
}
);
userData = {
com.fontlab.hintData = {
hhints = (
{
position = 0;
width = 21;
}
);
};
};
width = 654;
}
);
unicode = 0059;
},
{
glyphname = Yacute;
layers = (
{
layerId = master01;
paths = (
{
closed = 1;
nodes = (
"385 906 LINE",
"471 831 LINE",
"281 710 LINE",
"208 772 LINE"
);
},
{
closed = 1;
nodes = (
"537 677 LINE",
"650 677 LINE",
"248 0 LINE",
"135 0 LINE",
"266 223 LINE",
"2 677 LINE",
"114 677 LINE",
"324 318 LINE"
);
}
);
userData = {
com.fontlab.hintData = {
hhints = (
{
position = 0;
width = 21;
}
);
};
};
width = 654;
}
);
unicode = 00DD;
},
{
glyphname = Ydieresis;
layers = (
{
layerId = master01;
paths = (
{
closed = 1;
nodes = (
"305 689 LINE",
"187 674 LINE",
"201 798 LINE",
"317 813 LINE"
);
},
{
closed = 1;
nodes = (
"474 689 LINE",
"356 674 LINE",
"370 798 LINE",
"486 813 LINE"
);
},
{
closed = 1;
nodes = (
"537 677 LINE",
"650 677 LINE",
"248 0 LINE",
"135 0 LINE",
"266 223 LINE",
"2 677 LINE",
"114 677 LINE",
"324 318 LINE"
);
}
);
userData = {
com.fontlab.hintData = {
hhints = (
{
position = 0;
width = 21;
}
);
};
};
width = 654;
}
);
unicode = 0178;
},
{
glyphname = Z;
layers = (
{
layerId = master01;
paths = (
{
closed = 1;
nodes = (
"41 77 LINE",
"442 578 LINE",
"70 578 LINE",
"87 681 LINE",
"547 681 LINE",
"583 603 LINE",
"182 103 LINE",
"574 103 LINE",
"557 0 LINE",
"77 0 LINE"
);
}
);
userData = {
com.fontlab.hintData = {
hhints = (
{
position = 0;
width = 103;
},
{
position = 578;
width = 103;
}
);
};
};
width = 647;
}
);
unicode = 005A;
},
{
glyphname = Zacute;
layers = (
{
layerId = master01;
paths = (
{
closed = 1;
nodes = (
"387 906 LINE",
"474 831 LINE",
"283 710 LINE",
"210 772 LINE"
);
},
{
closed = 1;
nodes = (
"41 77 LINE",
"442 578 LINE",
"70 578 LINE",
"87 681 LINE",
"547 681 LINE",
"583 603 LINE",
"182 103 LINE",
"574 103 LINE",
"557 0 LINE",
"77 0 LINE"
);
}
);
userData = {
com.fontlab.hintData = {
hhints = (
{
position = 0;
width = 103;
},
{
position = 578;
width = 103;
}
);
};
};
width = 647;
}
);
unicode = 0179;
},
{
glyphname = Zcaron;
layers = (
{
layerId = master01;
paths = (
{
closed = 1;
nodes = (
"483 829 LINE",
"310 701 LINE",
"158 835 LINE",
"223 907 LINE",
"314 822 LINE",
"424 907 LINE"
);
},
{
closed = 1;
nodes = (
"41 77 LINE",
"442 578 LINE",
"70 578 LINE",
"87 681 LINE",
"547 681 LINE",
"583 603 LINE",
"182 103 LINE",
"574 103 LINE",
"557 0 LINE",
"77 0 LINE"
);
}
);
userData = {
com.fontlab.hintData = {
hhints = (
{
position = 0;
width = 103;
},
{
position = 578;
width = 103;
}
);
};
};
width = 647;
}
);
unicode = 017D;
},
{
glyphname = Zdotaccent;
layers = (
{
layerId = master01;
paths = (
{
closed = 1;
nodes = (
"41 77 LINE",
"442 578 LINE",
"70 578 LINE",
"87 681 LINE",
"547 681 LINE",
"583 603 LINE",
"182 103 LINE",
"574 103 LINE",
"557 0 LINE",
"77 0 LINE"
);
},
{
closed = 1;
nodes = (
"365 720 LINE",
"247 704 LINE",
"261 819 LINE",
"377 834 LINE"
);
}
);
userData = {
com.fontlab.hintData = {
hhints = (
{
position = 0;
width = 103;
},
{
position = 578;
width = 103;
}
);
};
};
width = 647;
}
);
unicode = 017B;
},
{
glyphname = uni0162;
layers = (
{
layerId = master01;
paths = (
{
closed = 1;
nodes = (
"208 582 LINE",
"9 582 LINE",
"9 681 LINE",
"522 681 LINE",
"522 582 LINE",
"308 582 LINE",
"308 12 LINE",
"208 -5 LINE"
);
},
{
closed = 1;
nodes = (
"360 -62 LINE",
"251 -247 LINE",
"164 -198 LINE",
"215 -119 LINE",
"171 -95 LINE",
"259 -16 LINE"
);
}
);
userData = {
com.fontlab.hintData = {
hhints = (
{
position = 582;
width = 99;
}
);
vhints = (
{
position = 208;
width = 100;
}
);
};
};
width = 548;
}
);
unicode = 0162;
},
{
glyphname = a;
layers = (
{
layerId = master01;
paths = (
{
closed = 1;
nodes = (
"446 13 LINE",
"350 -5 LINE",
"350 34 LINE",
"318 18 OFFCURVE",
"281 6 OFFCURVE",
"240 6 CURVE SMOOTH",
"129 6 OFFCURVE",
"47 95 OFFCURVE",
"47 226 CURVE SMOOTH",
"47 327 OFFCURVE",
"111 512 OFFCURVE",
"285 512 CURVE SMOOTH",
"339 512 OFFCURVE",
"395 492 OFFCURVE",
"446 466 CURVE"
);
},
{
closed = 1;
nodes = (
"144 172 OFFCURVE",
"170 103 OFFCURVE",
"239 102 CURVE SMOOTH",
"279 102 OFFCURVE",
"324 126 OFFCURVE",
"348 143 CURVE",
"352 404 LINE",
"335 412 OFFCURVE",
"309 417 OFFCURVE",
"290 417 CURVE SMOOTH",
"182 417 OFFCURVE",
"144 296 OFFCURVE",
"144 227 CURVE SMOOTH"
);
}
);
userData = {
com.fontlab.hintData = {
hhints = (
{
position = 6;
width = 96;
},
{
position = 417;
width = 95;
}
);
vhints = (
{
position = 47;
width = 97;
},
{
position = 350;
width = 96;
}
);
};
};
width = 530;
}
);
unicode = 0061;
},
{
glyphname = aacute;
layers = (
{
layerId = master01;
paths = (
{
closed = 1;
nodes = (
"314 731 LINE",
"398 658 LINE",
"212 540 LINE",
"141 600 LINE"
);
},
{
closed = 1;
nodes = (
"446 13 LINE",
"350 -5 LINE",
"350 34 LINE",
"318 18 OFFCURVE",
"281 6 OFFCURVE",
"240 6 CURVE SMOOTH",
"129 6 OFFCURVE",
"47 95 OFFCURVE",
"47 226 CURVE SMOOTH",
"47 327 OFFCURVE",
"111 512 OFFCURVE",
"285 512 CURVE SMOOTH",
"339 512 OFFCURVE",
"395 492 OFFCURVE",
"446 466 CURVE"
);
},
{
closed = 1;
nodes = (
"144 172 OFFCURVE",
"170 103 OFFCURVE",
"239 102 CURVE SMOOTH",
"279 102 OFFCURVE",
"324 126 OFFCURVE",
"348 143 CURVE",
"352 404 LINE",
"335 412 OFFCURVE",
"309 417 OFFCURVE",
"290 417 CURVE SMOOTH",
"182 417 OFFCURVE",
"144 296 OFFCURVE",
"144 227 CURVE SMOOTH"
);
}
);
userData = {
com.fontlab.hintData = {
hhints = (
{
position = 6;
width = 96;
},
{
position = 417;
width = 95;
}
);
vhints = (
{
position = 47;
width = 97;
},
{
position = 350;
width = 96;
}
);
};
};
width = 530;
}
);
unicode = 00E1;
},
{
glyphname = abreve;
layers = (
{
layerId = master01;
paths = (
{
closed = 1;
nodes = (
"324 626 OFFCURVE",
"354 649 OFFCURVE",
"375 706 CURVE",
"439 642 LINE",
"416 575 OFFCURVE",
"350 538 OFFCURVE",
"283 538 CURVE SMOOTH",
"210 538 OFFCURVE",
"147 572 OFFCURVE",
"118 637 CURVE",
"178 698 LINE",
"216 629 OFFCURVE",
"251 626 OFFCURVE",
"278 626 CURVE SMOOTH"
);
},
{
closed = 1;
nodes = (
"446 13 LINE",
"350 -5 LINE",
"350 34 LINE",
"318 18 OFFCURVE",
"281 6 OFFCURVE",
"240 6 CURVE SMOOTH",
"129 6 OFFCURVE",
"47 95 OFFCURVE",
"47 226 CURVE SMOOTH",
"47 327 OFFCURVE",
"111 512 OFFCURVE",
"285 512 CURVE SMOOTH",
"339 512 OFFCURVE",
"395 492 OFFCURVE",
"446 466 CURVE"
);
},
{
closed = 1;
nodes = (
"144 172 OFFCURVE",
"170 103 OFFCURVE",
"239 102 CURVE SMOOTH",
"279 102 OFFCURVE",
"324 126 OFFCURVE",
"348 143 CURVE",
"352 404 LINE",
"335 412 OFFCURVE",
"309 417 OFFCURVE",
"290 417 CURVE SMOOTH",
"182 417 OFFCURVE",
"144 296 OFFCURVE",
"144 227 CURVE SMOOTH"
);
}
);
userData = {
com.fontlab.hintData = {
hhints = (
{
position = 6;
width = 96;
},
{
position = 417;
width = 95;
},
{
position = 538;
width = 88;
}
);
vhints = (
{
position = 47;
width = 97;
},
{
position = 350;
width = 96;
}
);
};
};
width = 530;
}
);
unicode = 0103;
},
{
glyphname = acircumflex;
layers = (
{
layerId = master01;
paths = (
{
closed = 1;
nodes = (
"120 585 LINE",
"291 720 LINE",
"439 580 LINE",
"375 521 LINE",
"285 602 LINE",
"179 520 LINE"
);
},
{
closed = 1;
nodes = (
"446 13 LINE",
"350 -5 LINE",
"350 34 LINE",
"318 18 OFFCURVE",
"281 6 OFFCURVE",
"240 6 CURVE SMOOTH",
"129 6 OFFCURVE",
"47 95 OFFCURVE",
"47 226 CURVE SMOOTH",
"47 327 OFFCURVE",
"111 512 OFFCURVE",
"285 512 CURVE SMOOTH",
"339 512 OFFCURVE",
"395 492 OFFCURVE",
"446 466 CURVE"
);
},
{
closed = 1;
nodes = (
"144 172 OFFCURVE",
"170 103 OFFCURVE",
"239 102 CURVE SMOOTH",
"279 102 OFFCURVE",
"324 126 OFFCURVE",
"348 143 CURVE",
"352 404 LINE",
"335 412 OFFCURVE",
"309 417 OFFCURVE",
"290 417 CURVE SMOOTH",
"182 417 OFFCURVE",
"144 296 OFFCURVE",
"144 227 CURVE SMOOTH"
);
}
);
userData = {
com.fontlab.hintData = {
hhints = (
{
position = 6;
width = 96;
},
{
position = 417;
width = 95;
}
);
vhints = (
{
position = 47;
width = 97;
},
{
position = 350;
width = 96;
}
);
};
};
width = 530;
}
);
unicode = 00E2;
},
{
glyphname = adieresis;
layers = (
{
layerId = master01;
paths = (
{
closed = 1;
nodes = (
"250 561 LINE",
"135 546 LINE",
"149 658 LINE",
"261 672 LINE"
);
},
{
closed = 1;
nodes = (
"415 561 LINE",
"301 546 LINE",
"314 658 LINE",
"427 672 LINE"
);
},
{
closed = 1;
nodes = (
"446 13 LINE",
"350 -5 LINE",
"350 34 LINE",
"318 18 OFFCURVE",
"281 6 OFFCURVE",
"240 6 CURVE SMOOTH",
"129 6 OFFCURVE",
"47 95 OFFCURVE",
"47 226 CURVE SMOOTH",
"47 327 OFFCURVE",
"111 512 OFFCURVE",
"285 512 CURVE SMOOTH",
"339 512 OFFCURVE",
"395 492 OFFCURVE",
"446 466 CURVE"
);
},
{
closed = 1;
nodes = (
"144 172 OFFCURVE",
"170 103 OFFCURVE",
"239 102 CURVE SMOOTH",
"279 102 OFFCURVE",
"324 126 OFFCURVE",
"348 143 CURVE",
"352 404 LINE",
"335 412 OFFCURVE",
"309 417 OFFCURVE",
"290 417 CURVE SMOOTH",
"182 417 OFFCURVE",
"144 296 OFFCURVE",
"144 227 CURVE SMOOTH"
);
}
);
userData = {
com.fontlab.hintData = {
hhints = (
{
position = 6;
width = 96;
},
{
position = 417;
width = 95;
}
);
vhints = (
{
position = 47;
width = 97;
},
{
position = 350;
width = 96;
}
);
};
};
width = 530;
}
);
unicode = 00E4;
},
{
glyphname = agrave;
layers = (
{
layerId = master01;
paths = (
{
closed = 1;
nodes = (
"291 530 LINE",
"130 681 LINE",
"226 737 LINE",
"371 579 LINE"
);
},
{
closed = 1;
nodes = (
"446 13 LINE",
"350 -5 LINE",
"350 34 LINE",
"318 18 OFFCURVE",
"281 6 OFFCURVE",
"240 6 CURVE SMOOTH",
"129 6 OFFCURVE",
"47 95 OFFCURVE",
"47 226 CURVE SMOOTH",
"47 327 OFFCURVE",
"111 512 OFFCURVE",
"285 512 CURVE SMOOTH",
"339 512 OFFCURVE",
"395 492 OFFCURVE",
"446 466 CURVE"
);
},
{
closed = 1;
nodes = (
"144 172 OFFCURVE",
"170 103 OFFCURVE",
"239 102 CURVE SMOOTH",
"279 102 OFFCURVE",
"324 126 OFFCURVE",
"348 143 CURVE",
"352 404 LINE",
"335 412 OFFCURVE",
"309 417 OFFCURVE",
"290 417 CURVE SMOOTH",
"182 417 OFFCURVE",
"144 296 OFFCURVE",
"144 227 CURVE SMOOTH"
);
}
);
userData = {
com.fontlab.hintData = {
hhints = (
{
position = 6;
width = 96;
},
{
position = 417;
width = 95;
}
);
vhints = (
{
position = 47;
width = 97;
},
{
position = 350;
width = 96;
}
);
};
};
width = 530;
}
);
unicode = 00E0;
},
{
glyphname = aogonek;
layers = (
{
layerId = master01;
paths = (
{
closed = 1;
nodes = (
"350 39 LINE",
"318 23 OFFCURVE",
"281 11 OFFCURVE",
"240 11 CURVE SMOOTH",
"129 11 OFFCURVE",
"47 95 OFFCURVE",
"47 226 CURVE SMOOTH",
"47 327 OFFCURVE",
"111 512 OFFCURVE",
"285 512 CURVE SMOOTH",
"339 512 OFFCURVE",
"395 492 OFFCURVE",
"446 466 CURVE",
"446 0 LINE",
"376 -44 LINE SMOOTH",
"358 -55 OFFCURVE",
"335 -70 OFFCURVE",
"335 -96 CURVE SMOOTH",
"335 -110 OFFCURVE",
"348 -122 OFFCURVE",
"363 -122 CURVE SMOOTH",
"394 -122 OFFCURVE",
"415 -108 OFFCURVE",
"443 -85 CURVE",
"485 -131 LINE",
"459 -164 OFFCURVE",
"408 -196 OFFCURVE",
"353 -196 CURVE SMOOTH",
"295 -196 OFFCURVE",
"244 -163 OFFCURVE",
"244 -104 CURVE SMOOTH",
"244 -38 OFFCURVE",
"298 -11 OFFCURVE",
"350 18 CURVE"
);
},
{
closed = 1;
nodes = (
"144 172 OFFCURVE",
"170 103 OFFCURVE",
"239 102 CURVE SMOOTH",
"279 102 OFFCURVE",
"324 126 OFFCURVE",
"348 143 CURVE",
"352 404 LINE",
"335 412 OFFCURVE",
"309 417 OFFCURVE",
"290 417 CURVE SMOOTH",
"182 417 OFFCURVE",
"144 296 OFFCURVE",
"144 227 CURVE SMOOTH"
);
}
);
userData = {
com.fontlab.hintData = {
hhints = (
{
position = -196;
width = 74;
},
{
position = 11;
width = 91;
},
{
position = 417;
width = 95;
}
);
vhints = (
{
position = 47;
width = 97;
},
{
position = 244;
width = 91;
},
{
position = 350;
width = 96;
}
);
};
};
width = 536;
}
);
unicode = 0105;
},
{
glyphname = aring;
layers = (
{
layerId = master01;
paths = (
{
closed = 1;
nodes = (
"188 542 OFFCURVE",
"135 592 OFFCURVE",
"135 655 CURVE SMOOTH",
"135 726 OFFCURVE",
"201 782 OFFCURVE",
"283 782 CURVE SMOOTH",
"362 782 OFFCURVE",
"412 727 OFFCURVE",
"412 668 CURVE SMOOTH",
"412 584 OFFCURVE",
"334 542 OFFCURVE",
"264 542 CURVE SMOOTH"
);
},
{
closed = 1;
nodes = (
"257 697 OFFCURVE",
"221 682 OFFCURVE",
"221 655 CURVE SMOOTH",
"221 638 OFFCURVE",
"241 626 OFFCURVE",
"266 626 CURVE SMOOTH",
"294 626 OFFCURVE",
"328 643 OFFCURVE",
"328 666 CURVE SMOOTH",
"328 683 OFFCURVE",
"306 697 OFFCURVE",
"280 697 CURVE SMOOTH"
);
},
{
closed = 1;
nodes = (
"446 13 LINE",
"350 -5 LINE",
"350 34 LINE",
"318 18 OFFCURVE",
"281 6 OFFCURVE",
"240 6 CURVE SMOOTH",
"129 6 OFFCURVE",
"47 95 OFFCURVE",
"47 226 CURVE SMOOTH",
"47 327 OFFCURVE",
"111 512 OFFCURVE",
"285 512 CURVE SMOOTH",
"339 512 OFFCURVE",
"395 492 OFFCURVE",
"446 466 CURVE"
);
},
{
closed = 1;
nodes = (
"144 172 OFFCURVE",
"170 103 OFFCURVE",
"239 102 CURVE SMOOTH",
"279 102 OFFCURVE",
"324 126 OFFCURVE",
"348 143 CURVE",
"352 404 LINE",
"335 412 OFFCURVE",
"309 417 OFFCURVE",
"290 417 CURVE SMOOTH",
"182 417 OFFCURVE",
"144 296 OFFCURVE",
"144 227 CURVE SMOOTH"
);
}
);
userData = {
com.fontlab.hintData = {
hhints = (
{
position = 6;
width = 96;
},
{
position = 417;
width = 95;
},
{
position = 542;
width = 84;
},
{
position = 697;
width = 85;
}
);
vhints = (
{
position = 47;
width = 97;
},
{
position = 135;
width = 86;
},
{
position = 328;
width = 84;
},
{
position = 350;
width = 96;
}
);
};
};
width = 530;
}
);
unicode = 00E5;
},
{
glyphname = atilde;
layers = (
{
layerId = master01;
paths = (
{
closed = 1;
nodes = (
"463 669 LINE",
"452 638 OFFCURVE",
"418 536 OFFCURVE",
"317 536 CURVE SMOOTH",
"285 536 OFFCURVE",
"258 553 OFFCURVE",
"236 584 CURVE SMOOTH",
"220 607 OFFCURVE",
"209 619 OFFCURVE",
"194 619 CURVE SMOOTH",
"159 619 OFFCURVE",
"139 563 OFFCURVE",
"137 551 CURVE",
"72 584 LINE",
"88 640 OFFCURVE",
"128 708 OFFCURVE",
"206 708 CURVE SMOOTH",
"245 708 OFFCURVE",
"271 691 OFFCURVE",
"293 660 CURVE SMOOTH",
"309 638 OFFCURVE",
"320 624 OFFCURVE",
"335 624 CURVE SMOOTH",
"356 624 OFFCURVE",
"382 647 OFFCURVE",
"396 701 CURVE"
);
},
{
closed = 1;
nodes = (
"446 13 LINE",
"350 -5 LINE",
"350 34 LINE",
"318 18 OFFCURVE",
"281 6 OFFCURVE",
"240 6 CURVE SMOOTH",
"129 6 OFFCURVE",
"47 95 OFFCURVE",
"47 226 CURVE SMOOTH",
"47 327 OFFCURVE",
"111 512 OFFCURVE",
"285 512 CURVE SMOOTH",
"339 512 OFFCURVE",
"395 492 OFFCURVE",
"446 466 CURVE"
);
},
{
closed = 1;
nodes = (
"144 172 OFFCURVE",
"170 103 OFFCURVE",
"239 102 CURVE SMOOTH",
"279 102 OFFCURVE",
"324 126 OFFCURVE",
"348 143 CURVE",
"352 404 LINE",
"335 412 OFFCURVE",
"309 417 OFFCURVE",
"290 417 CURVE SMOOTH",
"182 417 OFFCURVE",
"144 296 OFFCURVE",
"144 227 CURVE SMOOTH"
);
}
);
userData = {
com.fontlab.hintData = {
hhints = (
{
position = 6;
width = 96;
},
{
position = 417;
width = 95;
},
{
position = 536;
width = 88;
},
{
position = 619;
width = 89;
}
);
vhints = (
{
position = 47;
width = 97;
},
{
position = 350;
width = 96;
}
);
};
};
width = 539;
}
);
unicode = 00E3;
},
{
glyphname = ae;
layers = (
{
layerId = master01;
paths = (
{
closed = 1;
nodes = (
"549 0 OFFCURVE",
"496 21 OFFCURVE",
"455 54 CURVE",
"455 13 LINE",
"358 -5 LINE",
"358 34 LINE",
"326 18 OFFCURVE",
"289 6 OFFCURVE",
"249 6 CURVE SMOOTH",
"137 6 OFFCURVE",
"55 95 OFFCURVE",
"55 226 CURVE SMOOTH",
"55 327 OFFCURVE",
"120 512 OFFCURVE",
"294 512 CURVE SMOOTH",
"347 512 OFFCURVE",
"404 492 OFFCURVE",
"455 466 CURVE",
"455 438 LINE",
"490 475 OFFCURVE",
"540 502 OFFCURVE",
"605 502 CURVE SMOOTH",
"697 502 OFFCURVE",
"774 426 OFFCURVE",
"800 335 CURVE",
"482 158 LINE",
"509 122 OFFCURVE",
"556 92 OFFCURVE",
"605 92 CURVE SMOOTH",
"646 92 OFFCURVE",
"688 115 OFFCURVE",
"727 156 CURVE",
"794 93 LINE",
"737 33 OFFCURVE",
"669 0 OFFCURVE",
"605 0 CURVE SMOOTH"
);
},
{
closed = 1;
nodes = (
"153 172 OFFCURVE",
"178 103 OFFCURVE",
"247 102 CURVE SMOOTH",
"287 102 OFFCURVE",
"333 126 OFFCURVE",
"356 143 CURVE",
"361 404 LINE",
"344 409 OFFCURVE",
"317 417 OFFCURVE",
"298 417 CURVE SMOOTH",
"191 417 OFFCURVE",
"153 296 OFFCURVE",
"153 227 CURVE SMOOTH"
);
},
{
closed = 1;
nodes = (
"680 375 LINE",
"661 396 OFFCURVE",
"632 410 OFFCURVE",
"606 410 CURVE SMOOTH",
"516 410 OFFCURVE",
"455 334 OFFCURVE",
"455 247 CURVE"
);
}
);
userData = {
com.fontlab.hintData = {
hhints = (
{
position = 0;
width = 92;
},
{
position = 6;
width = 96;
},
{
position = 410;
width = 92;
},
{
position = 417;
width = 95;
}
);
vhints = (
{
position = 55;
width = 98;
},
{
position = 358;
width = 97;
}
);
};
};
width = 890;
}
);
unicode = 00E6;
},
{
glyphname = b;
layers = (
{
layerId = master01;
paths = (
{
closed = 1;
nodes = (
"427 491 OFFCURVE",
"483 372 OFFCURVE",
"483 266 CURVE SMOOTH",
"483 214 OFFCURVE",
"479 1 OFFCURVE",
"261 1 CURVE SMOOTH",
"225 1 OFFCURVE",
"187 8 OFFCURVE",
"158 16 CURVE",
"158 -5 LINE",
"62 12 LINE",
"62 661 LINE",
"158 679 LINE",
"158 448 LINE",
"197 476 OFFCURVE",
"249 491 OFFCURVE",
"311 491 CURVE SMOOTH"
);
},
{
closed = 1;
nodes = (
"352 95 OFFCURVE",
"389 169 OFFCURVE",
"389 266 CURVE SMOOTH",
"389 323 OFFCURVE",
"367 395 OFFCURVE",
"298 395 CURVE SMOOTH",
"215 395 OFFCURVE",
"158 346 OFFCURVE",
"158 287 CURVE SMOOTH",
"158 112 LINE",
"179 105 OFFCURVE",
"217 95 OFFCURVE",
"254 95 CURVE SMOOTH"
);
}
);
userData = {
com.fontlab.hintData = {
hhints = (
{
position = 1;
width = 94;
},
{
position = 395;
width = 96;
}
);
vhints = (
{
position = 62;
width = 96;
},
{
position = 389;
width = 94;
}
);
};
};
width = 554;
}
);
unicode = 0062;
},
{
glyphname = c;
layers = (
{
layerId = master01;
paths = (
{
closed = 1;
nodes = (
"324 95 OFFCURVE",
"369 131 OFFCURVE",
"398 186 CURVE",
"470 114 LINE",
"427 47 OFFCURVE",
"357 3 OFFCURVE",
"279 0 CURVE",
"275.505 -0.173 OFFCURVE",
"272.02 -0.259 OFFCURVE",
"268.546 -0.259 CURVE SMOOTH",
"151.738 -0.259 OFFCURVE",
"48 96.639 OFFCURVE",
"48 219 CURVE SMOOTH",
"48 331 OFFCURVE",
"137 502 OFFCURVE",
"274 502 CURVE SMOOTH",
"339 502 OFFCURVE",
"398 470 OFFCURVE",
"442 411 CURVE",
"372 342 LINE",
"346 386 OFFCURVE",
"310 409 OFFCURVE",
"276 409 CURVE SMOOTH",
"198 409 OFFCURVE",
"142 295 OFFCURVE",
"142 221 CURVE SMOOTH",
"142 117.281 OFFCURVE",
"230.54 92.879 OFFCURVE",
"271.218 92.879 CURVE SMOOTH",
"272.896 92.879 OFFCURVE",
"274.494 92.921 OFFCURVE",
"276 93 CURVE SMOOTH"
);
}
);
userData = {
com.fontlab.hintData = {
hhints = (
{
position = 0;
width = 93;
},
{
position = 409;
width = 93;
}
);
vhints = (
{
position = 48;
width = 94;
}
);
};
};
width = 533;
}
);
unicode = 0063;
},
{
glyphname = cacute;
layers = (
{
layerId = master01;
paths = (
{
closed = 1;
nodes = (
"332 731 LINE",
"416 658 LINE",
"230 540 LINE",
"159 600 LINE"
);
},
{
closed = 1;
nodes = (
"324 95 OFFCURVE",
"369 131 OFFCURVE",
"398 186 CURVE",
"470 114 LINE",
"427 47 OFFCURVE",
"357 3 OFFCURVE",
"279 0 CURVE",
"275.505 -0.173 OFFCURVE",
"272.02 -0.259 OFFCURVE",
"268.546 -0.259 CURVE SMOOTH",
"151.738 -0.259 OFFCURVE",
"48 96.639 OFFCURVE",
"48 219 CURVE SMOOTH",
"48 331 OFFCURVE",
"137 502 OFFCURVE",
"274 502 CURVE SMOOTH",
"339 502 OFFCURVE",
"398 470 OFFCURVE",
"442 411 CURVE",
"372 342 LINE",
"346 386 OFFCURVE",
"310 409 OFFCURVE",
"276 409 CURVE SMOOTH",
"198 409 OFFCURVE",
"142 295 OFFCURVE",
"142 221 CURVE SMOOTH",
"142 117.281 OFFCURVE",
"230.54 92.879 OFFCURVE",
"271.218 92.879 CURVE SMOOTH",
"272.896 92.879 OFFCURVE",
"274.494 92.921 OFFCURVE",
"276 93 CURVE SMOOTH"
);
}
);
userData = {
com.fontlab.hintData = {
hhints = (
{
position = 0;
width = 93;
},
{
position = 409;
width = 93;
}
);
vhints = (
{
position = 48;
width = 94;
}
);
};
};
width = 533;
}
);
unicode = 0107;
},
{
glyphname = ccaron;
layers = (
{
layerId = master01;
paths = (
{
closed = 1;
nodes = (
"448 652 LINE",
"278 532 LINE",
"130 657 LINE",
"194 722 LINE",
"283 639 LINE",
"390 722 LINE"
);
},
{
closed = 1;
nodes = (
"324 95 OFFCURVE",
"369 131 OFFCURVE",
"398 186 CURVE",
"470 114 LINE",
"427 47 OFFCURVE",
"357 3 OFFCURVE",
"279 0 CURVE",
"275.505 -0.173 OFFCURVE",
"272.02 -0.259 OFFCURVE",
"268.546 -0.259 CURVE SMOOTH",
"151.738 -0.259 OFFCURVE",
"48 96.639 OFFCURVE",
"48 219 CURVE SMOOTH",
"48 331 OFFCURVE",
"137 502 OFFCURVE",
"274 502 CURVE SMOOTH",
"339 502 OFFCURVE",
"398 470 OFFCURVE",
"442 411 CURVE",
"372 342 LINE",
"346 386 OFFCURVE",
"310 409 OFFCURVE",
"276 409 CURVE SMOOTH",
"198 409 OFFCURVE",
"142 295 OFFCURVE",
"142 221 CURVE SMOOTH",
"142 117.281 OFFCURVE",
"230.54 92.879 OFFCURVE",
"271.218 92.879 CURVE SMOOTH",
"272.896 92.879 OFFCURVE",
"274.494 92.921 OFFCURVE",
"276 93 CURVE SMOOTH"
);
}
);
userData = {
com.fontlab.hintData = {
hhints = (
{
position = 0;
width = 93;
},
{
position = 409;
width = 93;
}
);
vhints = (
{
position = 48;
width = 94;
}
);
};
};
width = 533;
}
);
unicode = 010D;
},
{
glyphname = ccedilla;
layers = (
{
layerId = master01;
paths = (
{
closed = 1;
nodes = (
"215 6 LINE",
"122 30 OFFCURVE",
"48 115 OFFCURVE",
"48 219 CURVE SMOOTH",
"48 331 OFFCURVE",
"137 502 OFFCURVE",
"274 502 CURVE SMOOTH",
"339 502 OFFCURVE",
"398 470 OFFCURVE",
"442 411 CURVE",
"372 342 LINE",
"346 386 OFFCURVE",
"310 409 OFFCURVE",
"276 409 CURVE SMOOTH",
"198 409 OFFCURVE",
"142 295 OFFCURVE",
"142 221 CURVE SMOOTH",
"142 117.281 OFFCURVE",
"230.54 92.879 OFFCURVE",
"271.218 92.879 CURVE SMOOTH",
"272.896 92.879 OFFCURVE",
"274.494 92.921 OFFCURVE",
"276 93 CURVE SMOOTH",
"324 95 OFFCURVE",
"369 131 OFFCURVE",
"398 186 CURVE",
"470 114 LINE",
"427 47 OFFCURVE",
"357 3 OFFCURVE",
"279 0 CURVE SMOOTH",
"268 0 LINE",
"267 -33 LINE",
"320 -38 OFFCURVE",
"358 -60 OFFCURVE",
"358 -115 CURVE SMOOTH",
"358 -167 OFFCURVE",
"315 -196 OFFCURVE",
"263 -196 CURVE SMOOTH",
"232 -196 OFFCURVE",
"210 -186 OFFCURVE",
"187 -157 CURVE",
"231 -123 LINE",
"237 -132 OFFCURVE",
"249 -139 OFFCURVE",
"263 -139 CURVE SMOOTH",
"279 -139 OFFCURVE",
"291 -130 OFFCURVE",
"291 -115 CURVE SMOOTH",
"291 -99 OFFCURVE",
"279 -90 OFFCURVE",
"259 -90 CURVE SMOOTH",
"252 -90 OFFCURVE",
"241 -93 OFFCURVE",
"236 -98 CURVE",
"194 -54 LINE"
);
}
);
userData = {
com.fontlab.hintData = {
hhints = (
{
position = -196;
width = 57;
},
{
position = 0;
width = 93;
},
{
position = 409;
width = 93;
}
);
vhints = (
{
position = 48;
width = 94;
},
{
position = 291;
width = 67;
}
);
};
};
width = 533;
}
);
unicode = 00E7;
},
{
glyphname = ccircumflex;
layers = (
{
layerId = master01;
paths = (
{
closed = 1;
nodes = (
"324 95 OFFCURVE",
"369 131 OFFCURVE",
"398 186 CURVE",
"470 114 LINE",
"427 47 OFFCURVE",
"357 3 OFFCURVE",
"279 0 CURVE SMOOTH",
"275.505 -0.173 OFFCURVE",
"272.02 -0.259 OFFCURVE",
"268.546 -0.259 CURVE SMOOTH",
"151.738 -0.259 OFFCURVE",
"48 96.639 OFFCURVE",
"48 219 CURVE SMOOTH",
"48 331 OFFCURVE",
"137 502 OFFCURVE",
"274 502 CURVE SMOOTH",
"339 502 OFFCURVE",
"398 470 OFFCURVE",
"442 411 CURVE",
"372 342 LINE",
"346 386 OFFCURVE",
"310 409 OFFCURVE",
"276 409 CURVE SMOOTH",
"198 409 OFFCURVE",
"142 295 OFFCURVE",
"142 221 CURVE SMOOTH",
"142 117.281 OFFCURVE",
"230.54 92.879 OFFCURVE",
"271.218 92.879 CURVE SMOOTH",
"272.896 92.879 OFFCURVE",
"274.494 92.921 OFFCURVE",
"276 93 CURVE SMOOTH"
);
},
{
closed = 1;
nodes = (
"120 585 LINE",
"291 720 LINE",
"439 580 LINE",
"375 521 LINE",
"285 602 LINE",
"179 520 LINE"
);
}
);
userData = {
com.fontlab.hintData = {
hhints = (
{
position = 0;
width = 93;
},
{
position = 409;
width = 93;
}
);
vhints = (
{
position = 48;
width = 94;
}
);
};
};
width = 533;
}
);
unicode = 0109;
},
{
glyphname = d;
layers = (
{
layerId = master01;
paths = (
{
closed = 1;
nodes = (
"467 684 LINE",
"452 12 LINE",
"356 -5 LINE",
"356 47 LINE",
"322 23 OFFCURVE",
"283 5 OFFCURVE",
"226 5 CURVE SMOOTH",
"104 5 OFFCURVE",
"48 118 OFFCURVE",
"48 228 CURVE SMOOTH",
"48 316 OFFCURVE",
"76 496 OFFCURVE",
"270 496 CURVE SMOOTH",
"300 496 OFFCURVE",
"334 488 OFFCURVE",
"365 479 CURVE",
"369 667 LINE"
);
},
{
closed = 1;
nodes = (
"364 376 LINE",
"344 386 OFFCURVE",
"307 402 OFFCURVE",
"265 402 CURVE SMOOTH",
"162 402 OFFCURVE",
"144 299 OFFCURVE",
"144 231 CURVE SMOOTH",
"144 179 OFFCURVE",
"158 95 OFFCURVE",
"226 95 CURVE SMOOTH",
"305 95 OFFCURVE",
"358 149 OFFCURVE",
"359 171 CURVE SMOOTH"
);
}
);
userData = {
com.fontlab.hintData = {
hhints = (
{
position = 5;
width = 90;
},
{
position = 402;
width = 94;
}
);
vhints = (
{
position = 48;
width = 96;
},
{
position = 356;
width = 96;
},
{
position = 364;
width = 103;
}
);
};
};
width = 552;
}
);
unicode = 0064;
},
{
glyphname = eth;
layers = (
{
layerId = master01;
paths = (
{
closed = 1;
nodes = (
"309 547 LINE",
"379 467 OFFCURVE",
"440 366 OFFCURVE",
"440 255 CURVE SMOOTH",
"440 128 OFFCURVE",
"357 0 OFFCURVE",
"219 0 CURVE SMOOTH",
"122 0 OFFCURVE",
"47 75 OFFCURVE",
"47 184 CURVE SMOOTH",
"47 322 OFFCURVE",
"140 417 OFFCURVE",
"279 437 CURVE",
"264 458 OFFCURVE",
"244 485 OFFCURVE",
"229 501 CURVE",
"186 476 OFFCURVE",
"132 439 OFFCURVE",
"118 427 CURVE",
"79 504 LINE",
"108 523 OFFCURVE",
"140 544 OFFCURVE",
"169 561 CURVE",
"155 574 OFFCURVE",
"139 586 OFFCURVE",
"130 592 CURVE",
"192 661 LINE",
"208 649 OFFCURVE",
"236 626 OFFCURVE",
"253 608 CURVE",
"286 626 OFFCURVE",
"329 647 OFFCURVE",
"376 666 CURVE",
"402 590 LINE"
);
},
{
closed = 1;
nodes = (
"300 92 OFFCURVE",
"348 177 OFFCURVE",
"348 257 CURVE SMOOTH",
"348 288 OFFCURVE",
"340 319 OFFCURVE",
"327 350 CURVE",
"219 346 OFFCURVE",
"139 295 OFFCURVE",
"139 183 CURVE SMOOTH",
"139 126 OFFCURVE",
"173 92 OFFCURVE",
"219 92 CURVE SMOOTH"
);
}
);
userData = {
com.fontlab.hintData = {
hhints = (
{
position = 0;
width = 92;
}
);
vhints = (
{
position = 47;
width = 92;
},
{
position = 348;
width = 92;
}
);
};
};
width = 508;
}
);
unicode = 00F0;
},
{
glyphname = dcaron;
layers = (
{
layerId = master01;
paths = (
{
closed = 1;
nodes = (
"646 624 LINE",
"550 434 LINE",
"465 482 LINE",
"514 568 LINE",
"472 592 LINE",
"557 679 LINE"
);
},
{
closed = 1;
nodes = (
"452 684 LINE",
"437 12 LINE",
"346 -5 LINE",
"346 47 LINE",
"312 23 OFFCURVE",
"273 5 OFFCURVE",
"216 5 CURVE SMOOTH",
"94 5 OFFCURVE",
"38 118 OFFCURVE",
"38 228 CURVE SMOOTH",
"38 316 OFFCURVE",
"66 496 OFFCURVE",
"260 496 CURVE SMOOTH",
"290 496 OFFCURVE",
"324 488 OFFCURVE",
"355 479 CURVE",
"359 667 LINE"
);
},
{
closed = 1;
nodes = (
"354 376 LINE",
"334 386 OFFCURVE",
"297 402 OFFCURVE",
"255 402 CURVE SMOOTH",
"152 402 OFFCURVE",
"134 299 OFFCURVE",
"134 231 CURVE SMOOTH",
"134 179 OFFCURVE",
"148 95 OFFCURVE",
"216 95 CURVE SMOOTH",
"295 95 OFFCURVE",
"348 149 OFFCURVE",
"349 171 CURVE SMOOTH"
);
}
);
userData = {
com.fontlab.hintData = {
hhints = (
{
position = 5;
width = 90;
},
{
position = 402;
width = 94;
}
);
vhints = (
{
position = 38;
width = 96;
},
{
position = 346;
width = 91;
},
{
position = 355;
width = 97;
}
);
};
};
width = 635;
}
);
unicode = 010F;
},
{
glyphname = dcroat;
layers = (
{
layerId = master01;
paths = (
{
closed = 1;
nodes = (
"462 684 LINE",
"460 606 LINE",
"563 606 LINE",
"545 523 LINE",
"458 523 LINE",
"447 12 LINE",
"356 -5 LINE",
"356 47 LINE",
"322 23 OFFCURVE",
"283 5 OFFCURVE",
"226 5 CURVE SMOOTH",
"104 5 OFFCURVE",
"48 113 OFFCURVE",
"48 223 CURVE SMOOTH",
"48 311 OFFCURVE",
"76 486 OFFCURVE",
"270 486 CURVE SMOOTH",
"300 486 OFFCURVE",
"334 478 OFFCURVE",
"365 469 CURVE",
"366 523 LINE",
"275 523 LINE",
"292 606 LINE",
"367 606 LINE",
"369 667 LINE"
);
},
{
closed = 1;
nodes = (
"364 366 LINE",
"344 376 OFFCURVE",
"307 392 OFFCURVE",
"265 392 CURVE SMOOTH",
"162 392 OFFCURVE",
"144 294 OFFCURVE",
"144 226 CURVE SMOOTH",
"144 174 OFFCURVE",
"158 95 OFFCURVE",
"226 95 CURVE SMOOTH",
"305 95 OFFCURVE",
"358 149 OFFCURVE",
"359 171 CURVE SMOOTH"
);
}
);
userData = {
com.fontlab.hintData = {
hhints = (
{
position = 5;
width = 90;
},
{
position = 392;
width = 94;
},
{
position = 523;
width = 83;
}
);
vhints = (
{
position = 48;
width = 96;
},
{
position = 356;
width = 91;
},
{
position = 367;
width = 93;
}
);
};
};
width = 576;
}
);
unicode = 0111;
},
{
glyphname = e;
layers = (
{
layerId = master01;
paths = (
{
closed = 1;
nodes = (
"156 0 OFFCURVE",
"48 113 OFFCURVE",
"48 251 CURVE SMOOTH",
"48 388 OFFCURVE",
"155 502 OFFCURVE",
"291 502 CURVE SMOOTH",
"382 502 OFFCURVE",
"460 426 OFFCURVE",
"486 335 CURVE",
"168 158 LINE",
"195 122 OFFCURVE",
"242 92 OFFCURVE",
"291 92 CURVE SMOOTH",
"332 92 OFFCURVE",
"374 115 OFFCURVE",
"413 156 CURVE",
"480 93 LINE",
"423 33 OFFCURVE",
"355 0 OFFCURVE",
"291 0 CURVE SMOOTH"
);
},
{
closed = 1;
nodes = (
"365 375 LINE",
"346 396 OFFCURVE",
"317 410 OFFCURVE",
"291 410 CURVE SMOOTH",
"201 410 OFFCURVE",
"140 334 OFFCURVE",
"140 247 CURVE"
);
}
);
userData = {
com.fontlab.hintData = {
hhints = (
{
position = 0;
width = 92;
},
{
position = 410;
width = 92;
}
);
vhints = (
{
position = 48;
width = 92;
}
);
};
};
width = 553;
}
);
unicode = 0065;
},
{
glyphname = eacute;
layers = (
{
layerId = master01;
paths = (
{
closed = 1;
nodes = (
"315 731 LINE",
"399 658 LINE",
"213 540 LINE",
"142 600 LINE"
);
},
{
closed = 1;
nodes = (
"156 0 OFFCURVE",
"48 113 OFFCURVE",
"48 251 CURVE SMOOTH",
"48 388 OFFCURVE",
"155 502 OFFCURVE",
"291 502 CURVE SMOOTH",
"382 502 OFFCURVE",
"460 426 OFFCURVE",
"486 335 CURVE",
"168 158 LINE",
"195 122 OFFCURVE",
"242 92 OFFCURVE",
"291 92 CURVE SMOOTH",
"332 92 OFFCURVE",
"374 115 OFFCURVE",
"413 156 CURVE",
"480 93 LINE",
"423 33 OFFCURVE",
"355 0 OFFCURVE",
"291 0 CURVE SMOOTH"
);
},
{
closed = 1;
nodes = (
"365 375 LINE",
"346 396 OFFCURVE",
"317 410 OFFCURVE",
"291 410 CURVE SMOOTH",
"201 410 OFFCURVE",
"140 334 OFFCURVE",
"140 247 CURVE"
);
}
);
userData = {
com.fontlab.hintData = {
hhints = (
{
position = 0;
width = 92;
},
{
position = 410;
width = 92;
}
);
vhints = (
{
position = 48;
width = 92;
}
);
};
};
width = 553;
}
);
unicode = 00E9;
},
{
glyphname = ecaron;
layers = (
{
layerId = master01;
paths = (
{
closed = 1;
nodes = (
"444 652 LINE",
"274 532 LINE",
"126 657 LINE",
"190 722 LINE",
"279 639 LINE",
"387 722 LINE"
);
},
{
closed = 1;
nodes = (
"156 0 OFFCURVE",
"48 113 OFFCURVE",
"48 251 CURVE SMOOTH",
"48 388 OFFCURVE",
"155 502 OFFCURVE",
"291 502 CURVE SMOOTH",
"382 502 OFFCURVE",
"460 426 OFFCURVE",
"486 335 CURVE",
"168 158 LINE",
"195 122 OFFCURVE",
"242 92 OFFCURVE",
"291 92 CURVE SMOOTH",
"332 92 OFFCURVE",
"374 115 OFFCURVE",
"413 156 CURVE",
"480 93 LINE",
"423 33 OFFCURVE",
"355 0 OFFCURVE",
"291 0 CURVE SMOOTH"
);
},
{
closed = 1;
nodes = (
"365 375 LINE",
"346 396 OFFCURVE",
"317 410 OFFCURVE",
"291 410 CURVE SMOOTH",
"201 410 OFFCURVE",
"140 334 OFFCURVE",
"140 247 CURVE"
);
}
);
userData = {
com.fontlab.hintData = {
hhints = (
{
position = 0;
width = 92;
},
{
position = 410;
width = 92;
}
);
vhints = (
{
position = 48;
width = 92;
}
);
};
};
width = 553;
}
);
unicode = 011B;
},
{
glyphname = ecircumflex;
layers = (
{
layerId = master01;
paths = (
{
closed = 1;
nodes = (
"107 585 LINE",
"276 720 LINE",
"424 580 LINE",
"361 521 LINE",
"271 602 LINE",
"165 520 LINE"
);
},
{
closed = 1;
nodes = (
"156 0 OFFCURVE",
"48 113 OFFCURVE",
"48 251 CURVE SMOOTH",
"48 388 OFFCURVE",
"155 502 OFFCURVE",
"291 502 CURVE SMOOTH",
"382 502 OFFCURVE",
"460 426 OFFCURVE",
"486 335 CURVE",
"168 158 LINE",
"195 122 OFFCURVE",
"242 92 OFFCURVE",
"291 92 CURVE SMOOTH",
"332 92 OFFCURVE",
"374 115 OFFCURVE",
"413 156 CURVE",
"480 93 LINE",
"423 33 OFFCURVE",
"355 0 OFFCURVE",
"291 0 CURVE SMOOTH"
);
},
{
closed = 1;
nodes = (
"365 375 LINE",
"346 396 OFFCURVE",
"317 410 OFFCURVE",
"291 410 CURVE SMOOTH",
"201 410 OFFCURVE",
"140 334 OFFCURVE",
"140 247 CURVE"
);
}
);
userData = {
com.fontlab.hintData = {
hhints = (
{
position = 0;
width = 92;
},
{
position = 410;
width = 92;
}
);
vhints = (
{
position = 48;
width = 92;
}
);
};
};
width = 553;
}
);
unicode = 00EA;
},
{
glyphname = edieresis;
layers = (
{
layerId = master01;
paths = (
{
closed = 1;
nodes = (
"247 561 LINE",
"132 546 LINE",
"146 658 LINE",
"259 672 LINE"
);
},
{
closed = 1;
nodes = (
"412 561 LINE",
"298 546 LINE",
"312 658 LINE",
"424 672 LINE"
);
},
{
closed = 1;
nodes = (
"156 0 OFFCURVE",
"48 113 OFFCURVE",
"48 251 CURVE SMOOTH",
"48 388 OFFCURVE",
"155 502 OFFCURVE",
"291 502 CURVE SMOOTH",
"382 502 OFFCURVE",
"460 426 OFFCURVE",
"486 335 CURVE",
"168 158 LINE",
"195 122 OFFCURVE",
"242 92 OFFCURVE",
"291 92 CURVE SMOOTH",
"332 92 OFFCURVE",
"374 115 OFFCURVE",
"413 156 CURVE",
"480 93 LINE",
"423 33 OFFCURVE",
"355 0 OFFCURVE",
"291 0 CURVE SMOOTH"
);
},
{
closed = 1;
nodes = (
"365 375 LINE",
"346 396 OFFCURVE",
"317 410 OFFCURVE",
"291 410 CURVE SMOOTH",
"201 410 OFFCURVE",
"140 334 OFFCURVE",
"140 247 CURVE"
);
}
);
userData = {
com.fontlab.hintData = {
hhints = (
{
position = 0;
width = 92;
},
{
position = 410;
width = 92;
}
);
vhints = (
{
position = 48;
width = 92;
}
);
};
};
width = 553;
}
);
unicode = 00EB;
},
{
glyphname = egrave;
layers = (
{
layerId = master01;
paths = (
{
closed = 1;
nodes = (
"298 530 LINE",
"137 682 LINE",
"234 737 LINE",
"379 579 LINE"
);
},
{
closed = 1;
nodes = (
"156 0 OFFCURVE",
"48 113 OFFCURVE",
"48 251 CURVE SMOOTH",
"48 388 OFFCURVE",
"155 502 OFFCURVE",
"291 502 CURVE SMOOTH",
"382 502 OFFCURVE",
"460 426 OFFCURVE",
"486 335 CURVE",
"168 158 LINE",
"195 122 OFFCURVE",
"242 92 OFFCURVE",
"291 92 CURVE SMOOTH",
"332 92 OFFCURVE",
"374 115 OFFCURVE",
"413 156 CURVE",
"480 93 LINE",
"423 33 OFFCURVE",
"355 0 OFFCURVE",
"291 0 CURVE SMOOTH"
);
},
{
closed = 1;
nodes = (
"365 375 LINE",
"346 396 OFFCURVE",
"317 410 OFFCURVE",
"291 410 CURVE SMOOTH",
"201 410 OFFCURVE",
"140 334 OFFCURVE",
"140 247 CURVE"
);
}
);
userData = {
com.fontlab.hintData = {
hhints = (
{
position = 0;
width = 92;
},
{
position = 410;
width = 92;
}
);
vhints = (
{
position = 48;
width = 92;
}
);
};
};
width = 553;
}
);
unicode = 00E8;
},
{
glyphname = eogonek;
layers = (
{
layerId = master01;
paths = (
{
closed = 1;
nodes = (
"284 -45 OFFCURVE",
"261 -60 OFFCURVE",
"261 -86 CURVE SMOOTH",
"261 -100 OFFCURVE",
"274 -112 OFFCURVE",
"289 -112 CURVE SMOOTH",
"310 -112 OFFCURVE",
"332 -98 OFFCURVE",
"360 -75 CURVE",
"411 -131 LINE",
"385 -164 OFFCURVE",
"334 -196 OFFCURVE",
"289 -196 CURVE SMOOTH",
"221 -196 OFFCURVE",
"170 -161 OFFCURVE",
"170 -94 CURVE SMOOTH",
"170 -45 OFFCURVE",
"198 -15 OFFCURVE",
"232 7 CURVE",
"126 34 OFFCURVE",
"48 133 OFFCURVE",
"48 251 CURVE SMOOTH",
"48 388 OFFCURVE",
"155 502 OFFCURVE",
"291 502 CURVE SMOOTH",
"382 502 OFFCURVE",
"460 426 OFFCURVE",
"486 335 CURVE",
"168 158 LINE",
"195 122 OFFCURVE",
"242 92 OFFCURVE",
"291 92 CURVE SMOOTH",
"332 92 OFFCURVE",
"374 115 OFFCURVE",
"413 156 CURVE",
"480 93 LINE",
"449 61 OFFCURVE",
"418 34 OFFCURVE",
"302 -33 CURVE"
);
},
{
closed = 1;
nodes = (
"365 375 LINE",
"346 396 OFFCURVE",
"317 410 OFFCURVE",
"291 410 CURVE SMOOTH",
"201 410 OFFCURVE",
"140 334 OFFCURVE",
"140 247 CURVE"
);
}
);
userData = {
com.fontlab.hintData = {
hhints = (
{
position = -196;
width = 84;
},
{
position = 410;
width = 92;
}
);
vhints = (
{
position = 48;
width = 92;
},
{
position = 170;
width = 91;
}
);
};
};
width = 553;
}
);
unicode = 0119;
},
{
glyphname = f;
layers = (
{
layerId = master01;
paths = (
{
closed = 1;
nodes = (
"308 582 LINE",
"304.352 582.079 OFFCURVE",
"300.806 582.119 OFFCURVE",
"297.36 582.119 CURVE SMOOTH",
"213.896 582.119 OFFCURVE",
"188.881 558.66 OFFCURVE",
"186 502 CURVE",
"309 502 LINE",
"288 410 LINE",
"180 410 LINE",
"180 12 LINE",
"84 -5 LINE",
"84 410 LINE",
"2 410 LINE",
"18 502 LINE",
"85 502 LINE",
"91 630 OFFCURVE",
"155 677 OFFCURVE",
"285 677 CURVE SMOOTH",
"296 677 OFFCURVE",
"307 677 OFFCURVE",
"347 673 CURVE"
);
}
);
userData = {
com.fontlab.hintData = {
hhints = (
{
position = 410;
width = 92;
},
{
position = 582;
width = 95;
}
);
vhints = (
{
position = 84;
width = 96;
}
);
};
};
width = 358;
}
);
unicode = 0066;
},
{
glyphname = g;
layers = (
{
layerId = master01;
paths = (
{
closed = 1;
nodes = (
"453 39 LINE SMOOTH",
"450 -94 OFFCURVE",
"375 -168 OFFCURVE",
"246 -168 CURVE SMOOTH",
"202 -168 OFFCURVE",
"145 -159 OFFCURVE",
"105 -150 CURVE",
"125 -56 LINE",
"157 -64 OFFCURVE",
"206 -72 OFFCURVE",
"246 -72 CURVE SMOOTH",
"342 -72 OFFCURVE",
"355 9 OFFCURVE",
"356 42 CURVE",
"326 19 OFFCURVE",
"290 10 OFFCURVE",
"251 10 CURVE SMOOTH",
"135 10 OFFCURVE",
"48 108 OFFCURVE",
"48 245 CURVE SMOOTH",
"48 373 OFFCURVE",
"142 501 OFFCURVE",
"286 501 CURVE SMOOTH",
"319 501 OFFCURVE",
"342 497 OFFCURVE",
"366 487 CURVE",
"366 497 LINE",
"464 512 LINE"
);
},
{
closed = 1;
nodes = (
"344 397 OFFCURVE",
"317 406 OFFCURVE",
"291 406 CURVE SMOOTH",
"203 406 OFFCURVE",
"138 332 OFFCURVE",
"138 243 CURVE SMOOTH",
"138 189 OFFCURVE",
"170 104 OFFCURVE",
"246 104 CURVE",
"299 105 OFFCURVE",
"362 136 OFFCURVE",
"362 266 CURVE SMOOTH",
"362 386 LINE"
);
}
);
userData = {
com.fontlab.hintData = {
hhints = (
{
position = -168;
width = 96;
},
{
position = 10;
width = 94;
},
{
position = 406;
width = 95;
}
);
vhints = (
{
position = 48;
width = 90;
},
{
position = 362;
width = 102;
},
{
position = 362;
width = 91;
}
);
};
};
width = 548;
}
);
unicode = 0067;
},
{
glyphname = gcircumflex;
layers = (
{
layerId = master01;
paths = (
{
closed = 1;
nodes = (
"453 39 LINE SMOOTH",
"450 -94 OFFCURVE",
"375 -168 OFFCURVE",
"246 -168 CURVE SMOOTH",
"202 -168 OFFCURVE",
"145 -159 OFFCURVE",
"105 -150 CURVE",
"125 -56 LINE",
"157 -64 OFFCURVE",
"206 -72 OFFCURVE",
"246 -72 CURVE SMOOTH",
"342 -72 OFFCURVE",
"355 9 OFFCURVE",
"356 42 CURVE",
"326 19 OFFCURVE",
"290 10 OFFCURVE",
"251 10 CURVE SMOOTH",
"135 10 OFFCURVE",
"48 108 OFFCURVE",
"48 245 CURVE SMOOTH",
"48 373 OFFCURVE",
"142 501 OFFCURVE",
"286 501 CURVE SMOOTH",
"319 501 OFFCURVE",
"342 497 OFFCURVE",
"366 487 CURVE",
"366 497 LINE",
"464 512 LINE"
);
},
{
closed = 1;
nodes = (
"344 397 OFFCURVE",
"317 406 OFFCURVE",
"291 406 CURVE SMOOTH",
"203 406 OFFCURVE",
"138 332 OFFCURVE",
"138 243 CURVE SMOOTH",
"138 189 OFFCURVE",
"170 104 OFFCURVE",
"246 104 CURVE SMOOTH",
"299 105 OFFCURVE",
"362 136 OFFCURVE",
"362 266 CURVE SMOOTH",
"362 386 LINE"
);
},
{
closed = 1;
nodes = (
"125 585 LINE",
"296 720 LINE",
"444 580 LINE",
"380 521 LINE",
"290 602 LINE",
"184 520 LINE"
);
}
);
userData = {
com.fontlab.hintData = {
hhints = (
{
position = -168;
width = 96;
},
{
position = 10;
width = 94;
},
{
position = 406;
width = 95;
}
);
vhints = (
{
position = 48;
width = 90;
},
{
position = 362;
width = 102;
},
{
position = 362;
width = 91;
}
);
};
};
width = 548;
}
);
unicode = 011D;
},
{
glyphname = h;
layers = (
{
layerId = master01;
paths = (
{
closed = 1;
nodes = (
"158 12 LINE",
"61 -5 LINE",
"61 661 LINE",
"158 679 LINE",
"158 409 LINE",
"198 463 OFFCURVE",
"254 505 OFFCURVE",
"315 505 CURVE SMOOTH",
"429 505 OFFCURVE",
"459 386 OFFCURVE",
"459 152 CURVE SMOOTH",
"459 94 OFFCURVE",
"458 28 OFFCURVE",
"457 12 CURVE",
"361 -5 LINE",
"362 8 OFFCURVE",
"365 85 OFFCURVE",
"365 146 CURVE SMOOTH",
"365 315 OFFCURVE",
"352 407 OFFCURVE",
"303 407 CURVE SMOOTH",
"247 407 OFFCURVE",
"183 300 OFFCURVE",
"169 272 CURVE SMOOTH",
"160 252 OFFCURVE",
"158 228 OFFCURVE",
"158 201 CURVE SMOOTH"
);
}
);
userData = {
com.fontlab.hintData = {
hhints = (
{
position = 407;
width = 98;
}
);
vhints = (
{
position = 61;
width = 97;
},
{
position = 365;
width = 94;
}
);
};
};
width = 530;
}
);
unicode = 0068;
},
{
glyphname = hcircumflex;
layers = (
{
layerId = master01;
paths = (
{
closed = 1;
nodes = (
"158 12 LINE",
"61 -5 LINE",
"61 661 LINE",
"158 679 LINE",
"158 409 LINE",
"198 463 OFFCURVE",
"254 505 OFFCURVE",
"315 505 CURVE SMOOTH",
"429 505 OFFCURVE",
"459 386 OFFCURVE",
"459 152 CURVE SMOOTH",
"459 94 OFFCURVE",
"458 28 OFFCURVE",
"457 12 CURVE",
"361 -5 LINE",
"362 8 OFFCURVE",
"365 85 OFFCURVE",
"365 146 CURVE SMOOTH",
"365 315 OFFCURVE",
"352 407 OFFCURVE",
"303 407 CURVE SMOOTH",
"247 407 OFFCURVE",
"183 300 OFFCURVE",
"169 272 CURVE SMOOTH",
"160 252 OFFCURVE",
"158 228 OFFCURVE",
"158 201 CURVE SMOOTH"
);
},
{
closed = 1;
nodes = (
"103 756 LINE",
"277 895 LINE",
"429 751 LINE",
"363 691 LINE",
"271 773 LINE",
"163 690 LINE"
);
}
);
userData = {
com.fontlab.hintData = {
hhints = (
{
position = 407;
width = 98;
},
{
position = 690;
width = 21;
}
);
vhints = (
{
position = 61;
width = 97;
},
{
position = 365;
width = 94;
}
);
};
};
width = 530;
}
);
unicode = 0125;
},
{
glyphname = i;
layers = (
{
layerId = master01;
paths = (
{
closed = 1;
nodes = (
"165 505 LINE",
"165 12 LINE",
"66 -5 LINE",
"66 489 LINE"
);
},
{
closed = 1;
nodes = (
"162 555 LINE",
"64 538 LINE",
"73 660 LINE",
"170 677 LINE"
);
}
);
userData = {
com.fontlab.hintData = {
vhints = (
{
position = 66;
width = 99;
}
);
};
};
width = 247;
}
);
unicode = 0069;
},
{
glyphname = iacute;
layers = (
{
layerId = master01;
paths = (
{
closed = 1;
nodes = (
"190 731 LINE",
"274 658 LINE",
"88 540 LINE",
"17 600 LINE"
);
},
{
closed = 1;
nodes = (
"166 505 LINE",
"166 12 LINE",
"67 -5 LINE",
"67 489 LINE"
);
}
);
userData = {
com.fontlab.hintData = {
vhints = (
{
position = 67;
width = 99;
}
);
};
};
width = 259;
}
);
unicode = 00ED;
},
{
glyphname = icircumflex;
layers = (
{
layerId = master01;
paths = (
{
closed = 1;
nodes = (
"-6 585 LINE",
"163 720 LINE",
"311 580 LINE",
"247 521 LINE",
"157 602 LINE",
"52 520 LINE"
);
},
{
closed = 1;
nodes = (
"197 505 LINE",
"197 12 LINE",
"97 -5 LINE",
"97 489 LINE"
);
}
);
userData = {
com.fontlab.hintData = {
vhints = (
{
position = 97;
width = 100;
}
);
};
};
width = 300;
}
);
unicode = 00EE;
},
{
glyphname = idieresis;
layers = (
{
layerId = master01;
paths = (
{
closed = 1;
nodes = (
"121 561 LINE",
"6 546 LINE",
"20 658 LINE",
"133 672 LINE"
);
},
{
closed = 1;
nodes = (
"287 561 LINE",
"172 546 LINE",
"186 658 LINE",
"298 672 LINE"
);
},
{
closed = 1;
nodes = (
"192 505 LINE",
"192 12 LINE",
"93 -5 LINE",
"93 489 LINE"
);
}
);
userData = {
com.fontlab.hintData = {
vhints = (
{
position = 93;
width = 99;
}
);
};
};
width = 300;
}
);
unicode = 00EF;
},
{
glyphname = igrave;
layers = (
{
layerId = master01;
paths = (
{
closed = 1;
nodes = (
"153 530 LINE",
"-8 682 LINE",
"89 737 LINE",
"234 579 LINE"
);
},
{
closed = 1;
nodes = (
"176 505 LINE",
"176 12 LINE",
"76 -5 LINE",
"76 489 LINE"
);
}
);
userData = {
com.fontlab.hintData = {
vhints = (
{
position = 76;
width = 100;
}
);
};
};
width = 271;
}
);
unicode = 00EC;
},
{
glyphname = j;
layers = (
{
layerId = master01;
paths = (
{
closed = 1;
nodes = (
"258 562 LINE",
"160 546 LINE",
"168 668 LINE",
"268 684 LINE"
);
},
{
closed = 1;
nodes = (
"46 50 LINE",
"61 13 OFFCURVE",
"101 -72 OFFCURVE",
"132 -72 CURVE SMOOTH",
"158 -72 OFFCURVE",
"168 -31 OFFCURVE",
"168 18 CURVE SMOOTH",
"168 34 OFFCURVE",
"166 260 OFFCURVE",
"162 499 CURVE",
"259 517 LINE",
"263 275 OFFCURVE",
"266 38 OFFCURVE",
"266 23 CURVE SMOOTH",
"266 -52 OFFCURVE",
"232 -164 OFFCURVE",
"129 -164 CURVE SMOOTH",
"24 -164 OFFCURVE",
"-42 11 OFFCURVE",
"-50 30 CURVE"
);
}
);
userData = {
com.fontlab.hintData = {
hhints = (
{
position = -164;
width = 92;
}
);
vhints = (
{
position = 162;
width = 97;
},
{
position = 168;
width = 98;
}
);
};
};
width = 339;
}
);
unicode = 006A;
},
{
glyphname = jcircumflex;
layers = (
{
layerId = master01;
paths = (
{
closed = 1;
nodes = (
"46 50 LINE",
"61 13 OFFCURVE",
"101 -72 OFFCURVE",
"132 -72 CURVE SMOOTH",
"158 -72 OFFCURVE",
"168 -31 OFFCURVE",
"168 18 CURVE SMOOTH",
"168 34 OFFCURVE",
"166 260 OFFCURVE",
"162 499 CURVE",
"259 517 LINE",
"263 275 OFFCURVE",
"266 38 OFFCURVE",
"266 23 CURVE SMOOTH",
"266 -52 OFFCURVE",
"232 -164 OFFCURVE",
"129 -164 CURVE SMOOTH",
"24 -164 OFFCURVE",
"-42 11 OFFCURVE",
"-50 30 CURVE"
);
},
{
closed = 1;
nodes = (
"50 585 LINE",
"221 720 LINE",
"369 580 LINE",
"305 521 LINE",
"215 602 LINE",
"109 520 LINE"
);
}
);
userData = {
com.fontlab.hintData = {
hhints = (
{
position = -164;
width = 92;
}
);
vhints = (
{
position = 162;
width = 97;
},
{
position = 168;
width = 98;
}
);
};
};
width = 339;
}
);
unicode = 0135;
},
{
glyphname = k;
layers = (
{
layerId = master01;
paths = (
{
closed = 1;
nodes = (
"424 430 OFFCURVE",
"340 336 OFFCURVE",
"292 291 CURVE",
"478 54 LINE",
"403 -11 LINE",
"337 87 OFFCURVE",
"263 183 OFFCURVE",
"219 233 CURVE",
"160 193 LINE",
"161 12 LINE",
"63 -5 LINE",
"62 662 LINE",
"159 679 LINE",
"160 300 LINE",
"223 354 OFFCURVE",
"325 458 OFFCURVE",
"388 539 CURVE",
"465 484 LINE"
);
}
);
userData = {
com.fontlab.hintData = {
vhints = (
{
position = 63;
width = 97;
}
);
};
};
width = 520;
}
);
unicode = 006B;
},
{
glyphname = l;
layers = (
{
layerId = master01;
paths = (
{
closed = 1;
nodes = (
"170 679 LINE",
"170 12 LINE",
"74 -5 LINE",
"74 661 LINE"
);
}
);
userData = {
com.fontlab.hintData = {
vhints = (
{
position = 74;
width = 96;
}
);
};
};
width = 252;
}
);
unicode = 006C;
},
{
glyphname = lacute;
layers = (
{
layerId = master01;
paths = (
{
closed = 1;
nodes = (
"193 885 LINE",
"277 812 LINE",
"91 694 LINE",
"20 754 LINE"
);
},
{
closed = 1;
nodes = (
"170 679 LINE",
"170 12 LINE",
"74 -5 LINE",
"74 661 LINE"
);
}
);
userData = {
com.fontlab.hintData = {
vhints = (
{
position = 74;
width = 96;
}
);
};
};
width = 252;
}
);
unicode = 013A;
},
{
glyphname = lcaron;
layers = (
{
layerId = master01;
paths = (
{
closed = 1;
nodes = (
"159 679 LINE",
"159 12 LINE",
"68 -5 LINE",
"68 661 LINE"
);
},
{
closed = 1;
nodes = (
"351 627 LINE",
"254 437 LINE",
"180 485 LINE",
"229 571 LINE",
"186 595 LINE",
"261 682 LINE"
);
}
);
userData = {
com.fontlab.hintData = {
vhints = (
{
position = 68;
width = 91;
}
);
};
};
width = 316;
}
);
unicode = 013E;
},
{
glyphname = lslash;
layers = (
{
layerId = master01;
paths = (
{
closed = 1;
nodes = (
"188 310 LINE",
"188 12 LINE",
"92 -5 LINE",
"92 248 LINE",
"60 228 LINE",
"4 310 LINE",
"92 365 LINE",
"92 661 LINE",
"188 679 LINE",
"188 425 LINE",
"222 447 LINE",
"274 365 LINE"
);
}
);
userData = {
com.fontlab.hintData = {
vhints = (
{
position = 92;
width = 96;
}
);
};
};
width = 292;
}
);
unicode = 0142;
},
{
glyphname = m;
layers = (
{
layerId = master01;
paths = (
{
closed = 1;
nodes = (
"165 278 OFFCURVE",
"164 262 OFFCURVE",
"164 262 CURVE",
"164 12 LINE",
"68 -5 LINE",
"68 480 LINE",
"164 497 LINE",
"164 417 LINE",
"210 471 OFFCURVE",
"260 510 OFFCURVE",
"316 510 CURVE SMOOTH",
"363 510 OFFCURVE",
"414 495 OFFCURVE",
"443 432 CURVE",
"487 479 OFFCURVE",
"545 510 OFFCURVE",
"591 510 CURVE SMOOTH",
"657 510 OFFCURVE",
"738 477 OFFCURVE",
"738 319 CURVE SMOOTH",
"738 12 LINE",
"641 -5 LINE",
"641 326 LINE SMOOTH",
"641 411 OFFCURVE",
"602 420 OFFCURVE",
"581 420 CURVE SMOOTH",
"538 420 OFFCURVE",
"463 358 OFFCURVE",
"463 269 CURVE SMOOTH",
"463 12 LINE",
"366 -5 LINE",
"366 326 LINE SMOOTH",
"366 411 OFFCURVE",
"327 420 OFFCURVE",
"306 420 CURVE SMOOTH",
"274 420 OFFCURVE",
"228 381 OFFCURVE",
"172 289 CURVE SMOOTH"
);
}
);
userData = {
com.fontlab.hintData = {
hhints = (
{
position = 420;
width = 90;
}
);
vhints = (
{
position = 68;
width = 96;
},
{
position = 366;
width = 97;
},
{
position = 641;
width = 97;
}
);
};
};
width = 843;
}
);
unicode = 006D;
},
{
glyphname = n;
layers = (
{
layerId = master01;
paths = (
{
closed = 1;
nodes = (
"381 157 LINE SMOOTH",
"381 245 OFFCURVE",
"381 309 OFFCURVE",
"370 352 CURVE SMOOTH",
"362 384 OFFCURVE",
"345 406 OFFCURVE",
"320 406 CURVE SMOOTH",
"288 406 OFFCURVE",
"247 394 OFFCURVE",
"205 319 CURVE",
"178 266 OFFCURVE",
"158 193 OFFCURVE",
"158 135 CURVE SMOOTH",
"157 13 LINE",
"62 -5 LINE",
"62 489 LINE",
"158 507 LINE",
"158 408 LINE",
"197 464 OFFCURVE",
"256 501 OFFCURVE",
"322 501 CURVE SMOOTH",
"395 501 OFFCURVE",
"441 463 OFFCURVE",
"460 386 CURVE SMOOTH",
"474 326 OFFCURVE",
"474 249 OFFCURVE",
"475 127 CURVE SMOOTH",
"476 15 LINE",
"381 -5 LINE"
);
}
);
userData = {
com.fontlab.hintData = {
hhints = (
{
position = 406;
width = 95;
}
);
vhints = (
{
position = 62;
width = 96;
},
{
position = 381;
width = 95;
}
);
};
};
width = 562;
}
);
unicode = 006E;
},
{
glyphname = nacute;
layers = (
{
layerId = master01;
paths = (
{
closed = 1;
nodes = (
"346 731 LINE",
"430 658 LINE",
"244 540 LINE",
"173 600 LINE"
);
},
{
closed = 1;
nodes = (
"381 157 LINE SMOOTH",
"381 245 OFFCURVE",
"381 309 OFFCURVE",
"370 352 CURVE SMOOTH",
"362 384 OFFCURVE",
"345 406 OFFCURVE",
"320 406 CURVE SMOOTH",
"288 406 OFFCURVE",
"247 394 OFFCURVE",
"205 319 CURVE",
"178 266 OFFCURVE",
"158 193 OFFCURVE",
"158 135 CURVE SMOOTH",
"157 13 LINE",
"62 -5 LINE",
"62 489 LINE",
"158 507 LINE",
"158 408 LINE",
"197 464 OFFCURVE",
"256 501 OFFCURVE",
"322 501 CURVE SMOOTH",
"395 501 OFFCURVE",
"441 463 OFFCURVE",
"460 386 CURVE SMOOTH",
"474 326 OFFCURVE",
"474 249 OFFCURVE",
"475 127 CURVE SMOOTH",
"476 15 LINE",
"381 -5 LINE"
);
}
);
userData = {
com.fontlab.hintData = {
hhints = (
{
position = 406;
width = 95;
}
);
vhints = (
{
position = 62;
width = 96;
},
{
position = 381;
width = 95;
}
);
};
};
width = 562;
}
);
unicode = 0144;
},
{
glyphname = ncaron;
layers = (
{
layerId = master01;
paths = (
{
closed = 1;
nodes = (
"453 652 LINE",
"283 532 LINE",
"135 657 LINE",
"199 722 LINE",
"288 639 LINE",
"396 722 LINE"
);
},
{
closed = 1;
nodes = (
"381 157 LINE SMOOTH",
"381 245 OFFCURVE",
"381 309 OFFCURVE",
"370 352 CURVE SMOOTH",
"362 384 OFFCURVE",
"345 406 OFFCURVE",
"320 406 CURVE SMOOTH",
"288 406 OFFCURVE",
"247 394 OFFCURVE",
"205 319 CURVE",
"178 266 OFFCURVE",
"158 193 OFFCURVE",
"158 135 CURVE SMOOTH",
"157 13 LINE",
"62 -5 LINE",
"62 489 LINE",
"158 507 LINE",
"158 408 LINE",
"197 464 OFFCURVE",
"256 501 OFFCURVE",
"322 501 CURVE SMOOTH",
"395 501 OFFCURVE",
"441 463 OFFCURVE",
"460 386 CURVE SMOOTH",
"474 326 OFFCURVE",
"474 249 OFFCURVE",
"475 127 CURVE SMOOTH",
"476 15 LINE",
"381 -5 LINE"
);
}
);
userData = {
com.fontlab.hintData = {
hhints = (
{
position = 406;
width = 95;
}
);
vhints = (
{
position = 62;
width = 96;
},
{
position = 381;
width = 95;
}
);
};
};
width = 562;
}
);
unicode = 0148;
},
{
glyphname = ntilde;
layers = (
{
layerId = master01;
paths = (
{
closed = 1;
nodes = (
"486 669 LINE",
"475 638 OFFCURVE",
"441 536 OFFCURVE",
"340 536 CURVE SMOOTH",
"308 536 OFFCURVE",
"281 553 OFFCURVE",
"259 584 CURVE SMOOTH",
"243 607 OFFCURVE",
"232 619 OFFCURVE",
"217 619 CURVE SMOOTH",
"182 619 OFFCURVE",
"162 563 OFFCURVE",
"160 551 CURVE",
"95 584 LINE",
"111 640 OFFCURVE",
"151 708 OFFCURVE",
"229 708 CURVE SMOOTH",
"268 708 OFFCURVE",
"294 691 OFFCURVE",
"316 660 CURVE SMOOTH",
"332 638 OFFCURVE",
"343 624 OFFCURVE",
"358 624 CURVE SMOOTH",
"379 624 OFFCURVE",
"405 647 OFFCURVE",
"419 701 CURVE"
);
},
{
closed = 1;
nodes = (
"381 157 LINE SMOOTH",
"381 245 OFFCURVE",
"381 309 OFFCURVE",
"370 352 CURVE SMOOTH",
"362 384 OFFCURVE",
"345 406 OFFCURVE",
"320 406 CURVE SMOOTH",
"288 406 OFFCURVE",
"247 394 OFFCURVE",
"205 319 CURVE",
"178 266 OFFCURVE",
"158 193 OFFCURVE",
"158 135 CURVE SMOOTH",
"157 13 LINE",
"62 -5 LINE",
"62 489 LINE",
"158 507 LINE",
"158 408 LINE",
"197 464 OFFCURVE",
"256 501 OFFCURVE",
"322 501 CURVE SMOOTH",
"395 501 OFFCURVE",
"441 463 OFFCURVE",
"460 386 CURVE SMOOTH",
"474 326 OFFCURVE",
"474 249 OFFCURVE",
"475 127 CURVE SMOOTH",
"476 15 LINE",
"381 -5 LINE"
);
}
);
userData = {
com.fontlab.hintData = {
hhints = (
{
position = 406;
width = 95;
},
{
position = 536;
width = 88;
},
{
position = 619;
width = 89;
}
);
vhints = (
{
position = 62;
width = 96;
},
{
position = 381;
width = 95;
}
);
};
};
width = 562;
}
);
unicode = 00F1;
},
{
glyphname = o;
layers = (
{
layerId = master01;
paths = (
{
closed = 1;
nodes = (
"137 0 OFFCURVE",
"48 105 OFFCURVE",
"48 232 CURVE SMOOTH",
"48 377 OFFCURVE",
"155 500 OFFCURVE",
"282 500 CURVE SMOOTH",
"399 500 OFFCURVE",
"489 393 OFFCURVE",
"489 268 CURVE SMOOTH",
"489 122 OFFCURVE",
"382 0 OFFCURVE",
"254 0 CURVE SMOOTH"
);
},
{
closed = 1;
nodes = (
"206 411 OFFCURVE",
"145 328 OFFCURVE",
"145 234 CURVE SMOOTH",
"145 156 OFFCURVE",
"189 89 OFFCURVE",
"254 89 CURVE SMOOTH",
"325 89 OFFCURVE",
"391 170 OFFCURVE",
"391 264 CURVE SMOOTH",
"391 343 OFFCURVE",
"341 411 OFFCURVE",
"278 411 CURVE SMOOTH"
);
}
);
userData = {
com.fontlab.hintData = {
hhints = (
{
position = 0;
width = 89;
},
{
position = 411;
width = 89;
}
);
vhints = (
{
position = 48;
width = 97;
},
{
position = 391;
width = 98;
}
);
};
};
width = 561;
}
);
unicode = 006F;
},
{
glyphname = oacute;
layers = (
{
layerId = master01;
paths = (
{
closed = 1;
nodes = (
"356 731 LINE",
"440 658 LINE",
"254 540 LINE",
"183 600 LINE"
);
},
{
closed = 1;
nodes = (
"137 0 OFFCURVE",
"48 105 OFFCURVE",
"48 232 CURVE SMOOTH",
"48 377 OFFCURVE",
"155 500 OFFCURVE",
"282 500 CURVE SMOOTH",
"399 500 OFFCURVE",
"489 393 OFFCURVE",
"489 268 CURVE SMOOTH",
"489 122 OFFCURVE",
"382 0 OFFCURVE",
"254 0 CURVE SMOOTH"
);
},
{
closed = 1;
nodes = (
"206 411 OFFCURVE",
"145 328 OFFCURVE",
"145 234 CURVE SMOOTH",
"145 156 OFFCURVE",
"189 89 OFFCURVE",
"254 89 CURVE SMOOTH",
"325 89 OFFCURVE",
"391 170 OFFCURVE",
"391 264 CURVE SMOOTH",
"391 343 OFFCURVE",
"341 411 OFFCURVE",
"278 411 CURVE SMOOTH"
);
}
);
userData = {
com.fontlab.hintData = {
hhints = (
{
position = 0;
width = 89;
},
{
position = 411;
width = 89;
}
);
vhints = (
{
position = 48;
width = 97;
},
{
position = 391;
width = 98;
}
);
};
};
width = 561;
}
);
unicode = 00F3;
},
{
glyphname = ocircumflex;
layers = (
{
layerId = master01;
paths = (
{
closed = 1;
nodes = (
"129 585 LINE",
"298 720 LINE",
"446 580 LINE",
"382 521 LINE",
"292 602 LINE",
"187 520 LINE"
);
},
{
closed = 1;
nodes = (
"137 0 OFFCURVE",
"48 105 OFFCURVE",
"48 232 CURVE SMOOTH",
"48 377 OFFCURVE",
"155 500 OFFCURVE",
"282 500 CURVE SMOOTH",
"399 500 OFFCURVE",
"489 393 OFFCURVE",
"489 268 CURVE SMOOTH",
"489 122 OFFCURVE",
"382 0 OFFCURVE",
"254 0 CURVE SMOOTH"
);
},
{
closed = 1;
nodes = (
"206 411 OFFCURVE",
"145 328 OFFCURVE",
"145 234 CURVE SMOOTH",
"145 156 OFFCURVE",
"189 89 OFFCURVE",
"254 89 CURVE SMOOTH",
"325 89 OFFCURVE",
"391 170 OFFCURVE",
"391 264 CURVE SMOOTH",
"391 343 OFFCURVE",
"341 411 OFFCURVE",
"278 411 CURVE SMOOTH"
);
}
);
userData = {
com.fontlab.hintData = {
hhints = (
{
position = 0;
width = 89;
},
{
position = 411;
width = 89;
}
);
vhints = (
{
position = 48;
width = 97;
},
{
position = 391;
width = 98;
}
);
};
};
width = 561;
}
);
unicode = 00F4;
},
{
glyphname = odieresis;
layers = (
{
layerId = master01;
paths = (
{
closed = 1;
nodes = (
"261 561 LINE",
"146 546 LINE",
"160 658 LINE",
"272 672 LINE"
);
},
{
closed = 1;
nodes = (
"426 561 LINE",
"312 546 LINE",
"325 658 LINE",
"438 672 LINE"
);
},
{
closed = 1;
nodes = (
"137 0 OFFCURVE",
"48 105 OFFCURVE",
"48 232 CURVE SMOOTH",
"48 377 OFFCURVE",
"155 500 OFFCURVE",
"282 500 CURVE SMOOTH",
"399 500 OFFCURVE",
"489 393 OFFCURVE",
"489 268 CURVE SMOOTH",
"489 122 OFFCURVE",
"382 0 OFFCURVE",
"254 0 CURVE SMOOTH"
);
},
{
closed = 1;
nodes = (
"206 411 OFFCURVE",
"145 328 OFFCURVE",
"145 234 CURVE SMOOTH",
"145 156 OFFCURVE",
"189 89 OFFCURVE",
"254 89 CURVE SMOOTH",
"325 89 OFFCURVE",
"391 170 OFFCURVE",
"391 264 CURVE SMOOTH",
"391 343 OFFCURVE",
"341 411 OFFCURVE",
"278 411 CURVE SMOOTH"
);
}
);
userData = {
com.fontlab.hintData = {
hhints = (
{
position = 0;
width = 89;
},
{
position = 411;
width = 89;
}
);
vhints = (
{
position = 48;
width = 97;
},
{
position = 391;
width = 98;
}
);
};
};
width = 561;
}
);
unicode = 00F6;
},
{
glyphname = ograve;
layers = (
{
layerId = master01;
paths = (
{
closed = 1;
nodes = (
"314 530 LINE",
"153 682 LINE",
"251 737 LINE",
"395 579 LINE"
);
},
{
closed = 1;
nodes = (
"137 0 OFFCURVE",
"48 105 OFFCURVE",
"48 232 CURVE SMOOTH",
"48 377 OFFCURVE",
"155 500 OFFCURVE",
"282 500 CURVE SMOOTH",
"399 500 OFFCURVE",
"489 393 OFFCURVE",
"489 268 CURVE SMOOTH",
"489 122 OFFCURVE",
"382 0 OFFCURVE",
"254 0 CURVE SMOOTH"
);
},
{
closed = 1;
nodes = (
"206 411 OFFCURVE",
"145 328 OFFCURVE",
"145 234 CURVE SMOOTH",
"145 156 OFFCURVE",
"189 89 OFFCURVE",
"254 89 CURVE SMOOTH",
"325 89 OFFCURVE",
"391 170 OFFCURVE",
"391 264 CURVE SMOOTH",
"391 343 OFFCURVE",
"341 411 OFFCURVE",
"278 411 CURVE SMOOTH"
);
}
);
userData = {
com.fontlab.hintData = {
hhints = (
{
position = 0;
width = 89;
},
{
position = 411;
width = 89;
}
);
vhints = (
{
position = 48;
width = 97;
},
{
position = 391;
width = 98;
}
);
};
};
width = 561;
}
);
unicode = 00F2;
},
{
glyphname = ohungarumlaut;
layers = (
{
layerId = master01;
paths = (
{
closed = 1;
nodes = (
"138 0 OFFCURVE",
"49 105 OFFCURVE",
"49 232 CURVE SMOOTH",
"49 377 OFFCURVE",
"156 500 OFFCURVE",
"283 500 CURVE SMOOTH",
"400 500 OFFCURVE",
"490 393 OFFCURVE",
"490 268 CURVE SMOOTH",
"490 122 OFFCURVE",
"382 0 OFFCURVE",
"255 0 CURVE SMOOTH"
);
},
{
closed = 1;
nodes = (
"207 411 OFFCURVE",
"146 328 OFFCURVE",
"146 234 CURVE SMOOTH",
"146 156 OFFCURVE",
"190 89 OFFCURVE",
"255 89 CURVE SMOOTH",
"326 89 OFFCURVE",
"391 170 OFFCURVE",
"391 264 CURVE SMOOTH",
"391 343 OFFCURVE",
"341 411 OFFCURVE",
"279 411 CURVE SMOOTH"
);
},
{
closed = 1;
nodes = (
"261 731 LINE",
"337 656 LINE",
"157 535 LINE",
"84 597 LINE"
);
},
{
closed = 1;
nodes = (
"480 731 LINE",
"557 656 LINE",
"366 535 LINE",
"303 597 LINE"
);
}
);
userData = {
com.fontlab.hintData = {
hhints = (
{
position = 0;
width = 89;
},
{
position = 411;
width = 89;
}
);
vhints = (
{
position = 49;
width = 97;
},
{
position = 391;
width = 99;
}
);
};
};
width = 581;
}
);
unicode = 0151;
},
{
glyphname = oslash;
layers = (
{
layerId = master01;
paths = (
{
closed = 1;
nodes = (
"425 437 LINE",
"467 394 OFFCURVE",
"489 329 OFFCURVE",
"489 268 CURVE SMOOTH",
"489 122 OFFCURVE",
"382 0 OFFCURVE",
"254 0 CURVE SMOOTH",
"228 0 OFFCURVE",
"202 5 OFFCURVE",
"178 15 CURVE",
"146 -40 LINE",
"65 6 LINE",
"104 70 LINE",
"67 112 OFFCURVE",
"48 168 OFFCURVE",
"48 231 CURVE SMOOTH",
"48 376 OFFCURVE",
"154 500 OFFCURVE",
"282 500 CURVE SMOOTH",
"304 500 OFFCURVE",
"326 497 OFFCURVE",
"348 488 CURVE",
"383 549 LINE",
"463 503 LINE"
);
},
{
closed = 1;
nodes = (
"301 408 LINE",
"293 410 OFFCURVE",
"284 411 OFFCURVE",
"278 411 CURVE SMOOTH",
"205 411 OFFCURVE",
"145 327 OFFCURVE",
"145 232 CURVE SMOOTH",
"145 208 OFFCURVE",
"150 184 OFFCURVE",
"157 163 CURVE"
);
},
{
closed = 1;
nodes = (
"332 89 OFFCURVE",
"391 179 OFFCURVE",
"391 262 CURVE SMOOTH",
"391 291 OFFCURVE",
"383 321 OFFCURVE",
"372 346 CURVE",
"224 94 LINE",
"234 90 OFFCURVE",
"243 89 OFFCURVE",
"254 89 CURVE SMOOTH"
);
}
);
userData = {
com.fontlab.hintData = {
hhints = (
{
position = 0;
width = 89;
},
{
position = 411;
width = 89;
}
);
vhints = (
{
position = 48;
width = 97;
},
{
position = 391;
width = 98;
}
);
};
};
width = 561;
}
);
unicode = 00F8;
},
{
glyphname = otilde;
layers = (
{
layerId = master01;
paths = (
{
closed = 1;
nodes = (
"137 0 OFFCURVE",
"48 105 OFFCURVE",
"48 232 CURVE SMOOTH",
"48 377 OFFCURVE",
"155 500 OFFCURVE",
"282 500 CURVE SMOOTH",
"399 500 OFFCURVE",
"489 393 OFFCURVE",
"489 268 CURVE SMOOTH",
"489 122 OFFCURVE",
"382 0 OFFCURVE",
"254 0 CURVE SMOOTH"
);
},
{
closed = 1;
nodes = (
"206 411 OFFCURVE",
"145 328 OFFCURVE",
"145 234 CURVE SMOOTH",
"145 156 OFFCURVE",
"189 89 OFFCURVE",
"254 89 CURVE SMOOTH",
"325 89 OFFCURVE",
"391 170 OFFCURVE",
"391 264 CURVE SMOOTH",
"391 343 OFFCURVE",
"341 411 OFFCURVE",
"278 411 CURVE SMOOTH"
);
},
{
closed = 1;
nodes = (
"482 669 LINE",
"471 638 OFFCURVE",
"437 536 OFFCURVE",
"336 536 CURVE SMOOTH",
"304 536 OFFCURVE",
"277 553 OFFCURVE",
"255 584 CURVE SMOOTH",
"239 607 OFFCURVE",
"228 619 OFFCURVE",
"213 619 CURVE SMOOTH",
"178 619 OFFCURVE",
"158 563 OFFCURVE",
"156 551 CURVE",
"91 584 LINE",
"107 640 OFFCURVE",
"147 708 OFFCURVE",
"225 708 CURVE SMOOTH",
"264 708 OFFCURVE",
"290 691 OFFCURVE",
"312 660 CURVE SMOOTH",
"328 638 OFFCURVE",
"339 624 OFFCURVE",
"354 624 CURVE SMOOTH",
"375 624 OFFCURVE",
"401 647 OFFCURVE",
"415 701 CURVE"
);
}
);
userData = {
com.fontlab.hintData = {
hhints = (
{
position = 0;
width = 89;
},
{
position = 411;
width = 89;
},
{
position = 536;
width = 88;
},
{
position = 619;
width = 89;
}
);
vhints = (
{
position = 48;
width = 97;
},
{
position = 391;
width = 98;
}
);
};
};
width = 561;
}
);
unicode = 00F5;
},
{
glyphname = oe;
layers = (
{
layerId = master01;
paths = (
{
closed = 1;
nodes = (
"689 92 OFFCURVE",
"732 115 OFFCURVE",
"771 156 CURVE",
"837 93 LINE",
"781 33 OFFCURVE",
"713 0 OFFCURVE",
"648 0 CURVE SMOOTH",
"566 0 OFFCURVE",
"494 43 OFFCURVE",
"449 107 CURVE",
"406 43 OFFCURVE",
"338 0 OFFCURVE",
"263 0 CURVE SMOOTH",
"145 0 OFFCURVE",
"56 105 OFFCURVE",
"56 232 CURVE SMOOTH",
"56 377 OFFCURVE",
"164 500 OFFCURVE",
"291 500 CURVE SMOOTH",
"358 500 OFFCURVE",
"419 467 OFFCURVE",
"457 406 CURVE",
"501 465 OFFCURVE",
"569 502 OFFCURVE",
"648 502 CURVE SMOOTH",
"727 502 OFFCURVE",
"807 427 OFFCURVE",
"833 338 CURVE",
"833 338 OFFCURVE",
"621 212 OFFCURVE",
"525 158 CURVE",
"552 122 OFFCURVE",
"600 92 OFFCURVE",
"648 92 CURVE SMOOTH"
);
},
{
closed = 1;
nodes = (
"399 343 OFFCURVE",
"349 411 OFFCURVE",
"286 411 CURVE SMOOTH",
"215 411 OFFCURVE",
"154 328 OFFCURVE",
"154 234 CURVE SMOOTH",
"154 156 OFFCURVE",
"197 89 OFFCURVE",
"263 89 CURVE SMOOTH",
"332 89 OFFCURVE",
"399 171 OFFCURVE",
"399 264 CURVE SMOOTH"
);
},
{
closed = 1;
nodes = (
"722 375 LINE",
"703 396 OFFCURVE",
"674 410 OFFCURVE",
"648 410 CURVE SMOOTH",
"558 410 OFFCURVE",
"497 334 OFFCURVE",
"497 247 CURVE"
);
}
);
userData = {
com.fontlab.hintData = {
hhints = (
{
position = 0;
width = 92;
},
{
position = 411;
width = 89;
}
);
vhints = (
{
position = 56;
width = 98;
},
{
position = 399;
width = 98;
}
);
};
};
width = 937;
}
);
unicode = 0153;
},
{
glyphname = p;
layers = (
{
layerId = master01;
paths = (
{
closed = 1;
nodes = (
"306 497 LINE",
"421 492 OFFCURVE",
"473 373 OFFCURVE",
"473 268 CURVE SMOOTH",
"473 136 OFFCURVE",
"414 6 OFFCURVE",
"255 6 CURVE SMOOTH",
"219 6 OFFCURVE",
"186 13 OFFCURVE",
"158 22 CURVE",
"158 -164 LINE",
"61 -180 LINE",
"61 486 LINE",
"158 504 LINE",
"158 458 LINE",
"202 481 OFFCURVE",
"241 497 OFFCURVE",
"305 497 CURVE"
);
},
{
closed = 1;
nodes = (
"350 103 OFFCURVE",
"383 179 OFFCURVE",
"383 268 CURVE SMOOTH",
"383 323 OFFCURVE",
"358 407 OFFCURVE",
"291 407 CURVE SMOOTH",
"221 407 OFFCURVE",
"176 366 OFFCURVE",
"158 343 CURVE",
"158 126 LINE",
"181 117 OFFCURVE",
"221 103 OFFCURVE",
"258 103 CURVE SMOOTH"
);
}
);
userData = {
com.fontlab.hintData = {
hhints = (
{
position = 6;
width = 97;
},
{
position = 407;
width = 90;
}
);
vhints = (
{
position = 61;
width = 97;
},
{
position = 383;
width = 90;
}
);
};
};
width = 544;
}
);
unicode = 0070;
},
{
glyphname = thorn;
layers = (
{
layerId = master01;
paths = (
{
closed = 1;
nodes = (
"439 490 OFFCURVE",
"483 371 OFFCURVE",
"483 266 CURVE SMOOTH",
"483 213 OFFCURVE",
"475 0 OFFCURVE",
"261 0 CURVE SMOOTH",
"225 0 OFFCURVE",
"187 7 OFFCURVE",
"158 15 CURVE",
"158 -173 LINE",
"62 -156 LINE",
"62 660 LINE",
"158 678 LINE",
"158 447 LINE",
"194 472 OFFCURVE",
"245 490 OFFCURVE",
"301 490 CURVE SMOOTH"
);
},
{
closed = 1;
nodes = (
"352 95 OFFCURVE",
"389 164 OFFCURVE",
"389 266 CURVE SMOOTH",
"389 313 OFFCURVE",
"372 394 OFFCURVE",
"304 394 CURVE SMOOTH",
"220 394 OFFCURVE",
"158 346 OFFCURVE",
"158 286 CURVE SMOOTH",
"158 111 LINE",
"179 104 OFFCURVE",
"217 95 OFFCURVE",
"254 95 CURVE SMOOTH"
);
}
);
userData = {
com.fontlab.hintData = {
hhints = (
{
position = 0;
width = 95;
},
{
position = 394;
width = 96;
}
);
vhints = (
{
position = 62;
width = 96;
},
{
position = 389;
width = 94;
}
);
};
};
width = 554;
}
);
unicode = 00FE;
},
{
glyphname = q;
layers = (
{
layerId = master01;
paths = (
{
closed = 1;
nodes = (
"336 497 OFFCURVE",
"352 496 OFFCURVE",
"367 494 CURVE",
"368 509 LINE",
"465 507 LINE",
"441 -166 LINE",
"345 -183 LINE",
"352 14 LINE",
"324 -3 OFFCURVE",
"303 -9 OFFCURVE",
"258 -9 CURVE SMOOTH",
"137 -9 OFFCURVE",
"47 89 OFFCURVE",
"47 214 CURVE SMOOTH",
"47 394 OFFCURVE",
"165 497 OFFCURVE",
"322 497 CURVE SMOOTH"
);
},
{
closed = 1;
nodes = (
"366 402 LINE",
"350 404 OFFCURVE",
"335 405 OFFCURVE",
"322 405 CURVE SMOOTH",
"215 405 OFFCURVE",
"139 339 OFFCURVE",
"139 214 CURVE SMOOTH",
"139 138 OFFCURVE",
"190 84 OFFCURVE",
"257 84 CURVE SMOOTH",
"316 84 OFFCURVE",
"355 116 OFFCURVE",
"358 172 CURVE"
);
}
);
userData = {
com.fontlab.hintData = {
hhints = (
{
position = -183;
width = 21;
},
{
position = -9;
width = 93;
},
{
position = 405;
width = 92;
}
);
vhints = (
{
position = 47;
width = 92;
},
{
position = 345;
width = 96;
},
{
position = 366;
width = 99;
}
);
};
};
width = 549;
}
);
unicode = 0071;
},
{
glyphname = r;
layers = (
{
layerId = master01;
paths = (
{
closed = 1;
nodes = (
"387 356 LINE",
"291 340 LINE",
"291 387 LINE SMOOTH",
"291 395 OFFCURVE",
"286 407 OFFCURVE",
"273 407 CURVE SMOOTH",
"218 407 OFFCURVE",
"156 328 OFFCURVE",
"156 252 CURVE SMOOTH",
"156 12 LINE",
"59 -5 LINE",
"59 489 LINE",
"156 507 LINE",
"156 435 LINE",
"189 471 OFFCURVE",
"235 502 OFFCURVE",
"289 502 CURVE SMOOTH",
"345 502 OFFCURVE",
"387 463 OFFCURVE",
"387 415 CURVE SMOOTH"
);
}
);
userData = {
com.fontlab.hintData = {
hhints = (
{
position = 407;
width = 95;
}
);
vhints = (
{
position = 59;
width = 97;
},
{
position = 291;
width = 96;
}
);
};
};
width = 427;
}
);
unicode = 0072;
},
{
glyphname = racute;
layers = (
{
layerId = master01;
paths = (
{
closed = 1;
nodes = (
"281 731 LINE",
"365 658 LINE",
"179 540 LINE",
"108 600 LINE"
);
},
{
closed = 1;
nodes = (
"387 356 LINE",
"291 340 LINE",
"291 387 LINE SMOOTH",
"291 395 OFFCURVE",
"286 407 OFFCURVE",
"273 407 CURVE SMOOTH",
"218 407 OFFCURVE",
"156 328 OFFCURVE",
"156 252 CURVE SMOOTH",
"156 12 LINE",
"59 -5 LINE",
"59 489 LINE",
"156 507 LINE",
"156 435 LINE",
"189 471 OFFCURVE",
"235 502 OFFCURVE",
"289 502 CURVE SMOOTH",
"345 502 OFFCURVE",
"387 463 OFFCURVE",
"387 415 CURVE SMOOTH"
);
}
);
userData = {
com.fontlab.hintData = {
hhints = (
{
position = 407;
width = 95;
}
);
vhints = (
{
position = 59;
width = 97;
},
{
position = 291;
width = 96;
}
);
};
};
width = 427;
}
);
unicode = 0155;
},
{
glyphname = rcaron;
layers = (
{
layerId = master01;
paths = (
{
closed = 1;
nodes = (
"397 652 LINE",
"227 532 LINE",
"79 657 LINE",
"142 722 LINE",
"231 639 LINE",
"340 722 LINE"
);
},
{
closed = 1;
nodes = (
"387 356 LINE",
"291 340 LINE",
"291 387 LINE SMOOTH",
"291 395 OFFCURVE",
"286 407 OFFCURVE",
"273 407 CURVE SMOOTH",
"218 407 OFFCURVE",
"156 328 OFFCURVE",
"156 252 CURVE SMOOTH",
"156 12 LINE",
"59 -5 LINE",
"59 489 LINE",
"156 507 LINE",
"156 435 LINE",
"189 471 OFFCURVE",
"235 502 OFFCURVE",
"289 502 CURVE SMOOTH",
"345 502 OFFCURVE",
"387 463 OFFCURVE",
"387 415 CURVE SMOOTH"
);
}
);
userData = {
com.fontlab.hintData = {
hhints = (
{
position = 407;
width = 95;
}
);
vhints = (
{
position = 59;
width = 97;
},
{
position = 291;
width = 96;
}
);
};
};
width = 428;
}
);
unicode = 0159;
},
{
glyphname = s;
layers = (
{
layerId = master01;
paths = (
{
closed = 1;
nodes = (
"155 239 OFFCURVE",
"71 275 OFFCURVE",
"71 365 CURVE SMOOTH",
"71 481 OFFCURVE",
"177 505 OFFCURVE",
"254 505 CURVE SMOOTH",
"314 505 OFFCURVE",
"416 484 OFFCURVE",
"416 384 CURVE SMOOTH",
"416 376 OFFCURVE",
"416 369 OFFCURVE",
"412 347 CURVE",
"319 329 LINE",
"326 349 OFFCURVE",
"326 364 OFFCURVE",
"326 372 CURVE SMOOTH",
"326 406 OFFCURVE",
"286 417 OFFCURVE",
"254 417 CURVE SMOOTH",
"187 416 OFFCURVE",
"169 391 OFFCURVE",
"169 366 CURVE SMOOTH",
"169 340 OFFCURVE",
"197 326 OFFCURVE",
"253 310 CURVE SMOOTH",
"364 279 OFFCURVE",
"418 229 OFFCURVE",
"418 155 CURVE SMOOTH",
"418 33 OFFCURVE",
"295 0 OFFCURVE",
"236 0 CURVE SMOOTH",
"151 0 OFFCURVE",
"67 55 OFFCURVE",
"40 151 CURVE",
"134 167 LINE",
"150 116 OFFCURVE",
"194 91 OFFCURVE",
"236 91 CURVE SMOOTH",
"289 91 OFFCURVE",
"322 116 OFFCURVE",
"322 146 CURVE SMOOTH",
"322 186 OFFCURVE",
"281 205 OFFCURVE",
"230 219 CURVE SMOOTH"
);
}
);
userData = {
com.fontlab.hintData = {
hhints = (
{
position = 0;
width = 91;
},
{
position = 417;
width = 88;
}
);
vhints = (
{
position = 71;
width = 98;
},
{
position = 322;
width = 96;
}
);
};
};
width = 486;
}
);
unicode = 0073;
},
{
glyphname = sacute;
layers = (
{
layerId = master01;
paths = (
{
closed = 1;
nodes = (
"302 731 LINE",
"387 658 LINE",
"201 540 LINE",
"130 600 LINE"
);
},
{
closed = 1;
nodes = (
"155 239 OFFCURVE",
"71 275 OFFCURVE",
"71 365 CURVE SMOOTH",
"71 481 OFFCURVE",
"177 505 OFFCURVE",
"254 505 CURVE SMOOTH",
"314 505 OFFCURVE",
"416 484 OFFCURVE",
"416 384 CURVE SMOOTH",
"416 376 OFFCURVE",
"416 369 OFFCURVE",
"412 347 CURVE",
"319 329 LINE",
"326 349 OFFCURVE",
"326 364 OFFCURVE",
"326 372 CURVE SMOOTH",
"326 406 OFFCURVE",
"286 417 OFFCURVE",
"254 417 CURVE SMOOTH",
"187 416 OFFCURVE",
"169 391 OFFCURVE",
"169 366 CURVE SMOOTH",
"169 340 OFFCURVE",
"197 326 OFFCURVE",
"253 310 CURVE SMOOTH",
"364 279 OFFCURVE",
"418 229 OFFCURVE",
"418 155 CURVE SMOOTH",
"418 33 OFFCURVE",
"295 0 OFFCURVE",
"236 0 CURVE SMOOTH",
"151 0 OFFCURVE",
"67 55 OFFCURVE",
"40 151 CURVE",
"134 167 LINE",
"150 116 OFFCURVE",
"194 91 OFFCURVE",
"236 91 CURVE SMOOTH",
"289 91 OFFCURVE",
"322 116 OFFCURVE",
"322 146 CURVE SMOOTH",
"322 186 OFFCURVE",
"281 205 OFFCURVE",
"230 219 CURVE SMOOTH"
);
}
);
userData = {
com.fontlab.hintData = {
hhints = (
{
position = 0;
width = 91;
},
{
position = 417;
width = 88;
}
);
vhints = (
{
position = 71;
width = 98;
},
{
position = 322;
width = 96;
}
);
};
};
width = 486;
}
);
unicode = 015B;
},
{
glyphname = scaron;
layers = (
{
layerId = master01;
paths = (
{
closed = 1;
nodes = (
"411 657 LINE",
"241 532 LINE",
"92 662 LINE",
"156 732 LINE",
"245 649 LINE",
"353 732 LINE"
);
},
{
closed = 1;
nodes = (
"155 239 OFFCURVE",
"71 275 OFFCURVE",
"71 365 CURVE SMOOTH",
"71 481 OFFCURVE",
"177 505 OFFCURVE",
"254 505 CURVE SMOOTH",
"314 505 OFFCURVE",
"416 484 OFFCURVE",
"416 384 CURVE SMOOTH",
"416 376 OFFCURVE",
"416 369 OFFCURVE",
"412 347 CURVE",
"319 329 LINE",
"326 349 OFFCURVE",
"326 364 OFFCURVE",
"326 372 CURVE SMOOTH",
"326 406 OFFCURVE",
"286 417 OFFCURVE",
"254 417 CURVE SMOOTH",
"187 416 OFFCURVE",
"169 391 OFFCURVE",
"169 366 CURVE SMOOTH",
"169 340 OFFCURVE",
"197 326 OFFCURVE",
"253 310 CURVE SMOOTH",
"364 279 OFFCURVE",
"418 229 OFFCURVE",
"418 155 CURVE SMOOTH",
"418 33 OFFCURVE",
"295 0 OFFCURVE",
"236 0 CURVE SMOOTH",
"151 0 OFFCURVE",
"67 55 OFFCURVE",
"40 151 CURVE",
"134 167 LINE",
"150 116 OFFCURVE",
"194 91 OFFCURVE",
"236 91 CURVE SMOOTH",
"289 91 OFFCURVE",
"322 116 OFFCURVE",
"322 146 CURVE SMOOTH",
"322 186 OFFCURVE",
"281 205 OFFCURVE",
"230 219 CURVE SMOOTH"
);
}
);
userData = {
com.fontlab.hintData = {
hhints = (
{
position = 0;
width = 91;
},
{
position = 417;
width = 88;
}
);
vhints = (
{
position = 71;
width = 98;
},
{
position = 322;
width = 96;
}
);
};
};
width = 486;
}
);
unicode = 0161;
},
{
glyphname = scedilla;
layers = (
{
layerId = master01;
paths = (
{
closed = 1;
nodes = (
"194 4 LINE",
"125 19 OFFCURVE",
"62 71 OFFCURVE",
"40 151 CURVE",
"134 167 LINE",
"150 116 OFFCURVE",
"194 91 OFFCURVE",
"236 91 CURVE SMOOTH",
"289 91 OFFCURVE",
"322 116 OFFCURVE",
"322 146 CURVE SMOOTH",
"322 186 OFFCURVE",
"281 205 OFFCURVE",
"230 219 CURVE SMOOTH",
"155 239 OFFCURVE",
"71 275 OFFCURVE",
"71 365 CURVE SMOOTH",
"71 481 OFFCURVE",
"177 505 OFFCURVE",
"254 505 CURVE SMOOTH",
"314 505 OFFCURVE",
"416 484 OFFCURVE",
"416 384 CURVE SMOOTH",
"416 376 OFFCURVE",
"416 369 OFFCURVE",
"412 347 CURVE",
"319 329 LINE",
"326 349 OFFCURVE",
"326 364 OFFCURVE",
"326 372 CURVE SMOOTH",
"326 406 OFFCURVE",
"286 417 OFFCURVE",
"254 417 CURVE SMOOTH",
"187 416 OFFCURVE",
"169 391 OFFCURVE",
"169 366 CURVE SMOOTH",
"169 340 OFFCURVE",
"197 326 OFFCURVE",
"253 310 CURVE SMOOTH",
"364 279 OFFCURVE",
"418 229 OFFCURVE",
"418 155 CURVE SMOOTH",
"418 40 OFFCURVE",
"310 4 OFFCURVE",
"248 0 CURVE",
"247 -33 LINE",
"300 -38 OFFCURVE",
"338 -60 OFFCURVE",
"338 -115 CURVE SMOOTH",
"338 -167 OFFCURVE",
"295 -196 OFFCURVE",
"243 -196 CURVE SMOOTH",
"212 -196 OFFCURVE",
"190 -186 OFFCURVE",
"167 -157 CURVE",
"211 -123 LINE",
"217 -132 OFFCURVE",
"229 -139 OFFCURVE",
"243 -139 CURVE SMOOTH",
"259 -139 OFFCURVE",
"271 -130 OFFCURVE",
"271 -115 CURVE SMOOTH",
"271 -99 OFFCURVE",
"259 -90 OFFCURVE",
"239 -90 CURVE SMOOTH",
"232 -90 OFFCURVE",
"221 -93 OFFCURVE",
"216 -98 CURVE",
"174 -54 LINE"
);
}
);
userData = {
com.fontlab.hintData = {
hhints = (
{
position = -196;
width = 57;
},
{
position = 417;
width = 88;
}
);
vhints = (
{
position = 71;
width = 98;
},
{
position = 271;
width = 67;
},
{
position = 322;
width = 96;
}
);
};
};
width = 486;
}
);
unicode = 015F;
},
{
glyphname = scircumflex;
layers = (
{
layerId = master01;
paths = (
{
closed = 1;
nodes = (
"155 239 OFFCURVE",
"71 275 OFFCURVE",
"71 365 CURVE SMOOTH",
"71 481 OFFCURVE",
"177 505 OFFCURVE",
"254 505 CURVE SMOOTH",
"314 505 OFFCURVE",
"416 484 OFFCURVE",
"416 384 CURVE SMOOTH",
"416 376 OFFCURVE",
"416 369 OFFCURVE",
"412 347 CURVE",
"319 329 LINE",
"326 349 OFFCURVE",
"326 364 OFFCURVE",
"326 372 CURVE SMOOTH",
"326 406 OFFCURVE",
"286 417 OFFCURVE",
"254 417 CURVE SMOOTH",
"187 416 OFFCURVE",
"169 391 OFFCURVE",
"169 366 CURVE SMOOTH",
"169 340 OFFCURVE",
"197 326 OFFCURVE",
"253 310 CURVE SMOOTH",
"364 279 OFFCURVE",
"418 229 OFFCURVE",
"418 155 CURVE SMOOTH",
"418 33 OFFCURVE",
"295 0 OFFCURVE",
"236 0 CURVE SMOOTH",
"151 0 OFFCURVE",
"67 55 OFFCURVE",
"40 151 CURVE",
"134 167 LINE",
"150 116 OFFCURVE",
"194 91 OFFCURVE",
"236 91 CURVE SMOOTH",
"289 91 OFFCURVE",
"322 116 OFFCURVE",
"322 146 CURVE SMOOTH",
"322 186 OFFCURVE",
"281 205 OFFCURVE",
"230 219 CURVE SMOOTH"
);
},
{
closed = 1;
nodes = (
"90 585 LINE",
"261 720 LINE",
"409 580 LINE",
"345 521 LINE",
"255 602 LINE",
"149 520 LINE"
);
}
);
userData = {
com.fontlab.hintData = {
hhints = (
{
position = 0;
width = 91;
},
{
position = 417;
width = 88;
}
);
vhints = (
{
position = 71;
width = 98;
},
{
position = 322;
width = 96;
}
);
};
};
width = 486;
}
);
unicode = 015D;
},
{
glyphname = germandbls;
layers = (
{
layerId = master01;
paths = (
{
closed = 1;
nodes = (
"429 423 OFFCURVE",
"413 379 OFFCURVE",
"388 360 CURVE",
"457 332 OFFCURVE",
"506 271 OFFCURVE",
"506 182 CURVE SMOOTH",
"506 73 OFFCURVE",
"426 -22 OFFCURVE",
"314 -22 CURVE SMOOTH",
"280 -22 OFFCURVE",
"238 -14 OFFCURVE",
"194 13 CURVE",
"238 95 LINE",
"263 78 OFFCURVE",
"291 71 OFFCURVE",
"309 71 CURVE SMOOTH",
"368 71 OFFCURVE",
"413 121 OFFCURVE",
"413 181 CURVE SMOOTH",
"413 236 OFFCURVE",
"370 291 OFFCURVE",
"307 291 CURVE SMOOTH",
"292 291 OFFCURVE",
"259 287 OFFCURVE",
"206 276 CURVE",
"233 375 LINE",
"313 386 OFFCURVE",
"336 423 OFFCURVE",
"336 457 CURVE SMOOTH",
"336 499 OFFCURVE",
"296 535 OFFCURVE",
"254 535 CURVE SMOOTH",
"211 535 OFFCURVE",
"170 499 OFFCURVE",
"170 457 CURVE SMOOTH",
"170 33 LINE",
"78 -14 LINE",
"78 457 LINE SMOOTH",
"78 551 OFFCURVE",
"159 627 OFFCURVE",
"254 627 CURVE SMOOTH",
"347 627 OFFCURVE",
"429 553 OFFCURVE",
"429 459 CURVE SMOOTH"
);
}
);
userData = {
com.fontlab.hintData = {
hhints = (
{
position = -22;
width = 93;
},
{
position = 276;
width = 99;
},
{
position = 535;
width = 92;
}
);
vhints = (
{
position = 78;
width = 92;
},
{
position = 336;
width = 93;
},
{
position = 413;
width = 93;
}
);
};
};
width = 551;
}
);
unicode = 00DF;
},
{
glyphname = t;
layers = (
{
layerId = master01;
paths = (
{
closed = 1;
nodes = (
"365 406 LINE",
"240 406 LINE",
"240 12 LINE",
"142 -5 LINE",
"142 406 LINE",
"17 406 LINE",
"17 502 LINE",
"142 502 LINE",
"142 644 LINE",
"240 660 LINE",
"240 502 LINE",
"365 502 LINE"
);
}
);
userData = {
com.fontlab.hintData = {
hhints = (
{
position = 406;
width = 96;
}
);
vhints = (
{
position = 142;
width = 98;
}
);
};
};
width = 399;
}
);
unicode = 0074;
},
{
glyphname = tcaron;
layers = (
{
layerId = master01;
paths = (
{
closed = 1;
nodes = (
"446 696 LINE",
"359 526 LINE",
"275 574 LINE",
"324 660 LINE",
"281 684 LINE",
"357 751 LINE"
);
},
{
closed = 1;
nodes = (
"352 406 LINE",
"226 406 LINE",
"226 12 LINE",
"134 -5 LINE",
"134 406 LINE",
"8 406 LINE",
"8 502 LINE",
"134 502 LINE",
"134 644 LINE",
"226 660 LINE",
"226 502 LINE",
"352 502 LINE"
);
}
);
userData = {
com.fontlab.hintData = {
hhints = (
{
position = 406;
width = 96;
}
);
vhints = (
{
position = 134;
width = 92;
}
);
};
};
width = 455;
}
);
unicode = 0165;
},
{
glyphname = u;
layers = (
{
layerId = master01;
paths = (
{
closed = 1;
nodes = (
"157 186 OFFCURVE",
"157 85 OFFCURVE",
"226 85 CURVE SMOOTH",
"281 85 OFFCURVE",
"335 125 OFFCURVE",
"353 143 CURVE SMOOTH",
"357 147 OFFCURVE",
"359 155 OFFCURVE",
"359 167 CURVE SMOOTH",
"359 491 LINE",
"458 508 LINE",
"458 12 LINE",
"356 -4 LINE",
"356 36 LINE",
"322 14 OFFCURVE",
"273 -5 OFFCURVE",
"223 -5 CURVE SMOOTH",
"62.976 -5 OFFCURVE",
"62 142.34 OFFCURVE",
"62 280.873 CURVE SMOOTH",
"62 282.584 OFFCURVE",
"62 284.293 OFFCURVE",
"62 286 CURVE SMOOTH",
"62 328 OFFCURVE",
"67 418 OFFCURVE",
"79 492 CURVE",
"178 509 LINE",
"175 488 OFFCURVE",
"157 359 OFFCURVE",
"157 286 CURVE SMOOTH"
);
}
);
userData = {
com.fontlab.hintData = {
hhints = (
{
position = -5;
width = 90;
},
{
position = -4;
width = 21;
}
);
vhints = (
{
position = 62;
width = 95;
},
{
position = 359;
width = 99;
}
);
};
};
width = 542;
}
);
unicode = 0075;
},
{
glyphname = uacute;
layers = (
{
layerId = master01;
paths = (
{
closed = 1;
nodes = (
"329 731 LINE",
"413 658 LINE",
"227 540 LINE",
"157 600 LINE"
);
},
{
closed = 1;
nodes = (
"157 186 OFFCURVE",
"157 85 OFFCURVE",
"226 85 CURVE SMOOTH",
"281 85 OFFCURVE",
"335 125 OFFCURVE",
"353 143 CURVE SMOOTH",
"357 147 OFFCURVE",
"359 155 OFFCURVE",
"359 167 CURVE SMOOTH",
"359 491 LINE",
"458 508 LINE",
"458 12 LINE",
"356 -4 LINE",
"356 36 LINE",
"322 14 OFFCURVE",
"273 -5 OFFCURVE",
"223 -5 CURVE SMOOTH",
"62.976 -5 OFFCURVE",
"62 142.34 OFFCURVE",
"62 280.873 CURVE SMOOTH",
"62 282.584 OFFCURVE",
"62 284.293 OFFCURVE",
"62 286 CURVE SMOOTH",
"62 328 OFFCURVE",
"67 418 OFFCURVE",
"79 492 CURVE",
"178 509 LINE",
"175 488 OFFCURVE",
"157 359 OFFCURVE",
"157 286 CURVE SMOOTH"
);
}
);
userData = {
com.fontlab.hintData = {
hhints = (
{
position = -5;
width = 90;
},
{
position = -4;
width = 21;
}
);
vhints = (
{
position = 62;
width = 95;
},
{
position = 359;
width = 99;
}
);
};
};
width = 542;
}
);
unicode = 00FA;
},
{
glyphname = ubreve;
layers = (
{
layerId = master01;
paths = (
{
closed = 1;
nodes = (
"157 186 OFFCURVE",
"157 85 OFFCURVE",
"226 85 CURVE SMOOTH",
"281 85 OFFCURVE",
"335 125 OFFCURVE",
"353 143 CURVE SMOOTH",
"357 147 OFFCURVE",
"359 155 OFFCURVE",
"359 167 CURVE SMOOTH",
"359 491 LINE",
"458 508 LINE",
"458 12 LINE",
"356 -4 LINE",
"356 36 LINE",
"322 14 OFFCURVE",
"273 -5 OFFCURVE",
"223 -5 CURVE SMOOTH",
"62.976 -5 OFFCURVE",
"62 142.34 OFFCURVE",
"62 280.873 CURVE SMOOTH",
"62 282.584 OFFCURVE",
"62 284.293 OFFCURVE",
"62 286 CURVE SMOOTH",
"62 328 OFFCURVE",
"67 418 OFFCURVE",
"79 492 CURVE",
"178 509 LINE",
"175 488 OFFCURVE",
"157 359 OFFCURVE",
"157 286 CURVE SMOOTH"
);
},
{
closed = 1;
nodes = (
"317 626 OFFCURVE",
"347 649 OFFCURVE",
"368 706 CURVE",
"432 642 LINE",
"409 575 OFFCURVE",
"343 538 OFFCURVE",
"276 538 CURVE SMOOTH",
"203 538 OFFCURVE",
"140 572 OFFCURVE",
"111 637 CURVE",
"171 698 LINE",
"209 629 OFFCURVE",
"244 626 OFFCURVE",
"271 626 CURVE SMOOTH"
);
}
);
userData = {
com.fontlab.hintData = {
hhints = (
{
position = -5;
width = 90;
},
{
position = -4;
width = 21;
},
{
position = 538;
width = 88;
}
);
vhints = (
{
position = 62;
width = 95;
},
{
position = 359;
width = 99;
}
);
};
};
width = 542;
}
);
unicode = 016D;
},
{
glyphname = ucircumflex;
layers = (
{
layerId = master01;
paths = (
{
closed = 1;
nodes = (
"114 595 LINE",
"284 720 LINE",
"432 590 LINE",
"368 531 LINE",
"278 612 LINE",
"172 530 LINE"
);
},
{
closed = 1;
nodes = (
"157 186 OFFCURVE",
"157 85 OFFCURVE",
"226 85 CURVE SMOOTH",
"281 85 OFFCURVE",
"335 125 OFFCURVE",
"353 143 CURVE SMOOTH",
"357 147 OFFCURVE",
"359 155 OFFCURVE",
"359 167 CURVE SMOOTH",
"359 491 LINE",
"458 508 LINE",
"458 12 LINE",
"356 -4 LINE",
"356 36 LINE",
"322 14 OFFCURVE",
"273 -5 OFFCURVE",
"223 -5 CURVE SMOOTH",
"62.976 -5 OFFCURVE",
"62 142.34 OFFCURVE",
"62 280.873 CURVE SMOOTH",
"62 282.584 OFFCURVE",
"62 284.293 OFFCURVE",
"62 286 CURVE SMOOTH",
"62 328 OFFCURVE",
"67 418 OFFCURVE",
"79 492 CURVE",
"178 509 LINE",
"175 488 OFFCURVE",
"157 359 OFFCURVE",
"157 286 CURVE SMOOTH"
);
}
);
userData = {
com.fontlab.hintData = {
hhints = (
{
position = -5;
width = 90;
},
{
position = -4;
width = 21;
}
);
vhints = (
{
position = 62;
width = 95;
},
{
position = 359;
width = 99;
}
);
};
};
width = 542;
}
);
unicode = 00FB;
},
{
glyphname = udieresis;
layers = (
{
layerId = master01;
paths = (
{
closed = 1;
nodes = (
"240 561 LINE",
"126 546 LINE",
"139 658 LINE",
"252 672 LINE"
);
},
{
closed = 1;
nodes = (
"407 561 LINE",
"292 546 LINE",
"306 658 LINE",
"418 672 LINE"
);
},
{
closed = 1;
nodes = (
"157 186 OFFCURVE",
"157 85 OFFCURVE",
"226 85 CURVE SMOOTH",
"281 85 OFFCURVE",
"335 125 OFFCURVE",
"353 143 CURVE SMOOTH",
"357 147 OFFCURVE",
"359 155 OFFCURVE",
"359 167 CURVE SMOOTH",
"359 491 LINE",
"458 508 LINE",
"458 12 LINE",
"356 -4 LINE",
"356 36 LINE",
"322 14 OFFCURVE",
"273 -5 OFFCURVE",
"223 -5 CURVE SMOOTH",
"62.976 -5 OFFCURVE",
"62 142.34 OFFCURVE",
"62 280.873 CURVE SMOOTH",
"62 282.584 OFFCURVE",
"62 284.293 OFFCURVE",
"62 286 CURVE SMOOTH",
"62 328 OFFCURVE",
"67 418 OFFCURVE",
"79 492 CURVE",
"178 509 LINE",
"175 488 OFFCURVE",
"157 359 OFFCURVE",
"157 286 CURVE SMOOTH"
);
}
);
userData = {
com.fontlab.hintData = {
hhints = (
{
position = -5;
width = 90;
},
{
position = -4;
width = 21;
}
);
vhints = (
{
position = 62;
width = 95;
},
{
position = 359;
width = 99;
}
);
};
};
width = 542;
}
);
unicode = 00FC;
},
{
glyphname = ugrave;
layers = (
{
layerId = master01;
paths = (
{
closed = 1;
nodes = (
"299 530 LINE",
"138 682 LINE",
"236 737 LINE",
"380 579 LINE"
);
},
{
closed = 1;
nodes = (
"157 186 OFFCURVE",
"157 85 OFFCURVE",
"226 85 CURVE SMOOTH",
"281 85 OFFCURVE",
"335 125 OFFCURVE",
"353 143 CURVE SMOOTH",
"357 147 OFFCURVE",
"359 155 OFFCURVE",
"359 167 CURVE SMOOTH",
"359 491 LINE",
"458 508 LINE",
"458 12 LINE",
"356 -4 LINE",
"356 36 LINE",
"322 14 OFFCURVE",
"273 -5 OFFCURVE",
"223 -5 CURVE SMOOTH",
"62.976 -5 OFFCURVE",
"62 142.34 OFFCURVE",
"62 280.873 CURVE SMOOTH",
"62 282.584 OFFCURVE",
"62 284.293 OFFCURVE",
"62 286 CURVE SMOOTH",
"62 328 OFFCURVE",
"67 418 OFFCURVE",
"79 492 CURVE",
"178 509 LINE",
"175 488 OFFCURVE",
"157 359 OFFCURVE",
"157 286 CURVE SMOOTH"
);
}
);
userData = {
com.fontlab.hintData = {
hhints = (
{
position = -5;
width = 90;
},
{
position = -4;
width = 21;
}
);
vhints = (
{
position = 62;
width = 95;
},
{
position = 359;
width = 99;
}
);
};
};
width = 542;
}
);
unicode = 00F9;
},
{
glyphname = uhungarumlaut;
layers = (
{
layerId = master01;
paths = (
{
closed = 1;
nodes = (
"233 731 LINE",
"309 656 LINE",
"129 535 LINE",
"56 597 LINE"
);
},
{
closed = 1;
nodes = (
"452 731 LINE",
"529 656 LINE",
"338 535 LINE",
"275 597 LINE"
);
},
{
closed = 1;
nodes = (
"157 186 OFFCURVE",
"157 85 OFFCURVE",
"226 85 CURVE SMOOTH",
"281 85 OFFCURVE",
"335 125 OFFCURVE",
"353 143 CURVE SMOOTH",
"357 147 OFFCURVE",
"359 155 OFFCURVE",
"359 167 CURVE SMOOTH",
"359 491 LINE",
"458 508 LINE",
"458 12 LINE",
"356 -4 LINE",
"356 36 LINE",
"322 14 OFFCURVE",
"273 -5 OFFCURVE",
"223 -5 CURVE SMOOTH",
"62.976 -5 OFFCURVE",
"62 142.34 OFFCURVE",
"62 280.873 CURVE SMOOTH",
"62 282.584 OFFCURVE",
"62 284.293 OFFCURVE",
"62 286 CURVE SMOOTH",
"62 328 OFFCURVE",
"67 418 OFFCURVE",
"79 492 CURVE",
"178 509 LINE",
"175 488 OFFCURVE",
"157 359 OFFCURVE",
"157 286 CURVE SMOOTH"
);
}
);
userData = {
com.fontlab.hintData = {
hhints = (
{
position = -5;
width = 90;
},
{
position = -4;
width = 21;
}
);
vhints = (
{
position = 62;
width = 95;
},
{
position = 359;
width = 99;
}
);
};
};
width = 564;
}
);
unicode = 0171;
},
{
glyphname = uni0163;
layers = (
{
layerId = master01;
paths = (
{
closed = 1;
nodes = (
"365 406 LINE",
"240 406 LINE",
"240 12 LINE",
"142 -5 LINE",
"142 406 LINE",
"17 406 LINE",
"17 502 LINE",
"142 502 LINE",
"142 644 LINE",
"240 660 LINE",
"240 502 LINE",
"365 502 LINE"
);
},
{
closed = 1;
nodes = (
"290 -62 LINE",
"181 -247 LINE",
"94 -198 LINE",
"145 -119 LINE",
"101 -95 LINE",
"189 -16 LINE"
);
}
);
userData = {
com.fontlab.hintData = {
hhints = (
{
position = 406;
width = 96;
}
);
vhints = (
{
position = 142;
width = 98;
}
);
};
};
width = 399;
}
);
unicode = 0163;
},
{
glyphname = uring;
layers = (
{
layerId = master01;
paths = (
{
closed = 1;
nodes = (
"157 186 OFFCURVE",
"157 85 OFFCURVE",
"226 85 CURVE SMOOTH",
"281 85 OFFCURVE",
"335 125 OFFCURVE",
"353 143 CURVE SMOOTH",
"357 147 OFFCURVE",
"359 155 OFFCURVE",
"359 167 CURVE SMOOTH",
"359 491 LINE",
"458 508 LINE",
"458 12 LINE",
"356 -4 LINE",
"356 36 LINE",
"322 14 OFFCURVE",
"273 -5 OFFCURVE",
"223 -5 CURVE SMOOTH",
"62.976 -5 OFFCURVE",
"62 142.34 OFFCURVE",
"62 280.873 CURVE SMOOTH",
"62 282.584 OFFCURVE",
"62 284.293 OFFCURVE",
"62 286 CURVE SMOOTH",
"62 328 OFFCURVE",
"67 418 OFFCURVE",
"79 492 CURVE",
"178 509 LINE",
"175 488 OFFCURVE",
"157 359 OFFCURVE",
"157 286 CURVE SMOOTH"
);
},
{
closed = 1;
nodes = (
"195 542 OFFCURVE",
"142 592 OFFCURVE",
"142 655 CURVE SMOOTH",
"142 726 OFFCURVE",
"208 782 OFFCURVE",
"290 782 CURVE SMOOTH",
"369 782 OFFCURVE",
"419 727 OFFCURVE",
"419 668 CURVE SMOOTH",
"419 584 OFFCURVE",
"341 542 OFFCURVE",
"271 542 CURVE SMOOTH"
);
},
{
closed = 1;
nodes = (
"264 697 OFFCURVE",
"228 682 OFFCURVE",
"228 655 CURVE SMOOTH",
"228 638 OFFCURVE",
"248 626 OFFCURVE",
"273 626 CURVE SMOOTH",
"301 626 OFFCURVE",
"335 643 OFFCURVE",
"335 666 CURVE SMOOTH",
"335 683 OFFCURVE",
"313 697 OFFCURVE",
"287 697 CURVE SMOOTH"
);
}
);
userData = {
com.fontlab.hintData = {
hhints = (
{
position = -5;
width = 90;
},
{
position = -4;
width = 21;
},
{
position = 542;
width = 84;
},
{
position = 697;
width = 85;
}
);
vhints = (
{
position = 62;
width = 95;
},
{
position = 142;
width = 86;
},
{
position = 335;
width = 84;
},
{
position = 359;
width = 99;
}
);
};
};
width = 541;
}
);
unicode = 016F;
},
{
glyphname = v;
layers = (
{
layerId = master01;
paths = (
{
closed = 1;
nodes = (
"271 15 LINE",
"189 -3 LINE",
"3 471 LINE",
"93 507 LINE",
"226 156 LINE",
"360 507 LINE",
"450 473 LINE"
);
}
);
userData = {
com.fontlab.hintData = {
hhints = (
{
position = -3;
width = 21;
}
);
};
};
width = 473;
}
);
unicode = 0076;
},
{
glyphname = w;
layers = (
{
layerId = master01;
paths = (
{
closed = 1;
nodes = (
"484 15 LINE",
"396 -4 LINE",
"324 296 LINE",
"225 14 LINE",
"135 -5 LINE",
"37 481 LINE",
"132 502 LINE",
"192 196 LINE",
"288 484 LINE",
"373 499 LINE",
"444 192 LINE",
"531 485 LINE",
"636 502 LINE"
);
}
);
userData = {
com.fontlab.hintData = {
hhints = (
{
position = -4;
width = 21;
}
);
};
};
width = 679;
}
);
unicode = 0077;
},
{
glyphname = x;
layers = (
{
layerId = master01;
paths = (
{
closed = 1;
nodes = (
"367 -12 LINE",
"231 180 LINE",
"71 -13 LINE",
"1 48 LINE",
"177 259 LINE",
"38 460 LINE",
"114 514 LINE",
"238 335 LINE",
"388 515 LINE",
"458 453 LINE",
"294 256 LINE",
"444 41 LINE"
);
}
);
userData = {
com.fontlab.hintData = {
hhints = (
{
position = 494;
width = 20;
}
);
};
};
width = 497;
}
);
unicode = 0078;
},
{
glyphname = y;
layers = (
{
layerId = master01;
paths = (
{
closed = 1;
nodes = (
"492 467 LINE",
"188 -187 LINE",
"101 -146 LINE",
"205 78 LINE",
"12 464 LINE",
"98 507 LINE",
"256 191 LINE",
"404 508 LINE"
);
}
);
width = 526;
}
);
unicode = 0079;
},
{
glyphname = yacute;
layers = (
{
layerId = master01;
paths = (
{
closed = 1;
nodes = (
"307 731 LINE",
"392 658 LINE",
"206 540 LINE",
"134 600 LINE"
);
},
{
closed = 1;
nodes = (
"492 466 LINE",
"188 -188 LINE",
"101 -147 LINE",
"205 77 LINE",
"12 463 LINE",
"98 506 LINE",
"256 190 LINE",
"404 507 LINE"
);
}
);
width = 526;
}
);
unicode = 00FD;
},
{
glyphname = ydieresis;
layers = (
{
layerId = master01;
paths = (
{
closed = 1;
nodes = (
"225 561 LINE",
"111 546 LINE",
"124 658 LINE",
"237 672 LINE"
);
},
{
closed = 1;
nodes = (
"391 561 LINE",
"276 546 LINE",
"290 658 LINE",
"403 672 LINE"
);
},
{
closed = 1;
nodes = (
"492 467 LINE",
"188 -187 LINE",
"101 -146 LINE",
"205 78 LINE",
"12 464 LINE",
"98 507 LINE",
"256 191 LINE",
"404 508 LINE"
);
}
);
width = 526;
}
);
unicode = 00FF;
},
{
glyphname = z;
layers = (
{
layerId = master01;
paths = (
{
closed = 1;
nodes = (
"55 0 LINE",
"22 68 LINE",
"291 406 LINE",
"42 406 LINE",
"59 502 LINE",
"402 502 LINE",
"434 435 LINE",
"166 96 LINE",
"428 96 LINE",
"411 0 LINE"
);
}
);
userData = {
com.fontlab.hintData = {
hhints = (
{
position = 0;
width = 96;
},
{
position = 406;
width = 96;
}
);
};
};
width = 479;
}
);
unicode = 007A;
},
{
glyphname = zacute;
layers = (
{
layerId = master01;
paths = (
{
closed = 1;
nodes = (
"55 0 LINE",
"22 68 LINE",
"291 406 LINE",
"42 406 LINE",
"59 502 LINE",
"402 502 LINE",
"434 435 LINE",
"166 96 LINE",
"428 96 LINE",
"411 0 LINE"
);
},
{
closed = 1;
nodes = (
"285 731 LINE",
"370 658 LINE",
"183 540 LINE",
"112 600 LINE"
);
}
);
userData = {
com.fontlab.hintData = {
hhints = (
{
position = 0;
width = 96;
},
{
position = 406;
width = 96;
}
);
};
};
width = 479;
}
);
unicode = 017A;
},
{
glyphname = zcaron;
layers = (
{
layerId = master01;
paths = (
{
closed = 1;
nodes = (
"404 657 LINE",
"235 522 LINE",
"87 662 LINE",
"151 732 LINE",
"240 649 LINE",
"347 732 LINE"
);
},
{
closed = 1;
nodes = (
"55 0 LINE",
"22 68 LINE",
"291 406 LINE",
"42 406 LINE",
"59 502 LINE",
"402 502 LINE",
"434 435 LINE",
"166 96 LINE",
"428 96 LINE",
"411 0 LINE"
);
}
);
userData = {
com.fontlab.hintData = {
hhints = (
{
position = 0;
width = 96;
},
{
position = 406;
width = 96;
}
);
};
};
width = 479;
}
);
unicode = 017E;
},
{
glyphname = zdotaccent;
layers = (
{
layerId = master01;
paths = (
{
closed = 1;
nodes = (
"292 561 LINE",
"177 546 LINE",
"191 658 LINE",
"303 672 LINE"
);
},
{
closed = 1;
nodes = (
"55 0 LINE",
"22 68 LINE",
"291 406 LINE",
"42 406 LINE",
"59 502 LINE",
"402 502 LINE",
"434 435 LINE",
"166 96 LINE",
"428 96 LINE",
"411 0 LINE"
);
}
);
userData = {
com.fontlab.hintData = {
hhints = (
{
position = 0;
width = 96;
},
{
position = 406;
width = 96;
}
);
};
};
width = 479;
}
);
unicode = 017C;
},
{
glyphname = ordfeminine;
layers = (
{
layerId = master01;
paths = (
{
closed = 1;
nodes = (
"268 333 LINE",
"177 315 LINE",
"177 334 LINE",
"160 328 OFFCURVE",
"144 326 OFFCURVE",
"129 326 CURVE SMOOTH",
"50 326 OFFCURVE",
"-4 388 OFFCURVE",
"-4 473 CURVE SMOOTH",
"-4 571 OFFCURVE",
"60 661 OFFCURVE",
"155 661 CURVE SMOOTH",
"180 661 OFFCURVE",
"228 651 OFFCURVE",
"267 626 CURVE"
);
},
{
closed = 1;
nodes = (
"170 570 OFFCURVE",
"165 571 OFFCURVE",
"155 571 CURVE SMOOTH",
"100 571 OFFCURVE",
"87 497 OFFCURVE",
"87 474 CURVE SMOOTH",
"87 438 OFFCURVE",
"103 416 OFFCURVE",
"127 416 CURVE SMOOTH",
"144 416 OFFCURVE",
"163 426 OFFCURVE",
"176 433 CURVE",
"178 568 LINE"
);
}
);
userData = {
com.fontlab.hintData = {
hhints = (
{
position = 326;
width = 90;
},
{
position = 571;
width = 90;
}
);
vhints = (
{
position = -4;
width = 91;
},
{
position = 177;
width = 91;
}
);
};
};
width = 276;
}
);
unicode = 00AA;
},
{
glyphname = ordmasculine;
layers = (
{
layerId = master01;
paths = (
{
closed = 1;
nodes = (
"54 324 OFFCURVE",
"-3 398 OFFCURVE",
"-3 482 CURVE SMOOTH",
"-3 582 OFFCURVE",
"69 665 OFFCURVE",
"158 665 CURVE SMOOTH",
"238 665 OFFCURVE",
"300 590 OFFCURVE",
"300 506 CURVE SMOOTH",
"300 408 OFFCURVE",
"228 324 OFFCURVE",
"140 324 CURVE SMOOTH"
);
},
{
closed = 1;
nodes = (
"119 577 OFFCURVE",
"89 533 OFFCURVE",
"89 482 CURVE SMOOTH",
"89 442 OFFCURVE",
"111 411 OFFCURVE",
"140 411 CURVE SMOOTH",
"175 411 OFFCURVE",
"208 453 OFFCURVE",
"208 502 CURVE SMOOTH",
"208 538 OFFCURVE",
"186 577 OFFCURVE",
"155 577 CURVE SMOOTH"
);
}
);
userData = {
com.fontlab.hintData = {
hhints = (
{
position = 324;
width = 87;
},
{
position = 577;
width = 88;
}
);
vhints = (
{
position = -3;
width = 92;
},
{
position = 208;
width = 92;
}
);
};
};
width = 311;
}
);
unicode = 00BA;
},
{
glyphname = zero;
layers = (
{
layerId = master01;
paths = (
{
closed = 1;
nodes = (
"162 -3 OFFCURVE",
"67 147 OFFCURVE",
"67 317 CURVE SMOOTH",
"67 503 OFFCURVE",
"177 669 OFFCURVE",
"317 669 CURVE SMOOTH",
"451 669 OFFCURVE",
"545 520 OFFCURVE",
"545 348 CURVE SMOOTH",
"545 160 OFFCURVE",
"433 -3 OFFCURVE",
"296 -3 CURVE SMOOTH"
);
},
{
closed = 1;
nodes = (
"233 574 OFFCURVE",
"161 458 OFFCURVE",
"161 319 CURVE SMOOTH",
"161 201 OFFCURVE",
"217 93 OFFCURVE",
"296 93 CURVE SMOOTH",
"379 93 OFFCURVE",
"452 208 OFFCURVE",
"452 346 CURVE SMOOTH",
"452 467 OFFCURVE",
"394 574 OFFCURVE",
"317 574 CURVE SMOOTH"
);
}
);
userData = {
com.fontlab.hintData = {
hhints = (
{
position = -3;
width = 96;
},
{
position = 574;
width = 95;
}
);
vhints = (
{
position = 67;
width = 94;
},
{
position = 452;
width = 93;
}
);
};
};
width = 640;
}
);
unicode = 0030;
},
{
glyphname = one;
layers = (
{
layerId = master01;
paths = (
{
closed = 1;
nodes = (
"366 95 LINE",
"349 0 LINE",
"63 0 LINE",
"79 95 LINE",
"178 95 LINE",
"185 479 LINE",
"109 411 LINE",
"45 481 LINE",
"282 694 LINE",
"272 95 LINE"
);
}
);
userData = {
com.fontlab.hintData = {
hhints = (
{
position = 0;
width = 95;
}
);
vhints = (
{
position = 178;
width = 94;
},
{
position = 185;
width = 97;
}
);
};
};
width = 440;
}
);
unicode = 0031;
},
{
glyphname = two;
layers = (
{
layerId = master01;
paths = (
{
closed = 1;
nodes = (
"473 95 LINE",
"456 0 LINE",
"61 0 LINE",
"61 47 LINE SMOOTH",
"61 200 OFFCURVE",
"119 256 OFFCURVE",
"228 330 CURVE SMOOTH",
"324 395 OFFCURVE",
"365 441 OFFCURVE",
"365 487 CURVE SMOOTH",
"365 544 OFFCURVE",
"306 564 OFFCURVE",
"266 564 CURVE SMOOTH",
"189 564 OFFCURVE",
"127 475 OFFCURVE",
"119 461 CURVE",
"53 537 LINE",
"81 574 OFFCURVE",
"157 658 OFFCURVE",
"266 658 CURVE SMOOTH",
"415 658 OFFCURVE",
"460 556 OFFCURVE",
"460 487 CURVE SMOOTH",
"460 386 OFFCURVE",
"370 310 OFFCURVE",
"280 251 CURVE SMOOTH",
"209 204 OFFCURVE",
"169 169 OFFCURVE",
"159 95 CURVE"
);
}
);
userData = {
com.fontlab.hintData = {
hhints = (
{
position = 0;
width = 95;
},
{
position = 564;
width = 94;
}
);
vhints = (
{
position = 365;
width = 95;
}
);
};
};
width = 550;
}
);
unicode = 0032;
},
{
glyphname = three;
layers = (
{
layerId = master01;
paths = (
{
closed = 1;
nodes = (
"470 447 OFFCURVE",
"429 403 OFFCURVE",
"386 374 CURVE",
"441 339 OFFCURVE",
"484 285 OFFCURVE",
"484 207 CURVE SMOOTH",
"484 54 OFFCURVE",
"356 -4 OFFCURVE",
"274 -4 CURVE SMOOTH",
"187 -4 OFFCURVE",
"93 46 OFFCURVE",
"58 156 CURVE",
"149 194 LINE",
"167 128 OFFCURVE",
"218 91 OFFCURVE",
"274 91 CURVE SMOOTH",
"275 91 OFFCURVE",
"388 94 OFFCURVE",
"388 207 CURVE SMOOTH",
"388 294 OFFCURVE",
"302 320 OFFCURVE",
"206 320 CURVE",
"202 413 LINE",
"310 419 OFFCURVE",
"373 459 OFFCURVE",
"373 509 CURVE SMOOTH",
"373 539 OFFCURVE",
"334 572 OFFCURVE",
"269 572 CURVE SMOOTH",
"211 572 OFFCURVE",
"153 520 OFFCURVE",
"141 508 CURVE",
"76 577 LINE",
"102 601 OFFCURVE",
"178 667 OFFCURVE",
"269 667 CURVE SMOOTH",
"382 667 OFFCURVE",
"470 597 OFFCURVE",
"470 509 CURVE SMOOTH"
);
}
);
userData = {
com.fontlab.hintData = {
hhints = (
{
position = -4;
width = 95;
},
{
position = 320;
width = 93;
},
{
position = 572;
width = 95;
}
);
vhints = (
{
position = 373;
width = 97;
},
{
position = 388;
width = 96;
}
);
};
};
width = 575;
}
);
unicode = 0033;
},
{
glyphname = four;
layers = (
{
layerId = master01;
paths = (
{
closed = 1;
nodes = (
"314 -5 LINE",
"314 152 LINE",
"16 158 LINE",
"407 716 LINE",
"407 244 LINE",
"472 243 LINE",
"454 150 LINE",
"407 151 LINE",
"407 13 LINE"
);
},
{
closed = 1;
nodes = (
"314 246 LINE",
"314 424 LINE",
"189 246 LINE"
);
}
);
userData = {
com.fontlab.hintData = {
hhints = (
{
position = 152;
width = 94;
}
);
vhints = (
{
position = 314;
width = 93;
}
);
};
};
width = 544;
}
);
unicode = 0034;
},
{
glyphname = five;
layers = (
{
layerId = master01;
paths = (
{
closed = 1;
nodes = (
"211 0 OFFCURVE",
"115 28 OFFCURVE",
"56 153 CURVE",
"142 191 LINE",
"172 125 OFFCURVE",
"225 94 OFFCURVE",
"265 94 CURVE SMOOTH",
"265.538 93.994 OFFCURVE",
"266.075 93.991 OFFCURVE",
"266.611 93.991 CURVE SMOOTH",
"354.843 93.991 OFFCURVE",
"408.012 175.356 OFFCURVE",
"408.012 261.141 CURVE SMOOTH",
"408.012 346.754 OFFCURVE",
"348.547 392 OFFCURVE",
"294 392 CURVE SMOOTH",
"245 392 OFFCURVE",
"195 356 OFFCURVE",
"167 312 CURVE",
"88 337 LINE",
"120 657 LINE",
"486 657 LINE",
"468 563 LINE",
"204 563 LINE",
"195 464 LINE",
"222 477 OFFCURVE",
"254 486 OFFCURVE",
"294 486 CURVE SMOOTH",
"424.495 486 OFFCURVE",
"501.008 369.232 OFFCURVE",
"501.008 256.78 CURVE SMOOTH",
"501.008 112.838 OFFCURVE",
"404.285 0 OFFCURVE",
"265 0 CURVE SMOOTH"
);
}
);
userData = {
com.fontlab.hintData = {
hhints = (
{
position = 0;
width = 94;
},
{
position = 392;
width = 94;
},
{
position = 563;
width = 94;
}
);
vhints = (
{
position = 408;
width = 93;
}
);
};
};
width = 588;
}
);
unicode = 0035;
},
{
glyphname = six;
layers = (
{
layerId = master01;
paths = (
{
closed = 1;
nodes = (
"389 587 LINE",
"315 557 OFFCURVE",
"241 498 OFFCURVE",
"200 434 CURVE",
"226 443 OFFCURVE",
"253 447 OFFCURVE",
"288 447 CURVE SMOOTH",
"309 447 OFFCURVE",
"484 441 OFFCURVE",
"484 241 CURVE SMOOTH",
"484 36 OFFCURVE",
"334 -5 OFFCURVE",
"279 -5 CURVE SMOOTH",
"126 -5 OFFCURVE",
"58 110 OFFCURVE",
"58 246 CURVE SMOOTH",
"58 439 OFFCURVE",
"174 597 OFFCURVE",
"359 676 CURVE"
);
},
{
closed = 1;
nodes = (
"151 282 OFFCURVE",
"151 264 OFFCURVE",
"151 246 CURVE SMOOTH",
"151 116 OFFCURVE",
"220 89 OFFCURVE",
"279 89 CURVE SMOOTH",
"311 89 OFFCURVE",
"392 116 OFFCURVE",
"392 241 CURVE SMOOTH",
"392 346 OFFCURVE",
"313 354 OFFCURVE",
"288 354 CURVE SMOOTH",
"219 354 OFFCURVE",
"173 318 OFFCURVE",
"153 300 CURVE"
);
}
);
userData = {
com.fontlab.hintData = {
hhints = (
{
position = -5;
width = 94;
},
{
position = 354;
width = 93;
}
);
vhints = (
{
position = 58;
width = 93;
},
{
position = 392;
width = 92;
}
);
};
};
width = 572;
}
);
unicode = 0036;
},
{
glyphname = seven;
layers = (
{
layerId = master01;
paths = (
{
closed = 1;
nodes = (
"93 35 LINE",
"361 565 LINE",
"73 565 LINE",
"57 659 LINE",
"513 659 LINE",
"175 -8 LINE"
);
}
);
userData = {
com.fontlab.hintData = {
hhints = (
{
position = 565;
width = 94;
}
);
};
};
width = 527;
}
);
unicode = 0037;
},
{
glyphname = eight;
layers = (
{
layerId = master01;
paths = (
{
closed = 1;
nodes = (
"150 -3 OFFCURVE",
"63 77 OFFCURVE",
"63 186 CURVE",
"64 272 OFFCURVE",
"114 325 OFFCURVE",
"164 357 CURVE",
"122 385 OFFCURVE",
"93 422 OFFCURVE",
"93 487 CURVE SMOOTH",
"93 602 OFFCURVE",
"176 669 OFFCURVE",
"283 669 CURVE SMOOTH",
"391 669 OFFCURVE",
"467 599 OFFCURVE",
"467 500 CURVE",
"465 433 OFFCURVE",
"431 392 OFFCURVE",
"389 364 CURVE",
"450 323 OFFCURVE",
"483 265 OFFCURVE",
"483 195 CURVE SMOOTH",
"483 82 OFFCURVE",
"394 -3 OFFCURVE",
"273 -3 CURVE SMOOTH"
);
},
{
closed = 1;
nodes = (
"215 286 OFFCURVE",
"158 254 OFFCURVE",
"158 180 CURVE SMOOTH",
"158 129 OFFCURVE",
"209 93 OFFCURVE",
"273 93 CURVE SMOOTH",
"326 93 OFFCURVE",
"388 124 OFFCURVE",
"388 192 CURVE SMOOTH",
"388 254 OFFCURVE",
"326 292 OFFCURVE",
"272 310 CURVE"
);
},
{
closed = 1;
nodes = (
"344 437 OFFCURVE",
"372 459 OFFCURVE",
"372 507 CURVE SMOOTH",
"372 547 OFFCURVE",
"332 573 OFFCURVE",
"283 573 CURVE SMOOTH",
"225 573 OFFCURVE",
"187 536 OFFCURVE",
"187 490 CURVE SMOOTH",
"187 453 OFFCURVE",
"223 430 OFFCURVE",
"286 411 CURVE"
);
}
);
userData = {
com.fontlab.hintData = {
hhints = (
{
position = -3;
width = 96;
},
{
position = 573;
width = 96;
}
);
vhints = (
{
position = 63;
width = 95;
},
{
position = 93;
width = 94;
},
{
position = 372;
width = 95;
},
{
position = 388;
width = 95;
}
);
};
};
width = 573;
}
);
unicode = 0038;
},
{
glyphname = nine;
layers = (
{
layerId = master01;
paths = (
{
closed = 1;
nodes = (
"153 78 LINE",
"235 111 OFFCURVE",
"303 167 OFFCURVE",
"342 231 CURVE",
"315 222 OFFCURVE",
"289 217 OFFCURVE",
"253 217 CURVE SMOOTH",
"233 217 OFFCURVE",
"58 224 OFFCURVE",
"58 424 CURVE SMOOTH",
"58 572 OFFCURVE",
"153 669 OFFCURVE",
"265 669 CURVE SMOOTH",
"417 669 OFFCURVE",
"484 557 OFFCURVE",
"484 419 CURVE SMOOTH",
"484 198 OFFCURVE",
"328 45 OFFCURVE",
"183 -9 CURVE"
);
},
{
closed = 1;
nodes = (
"391 382 OFFCURVE",
"392 401 OFFCURVE",
"392 419 CURVE SMOOTH",
"392 548 OFFCURVE",
"322 576 OFFCURVE",
"263 576 CURVE SMOOTH",
"232 576 OFFCURVE",
"151 548 OFFCURVE",
"151 424 CURVE SMOOTH",
"151 319 OFFCURVE",
"230 311 OFFCURVE",
"253 311 CURVE SMOOTH",
"322 311 OFFCURVE",
"369 346 OFFCURVE",
"388 364 CURVE"
);
}
);
userData = {
com.fontlab.hintData = {
hhints = (
{
position = 217;
width = 94;
},
{
position = 576;
width = 93;
}
);
vhints = (
{
position = 58;
width = 93;
},
{
position = 392;
width = 92;
}
);
};
};
width = 572;
}
);
unicode = 0039;
},
{
glyphname = onesuperior;
layers = (
{
layerId = master01;
paths = (
{
closed = 1;
nodes = (
"14 500 LINE",
"65 500 LINE",
"69 655 LINE",
"43 632 LINE",
"-15 697 LINE",
"158 854 LINE",
"152 500 LINE",
"206 500 LINE",
"192 413 LINE",
"-3 413 LINE"
);
}
);
userData = {
com.fontlab.hintData = {
hhints = (
{
position = 413;
width = 87;
}
);
vhints = (
{
position = 65;
width = 87;
}
);
};
};
width = 205;
}
);
unicode = 00B9;
},
{
glyphname = twosuperior;
layers = (
{
layerId = master01;
paths = (
{
closed = 1;
nodes = (
"116 519 OFFCURVE",
"100 507 OFFCURVE",
"92 486 CURVE",
"260 486 LINE",
"247 399 LINE",
"-2 399 LINE",
"-2 442 LINE SMOOTH",
"-2 527 OFFCURVE",
"30 566 OFFCURVE",
"97 610 CURVE SMOOTH",
"143 641 OFFCURVE",
"164 663 OFFCURVE",
"164 681 CURVE SMOOTH",
"164 696 OFFCURVE",
"149 705 OFFCURVE",
"134 705 CURVE SMOOTH",
"108 705 OFFCURVE",
"80 687 OFFCURVE",
"51 638 CURVE",
"-10 708 LINE",
"19 752 OFFCURVE",
"73 792 OFFCURVE",
"127 792 CURVE SMOOTH",
"222 792 OFFCURVE",
"250 724 OFFCURVE",
"250 681 CURVE SMOOTH",
"250 619 OFFCURVE",
"190 567 OFFCURVE",
"144 538 CURVE"
);
}
);
userData = {
com.fontlab.hintData = {
hhints = (
{
position = 399;
width = 87;
},
{
position = 705;
width = 87;
}
);
vhints = (
{
position = 164;
width = 86;
}
);
};
};
width = 263;
}
);
unicode = 00B2;
},
{
glyphname = threesuperior;
layers = (
{
layerId = master01;
paths = (
{
closed = 1;
nodes = (
"-3 724 LINE",
"24 752 OFFCURVE",
"70 789 OFFCURVE",
"124 789 CURVE SMOOTH",
"194 789 OFFCURVE",
"248 745 OFFCURVE",
"248 688 CURVE SMOOTH",
"248 661 OFFCURVE",
"228 630 OFFCURVE",
"199 617 CURVE",
"227 603 OFFCURVE",
"256 565 OFFCURVE",
"256 528 CURVE SMOOTH",
"256 434 OFFCURVE",
"177 398 OFFCURVE",
"126 398 CURVE SMOOTH",
"81 398 OFFCURVE",
"16 422 OFFCURVE",
"-9 511 CURVE",
"76 547 LINE",
"82 507 OFFCURVE",
"101 485 OFFCURVE",
"126 485 CURVE SMOOTH",
"150 485 OFFCURVE",
"169 504 OFFCURVE",
"169 528 CURVE SMOOTH",
"169 551.572 OFFCURVE",
"144.997 574.255 OFFCURVE",
"86.093 574.255 CURVE SMOOTH",
"82.525 574.255 OFFCURVE",
"78.828 574.171 OFFCURVE",
"75 574 CURVE",
"68 636 LINE",
"101 636 OFFCURVE",
"161 663 OFFCURVE",
"161 688 CURVE SMOOTH",
"161 698 OFFCURVE",
"152 703 OFFCURVE",
"136 703 CURVE SMOOTH",
"108 703 OFFCURVE",
"85 691 OFFCURVE",
"56 661 CURVE"
);
}
);
userData = {
com.fontlab.hintData = {
hhints = (
{
position = 398;
width = 87;
},
{
position = 574;
width = 62;
},
{
position = 703;
width = 86;
}
);
vhints = (
{
position = 161;
width = 87;
},
{
position = 169;
width = 87;
}
);
};
};
width = 262;
}
);
unicode = 00B3;
},
{
glyphname = period;
layers = (
{
layerId = master01;
paths = (
{
closed = 1;
nodes = (
"169 12 LINE",
"54 -4 LINE",
"68 118 LINE",
"181 133 LINE"
);
}
);
userData = {
com.fontlab.hintData = {
hhints = (
{
position = -4;
width = 137;
}
);
vhints = (
{
position = 54;
width = 127;
}
);
};
};
width = 248;
}
);
unicode = 002E;
},
{
glyphname = comma;
layers = (
{
layerId = master01;
paths = (
{
closed = 1;
nodes = (
"263 69 LINE",
"156 -121 LINE",
"71 -73 LINE",
"120 14 LINE",
"78 37 LINE",
"164 125 LINE"
);
}
);
userData = {
com.fontlab.hintData = {
hhints = (
{
position = -121;
width = 246;
}
);
vhints = (
{
position = 71;
width = 192;
}
);
};
};
width = 343;
}
);
unicode = 002C;
},
{
glyphname = colon;
layers = (
{
layerId = master01;
paths = (
{
closed = 1;
nodes = (
"194 332 LINE",
"80 317 LINE",
"93 439 LINE",
"208 454 LINE"
);
},
{
closed = 1;
nodes = (
"170 12 LINE",
"55 -4 LINE",
"69 118 LINE",
"181 133 LINE"
);
}
);
userData = {
com.fontlab.hintData = {
hhints = (
{
position = -4;
width = 21;
}
);
vhints = (
{
position = 55;
width = 153;
}
);
};
};
width = 276;
}
);
unicode = 003A;
},
{
glyphname = semicolon;
layers = (
{
layerId = master01;
paths = (
{
closed = 1;
nodes = (
"259 334 LINE",
"144 319 LINE",
"158 441 LINE",
"272 456 LINE"
);
},
{
closed = 1;
nodes = (
"263 68 LINE",
"156 -121 LINE",
"71 -73 LINE",
"121 14 LINE",
"78 37 LINE",
"163 124 LINE"
);
}
);
userData = {
com.fontlab.hintData = {
vhints = (
{
position = 71;
width = 201;
}
);
};
};
width = 358;
}
);
unicode = 003B;
},
{
glyphname = ellipsis;
layers = (
{
layerId = master01;
paths = (
{
closed = 1;
nodes = (
"180 12 LINE",
"66 -4 LINE",
"80 118 LINE",
"192 133 LINE"
);
},
{
closed = 1;
nodes = (
"413 12 LINE",
"299 -4 LINE",
"312 118 LINE",
"425 133 LINE"
);
},
{
closed = 1;
nodes = (
"646 12 LINE",
"532 -4 LINE",
"545 118 LINE",
"658 133 LINE"
);
}
);
userData = {
com.fontlab.hintData = {
hhints = (
{
position = -4;
width = 137;
}
);
};
};
width = 760;
}
);
unicode = 2026;
},
{
glyphname = exclam;
layers = (
{
layerId = master01;
paths = (
{
closed = 1;
nodes = (
"50 160 LINE",
"50 662 LINE",
"144 679 LINE",
"144 179 LINE"
);
},
{
closed = 1;
nodes = (
"139 12 LINE",
"41 -5 LINE",
"51 117 LINE",
"149 134 LINE"
);
}
);
userData = {
com.fontlab.hintData = {
vhints = (
{
position = 50;
width = 94;
}
);
};
};
width = 211;
}
);
unicode = 0021;
},
{
glyphname = exclamdown;
layers = (
{
layerId = master01;
paths = (
{
closed = 1;
nodes = (
"140 340 LINE",
"140 -163 LINE",
"45 -179 LINE",
"45 321 LINE"
);
},
{
closed = 1;
nodes = (
"50 488 LINE",
"148 505 LINE",
"139 383 LINE",
"40 366 LINE"
);
}
);
userData = {
com.fontlab.hintData = {
vhints = (
{
position = 45;
width = 95;
}
);
};
};
width = 211;
}
);
unicode = 00A1;
},
{
glyphname = question;
layers = (
{
layerId = master01;
paths = (
{
closed = 1;
nodes = (
"234 12 LINE",
"137 -5 LINE",
"146 107 LINE",
"244 124 LINE"
);
},
{
closed = 1;
nodes = (
"400 694 OFFCURVE",
"480 614 OFFCURVE",
"480 489 CURVE SMOOTH",
"480 390 OFFCURVE",
"411 333 OFFCURVE",
"363 290 CURVE SMOOTH",
"206 149 LINE",
"158 235 LINE",
"301 362 LINE SMOOTH",
"340 396 OFFCURVE",
"386 432 OFFCURVE",
"386 489 CURVE SMOOTH",
"386 544 OFFCURVE",
"352 599 OFFCURVE",
"269 599 CURVE SMOOTH",
"183 599 OFFCURVE",
"127 507 OFFCURVE",
"120 495 CURVE",
"49 566 LINE",
"74 603 OFFCURVE",
"157 694 OFFCURVE",
"266 694 CURVE SMOOTH"
);
}
);
userData = {
com.fontlab.hintData = {
hhints = (
{
position = 599;
width = 95;
}
);
vhints = (
{
position = 386;
width = 94;
}
);
};
};
width = 568;
}
);
unicode = 003F;
},
{
glyphname = questiondown;
layers = (
{
layerId = master01;
paths = (
{
closed = 1;
nodes = (
"246 681 LINE",
"343 698 LINE",
"334 586 LINE",
"236 569 LINE"
);
},
{
closed = 1;
nodes = (
"80 -1 OFFCURVE",
"0 79 OFFCURVE",
"0 204 CURVE SMOOTH",
"0 303 OFFCURVE",
"69 360 OFFCURVE",
"117 403 CURVE SMOOTH",
"274 544 LINE",
"322 458 LINE",
"179 331 LINE SMOOTH",
"140 297 OFFCURVE",
"94 261 OFFCURVE",
"94 204 CURVE SMOOTH",
"94 149 OFFCURVE",
"128 94 OFFCURVE",
"211 94 CURVE SMOOTH",
"297 94 OFFCURVE",
"353 186 OFFCURVE",
"360 198 CURVE",
"431 127 LINE",
"406 90 OFFCURVE",
"323 -1 OFFCURVE",
"214 -1 CURVE SMOOTH"
);
}
);
userData = {
com.fontlab.hintData = {
hhints = (
{
position = -1;
width = 95;
}
);
vhints = (
{
position = 0;
width = 94;
}
);
};
};
width = 527;
}
);
unicode = 00BF;
},
{
glyphname = periodcentered;
layers = (
{
layerId = master01;
paths = (
{
closed = 1;
nodes = (
"303 200 LINE",
"188 185 LINE",
"202 306 LINE",
"314 321 LINE"
);
}
);
userData = {
com.fontlab.hintData = {
hhints = (
{
position = 185;
width = 136;
}
);
vhints = (
{
position = 188;
width = 126;
}
);
};
};
width = 526;
}
);
unicode = 00B7;
},
{
glyphname = bullet;
layers = (
{
layerId = master01;
paths = (
{
closed = 1;
nodes = (
"297 196 OFFCURVE",
"252 149 OFFCURVE",
"194 149 CURVE SMOOTH",
"137 149 OFFCURVE",
"91 196 OFFCURVE",
"91 253 CURVE SMOOTH",
"91 310 OFFCURVE",
"137 356 OFFCURVE",
"194 356 CURVE SMOOTH",
"252 356 OFFCURVE",
"297 310 OFFCURVE",
"297 253 CURVE SMOOTH"
);
}
);
userData = {
com.fontlab.hintData = {
hhints = (
{
position = 149;
width = 207;
}
);
vhints = (
{
position = 91;
width = 206;
}
);
};
};
width = 404;
}
);
unicode = 2022;
},
{
glyphname = asterisk;
layers = (
{
layerId = master01;
paths = (
{
closed = 1;
nodes = (
"327 460 LINE",
"249 404 LINE",
"209 459 LINE",
"169 404 LINE",
"92 460 LINE",
"132 514 LINE",
"67 535 LINE",
"97 626 LINE",
"162 605 LINE",
"162 673 LINE",
"257 673 LINE",
"257 605 LINE",
"322 626 LINE",
"351 534 LINE",
"288 514 LINE"
);
}
);
userData = {
com.fontlab.hintData = {
hhints = (
{
position = 404;
width = 269;
}
);
vhints = (
{
position = 162;
width = 95;
}
);
};
};
width = 443;
}
);
unicode = 002A;
},
{
glyphname = numbersign;
layers = (
{
layerId = master01;
paths = (
{
closed = 1;
nodes = (
"533 392 LINE",
"503 287 LINE",
"647 287 LINE",
"619 193 LINE",
"475 193 LINE",
"421 5 LINE",
"322 -2 LINE",
"377 193 LINE",
"284 193 LINE",
"230 5 LINE",
"131 -2 LINE",
"186 193 LINE",
"55 193 LINE",
"82 287 LINE",
"214 287 LINE",
"244 392 LINE",
"91 392 LINE",
"118 486 LINE",
"271 486 LINE",
"325 671 LINE",
"425 678 LINE",
"370 486 LINE",
"462 486 LINE",
"515 670 LINE",
"614 677 LINE",
"560 486 LINE",
"687 486 LINE",
"660 392 LINE"
);
},
{
closed = 1;
nodes = (
"435 392 LINE",
"342 392 LINE",
"312 287 LINE",
"405 287 LINE"
);
}
);
userData = {
com.fontlab.hintData = {
hhints = (
{
position = -2;
width = 21;
},
{
position = 193;
width = 94;
},
{
position = 392;
width = 94;
}
);
};
};
width = 777;
}
);
unicode = 0023;
},
{
glyphname = slash;
layers = (
{
layerId = master01;
paths = (
{
closed = 1;
nodes = (
"488 675 LINE",
"118 0 LINE",
"11 0 LINE",
"381 675 LINE"
);
}
);
userData = {
com.fontlab.hintData = {
hhints = (
{
position = 0;
width = 21;
}
);
};
};
width = 518;
}
);
unicode = 002F;
},
{
glyphname = backslash;
layers = (
{
layerId = master01;
paths = (
{
closed = 1;
nodes = (
"488 0 LINE",
"380 0 LINE",
"10 676 LINE",
"117 676 LINE"
);
}
);
userData = {
com.fontlab.hintData = {
hhints = (
{
position = 0;
width = 21;
}
);
};
};
width = 518;
}
);
unicode = 005C;
},
{
glyphname = parenleft;
layers = (
{
layerId = master01;
paths = (
{
closed = 1;
nodes = (
"257 -116 LINE",
"129 6 OFFCURVE",
"58 197 OFFCURVE",
"58 343 CURVE SMOOTH",
"58 503 OFFCURVE",
"143 678 OFFCURVE",
"280 792 CURVE",
"337 718 LINE",
"232 627 OFFCURVE",
"153 485 OFFCURVE",
"153 343 CURVE SMOOTH",
"153 208 OFFCURVE",
"225 45 OFFCURVE",
"322 -48 CURVE"
);
}
);
userData = {
com.fontlab.hintData = {
vhints = (
{
position = 58;
width = 95;
}
);
};
};
width = 403;
}
);
unicode = 0028;
},
{
glyphname = parenright;
layers = (
{
layerId = master01;
paths = (
{
closed = 1;
nodes = (
"135 792 LINE",
"263 670 OFFCURVE",
"334 479 OFFCURVE",
"334 333 CURVE SMOOTH",
"334 173 OFFCURVE",
"249 -2 OFFCURVE",
"112 -116 CURVE",
"55 -42 LINE",
"160 49 OFFCURVE",
"239 191 OFFCURVE",
"239 333 CURVE SMOOTH",
"239 468 OFFCURVE",
"167 631 OFFCURVE",
"70 724 CURVE"
);
}
);
userData = {
com.fontlab.hintData = {
vhints = (
{
position = 239;
width = 95;
}
);
};
};
width = 403;
}
);
unicode = 0029;
},
{
glyphname = braceleft;
layers = (
{
layerId = master01;
paths = (
{
closed = 1;
nodes = (
"64 379 LINE",
"102 395 OFFCURVE",
"125 420 OFFCURVE",
"125 453 CURVE SMOOTH",
"125 625 LINE SMOOTH",
"125 746 OFFCURVE",
"258 781 OFFCURVE",
"328 782 CURVE",
"326 688 LINE",
"267 686 OFFCURVE",
"220 663 OFFCURVE",
"220 625 CURVE SMOOTH",
"220 454 LINE SMOOTH",
"220 408 OFFCURVE",
"204 380 OFFCURVE",
"167 341 CURVE",
"191 315 OFFCURVE",
"220 284 OFFCURVE",
"220 228 CURVE SMOOTH",
"220 44 LINE SMOOTH",
"220 10 OFFCURVE",
"256 -15 OFFCURVE",
"329 -21 CURVE",
"327 -115 LINE",
"257 -113 OFFCURVE",
"125 -77 OFFCURVE",
"125 44 CURVE SMOOTH",
"125 236 LINE SMOOTH",
"125 269 OFFCURVE",
"102 294 OFFCURVE",
"64 310 CURVE"
);
}
);
userData = {
com.fontlab.hintData = {
hhints = (
{
position = -115;
width = 94;
},
{
position = 688;
width = 94;
}
);
vhints = (
{
position = 125;
width = 95;
}
);
};
};
width = 400;
}
);
unicode = 007B;
},
{
glyphname = braceright;
layers = (
{
layerId = master01;
paths = (
{
closed = 1;
nodes = (
"312 288 LINE",
"274 272 OFFCURVE",
"251 247 OFFCURVE",
"251 214 CURVE SMOOTH",
"251 42 LINE SMOOTH",
"251 -79 OFFCURVE",
"118 -114 OFFCURVE",
"48 -115 CURVE",
"50 -21 LINE",
"109 -19 OFFCURVE",
"156 4 OFFCURVE",
"156 42 CURVE SMOOTH",
"156 213 LINE SMOOTH",
"156 259 OFFCURVE",
"172 287 OFFCURVE",
"209 326 CURVE",
"185 352 OFFCURVE",
"156 383 OFFCURVE",
"156 439 CURVE SMOOTH",
"156 623 LINE SMOOTH",
"156 657 OFFCURVE",
"120 682 OFFCURVE",
"47 688 CURVE",
"49 782 LINE",
"119 780 OFFCURVE",
"251 744 OFFCURVE",
"251 623 CURVE SMOOTH",
"251 431 LINE SMOOTH",
"251 398 OFFCURVE",
"274 373 OFFCURVE",
"312 357 CURVE"
);
}
);
userData = {
com.fontlab.hintData = {
hhints = (
{
position = -115;
width = 94;
},
{
position = 688;
width = 94;
}
);
vhints = (
{
position = 156;
width = 95;
}
);
};
};
width = 400;
}
);
unicode = 007D;
},
{
glyphname = bracketleft;
layers = (
{
layerId = master01;
paths = (
{
closed = 1;
nodes = (
"58 -113 LINE",
"58 778 LINE",
"283 778 LINE",
"266 683 LINE",
"152 683 LINE",
"152 -18 LINE",
"270 -18 LINE",
"252 -113 LINE"
);
}
);
userData = {
com.fontlab.hintData = {
hhints = (
{
position = -113;
width = 95;
},
{
position = 683;
width = 95;
}
);
vhints = (
{
position = 58;
width = 94;
}
);
};
};
width = 341;
}
);
unicode = 005B;
},
{
glyphname = bracketright;
layers = (
{
layerId = master01;
paths = (
{
closed = 1;
nodes = (
"274 778 LINE",
"274 -113 LINE",
"48 -113 LINE",
"65 -18 LINE",
"179 -18 LINE",
"179 683 LINE",
"62 683 LINE",
"79 778 LINE"
);
}
);
userData = {
com.fontlab.hintData = {
hhints = (
{
position = -113;
width = 95;
},
{
position = 683;
width = 95;
}
);
vhints = (
{
position = 179;
width = 95;
}
);
};
};
width = 341;
}
);
unicode = 005D;
},
{
glyphname = hyphen;
layers = (
{
layerId = master01;
paths = (
{
closed = 1;
nodes = (
"60 203 LINE",
"77 297 LINE",
"390 297 LINE",
"372 203 LINE"
);
}
);
userData = {
com.fontlab.hintData = {
hhints = (
{
position = 203;
width = 94;
}
);
vhints = (
{
position = 60;
width = 330;
}
);
};
};
width = 468;
}
);
unicode = 002D;
},
{
glyphname = uni00AD;
layers = (
{
layerId = master01;
paths = (
{
closed = 1;
nodes = (
"372 206 LINE",
"60 206 LINE",
"77 301 LINE",
"390 301 LINE"
);
}
);
userData = {
com.fontlab.hintData = {
hhints = (
{
position = 206;
width = 95;
}
);
vhints = (
{
position = 60;
width = 330;
}
);
};
};
width = 468;
}
);
unicode = 00AD;
},
{
glyphname = endash;
layers = (
{
layerId = master01;
paths = (
{
closed = 1;
nodes = (
"64 202 LINE",
"80 296 LINE",
"533 296 LINE",
"515 202 LINE"
);
}
);
userData = {
com.fontlab.hintData = {
hhints = (
{
position = 202;
width = 94;
}
);
};
};
width = 622;
}
);
unicode = 2013;
},
{
glyphname = emdash;
layers = (
{
layerId = master01;
paths = (
{
closed = 1;
nodes = (
"70 202 LINE",
"87 298 LINE",
"795 298 LINE",
"778 202 LINE"
);
}
);
userData = {
com.fontlab.hintData = {
hhints = (
{
position = 202;
width = 96;
}
);
};
};
width = 903;
}
);
unicode = 2014;
},
{
glyphname = underscore;
layers = (
{
layerId = master01;
paths = (
{
closed = 1;
nodes = (
"-14 -49 LINE",
"2 45 LINE",
"495 45 LINE",
"478 -49 LINE"
);
}
);
userData = {
com.fontlab.hintData = {
hhints = (
{
position = -49;
width = 94;
}
);
};
};
width = 502;
}
);
unicode = 005F;
},
{
glyphname = quotesinglbase;
layers = (
{
layerId = master01;
paths = (
{
closed = 1;
nodes = (
"262 72 LINE",
"156 -118 LINE",
"71 -70 LINE",
"120 16 LINE",
"78 40 LINE",
"163 127 LINE"
);
}
);
userData = {
com.fontlab.hintData = {
hhints = (
{
position = -118;
width = 245;
}
);
vhints = (
{
position = 71;
width = 191;
}
);
};
};
width = 342;
}
);
unicode = 201A;
},
{
glyphname = quotedblbase;
layers = (
{
layerId = master01;
paths = (
{
closed = 1;
nodes = (
"262 72 LINE",
"156 -118 LINE",
"71 -70 LINE",
"120 16 LINE",
"78 40 LINE",
"163 127 LINE"
);
},
{
closed = 1;
nodes = (
"453 72 LINE",
"347 -118 LINE",
"262 -70 LINE",
"311 16 LINE",
"268 40 LINE",
"354 127 LINE"
);
}
);
userData = {
com.fontlab.hintData = {
hhints = (
{
position = -118;
width = 245;
}
);
};
};
width = 533;
}
);
unicode = 201E;
},
{
glyphname = quotedblleft;
layers = (
{
layerId = master01;
paths = (
{
closed = 1;
nodes = (
"179 545 LINE",
"286 735 LINE",
"370 687 LINE",
"321 600 LINE",
"364 577 LINE",
"278 489 LINE"
);
},
{
closed = 1;
nodes = (
"-12 545 LINE",
"95 735 LINE",
"179 687 LINE",
"130 600 LINE",
"173 577 LINE",
"87 489 LINE"
);
}
);
userData = {
com.fontlab.hintData = {
hhints = (
{
position = 489;
width = 246;
}
);
};
};
width = 374;
}
);
unicode = 201C;
},
{
glyphname = quotedblright;
layers = (
{
layerId = master01;
paths = (
{
closed = 1;
nodes = (
"179 677 LINE",
"73 487 LINE",
"-12 535 LINE",
"37 621 LINE",
"-5 645 LINE",
"80 732 LINE"
);
},
{
closed = 1;
nodes = (
"370 677 LINE",
"264 487 LINE",
"179 535 LINE",
"228 621 LINE",
"185 645 LINE",
"271 732 LINE"
);
}
);
userData = {
com.fontlab.hintData = {
hhints = (
{
position = 487;
width = 245;
}
);
};
};
width = 374;
}
);
unicode = 201D;
},
{
glyphname = quoteleft;
layers = (
{
layerId = master01;
paths = (
{
closed = 1;
nodes = (
"4 545 LINE",
"111 735 LINE",
"195 687 LINE",
"146 600 LINE",
"189 577 LINE",
"104 489 LINE"
);
}
);
userData = {
com.fontlab.hintData = {
hhints = (
{
position = 489;
width = 246;
}
);
vhints = (
{
position = 4;
width = 191;
}
);
};
};
width = 208;
}
);
unicode = 2018;
},
{
glyphname = quoteright;
layers = (
{
layerId = master01;
paths = (
{
closed = 1;
nodes = (
"195 677 LINE",
"89 487 LINE",
"4 535 LINE",
"53 621 LINE",
"11 645 LINE",
"96 732 LINE"
);
}
);
userData = {
com.fontlab.hintData = {
hhints = (
{
position = 487;
width = 245;
}
);
vhints = (
{
position = 4;
width = 191;
}
);
};
};
width = 208;
}
);
unicode = 2019;
},
{
glyphname = guillemotleft;
layers = (
{
layerId = master01;
paths = (
{
closed = 1;
nodes = (
"38 253 LINE",
"278 457 LINE",
"339 386 LINE",
"180 250 LINE",
"324 121 LINE",
"259 51 LINE"
);
},
{
closed = 1;
nodes = (
"264 253 LINE",
"504 457 LINE",
"565 386 LINE",
"407 250 LINE",
"550 121 LINE",
"486 51 LINE"
);
}
);
width = 635;
}
);
unicode = 00AB;
},
{
glyphname = guillemotright;
layers = (
{
layerId = master01;
paths = (
{
closed = 1;
nodes = (
"284 121 LINE",
"428 252 LINE",
"271 386 LINE",
"332 457 LINE",
"572 253 LINE",
"348 50 LINE"
);
},
{
closed = 1;
nodes = (
"58 121 LINE",
"202 252 LINE",
"44 386 LINE",
"105 457 LINE",
"345 253 LINE",
"123 51 LINE"
);
}
);
width = 635;
}
);
unicode = 00BB;
},
{
glyphname = guilsinglleft;
layers = (
{
layerId = master01;
paths = (
{
closed = 1;
nodes = (
"53 251 LINE",
"293 455 LINE",
"354 384 LINE",
"196 248 LINE",
"339 119 LINE",
"275 49 LINE"
);
}
);
userData = {
com.fontlab.hintData = {
vhints = (
{
position = 53;
width = 301;
}
);
};
};
width = 430;
}
);
unicode = 2039;
},
{
glyphname = guilsinglright;
layers = (
{
layerId = master01;
paths = (
{
closed = 1;
nodes = (
"73 121 LINE",
"217 252 LINE",
"60 386 LINE",
"121 457 LINE",
"361 253 LINE",
"139 51 LINE"
);
}
);
userData = {
com.fontlab.hintData = {
vhints = (
{
position = 60;
width = 301;
}
);
};
};
width = 430;
}
);
unicode = 203A;
},
{
glyphname = quotedbl;
layers = (
{
layerId = master01;
paths = (
{
closed = 1;
nodes = (
"40 450 LINE",
"40 660 LINE",
"135 678 LINE",
"135 467 LINE"
);
},
{
closed = 1;
nodes = (
"189 450 LINE",
"189 660 LINE",
"284 678 LINE",
"284 467 LINE"
);
}
);
userData = {
com.fontlab.hintData = {
hhints = (
{
position = 450;
width = 228;
}
);
vhints = (
{
position = 40;
width = 95;
},
{
position = 189;
width = 95;
}
);
};
};
width = 338;
}
);
unicode = 0022;
},
{
glyphname = quotesingle;
layers = (
{
layerId = master01;
paths = (
{
closed = 1;
nodes = (
"60 450 LINE",
"60 660 LINE",
"154 678 LINE",
"154 467 LINE"
);
}
);
userData = {
com.fontlab.hintData = {
hhints = (
{
position = 450;
width = 228;
}
);
vhints = (
{
position = 60;
width = 94;
}
);
};
};
width = 228;
}
);
unicode = 0027;
},
{
glyphname = .notdef;
layers = (
{
layerId = master01;
paths = (
{
closed = 1;
nodes = (
"492 681 LINE",
"492 0 LINE",
"15 0 LINE",
"15 681 LINE"
);
},
{
closed = 1;
nodes = (
"99 511 LINE",
"99 183 LINE",
"202 342 LINE"
);
},
{
closed = 1;
nodes = (
"253 418 LINE",
"369 597 LINE",
"143 597 LINE"
);
},
{
closed = 1;
nodes = (
"135 84 LINE",
"361 84 LINE",
"251 263 LINE"
);
},
{
closed = 1;
nodes = (
"408 167 LINE",
"408 502 LINE",
"301 339 LINE"
);
}
);
userData = {
com.fontlab.hintData = {
hhints = (
{
position = 0;
width = 84;
},
{
position = 597;
width = 84;
}
);
vhints = (
{
position = 15;
width = 84;
},
{
position = 408;
width = 84;
}
);
};
};
width = 526;
}
);
},
{
glyphname = Euro;
layers = (
{
layerId = master01;
paths = (
{
closed = 1;
nodes = (
"275 0 OFFCURVE",
"153 94 OFFCURVE",
"136 227 CURVE",
"56 227 LINE",
"73 315 LINE",
"131 315 LINE",
"133 333 OFFCURVE",
"134 352 OFFCURVE",
"138 370 CURVE",
"56 370 LINE",
"73 457 LINE",
"163 457 LINE",
"191 534 OFFCURVE",
"283 674 OFFCURVE",
"424 674 CURVE SMOOTH",
"489 674 OFFCURVE",
"553 646 OFFCURVE",
"607 597 CURVE",
"539 533 LINE",
"509 557 OFFCURVE",
"469 579 OFFCURVE",
"419 579 CURVE SMOOTH",
"357 579 OFFCURVE",
"294 517 OFFCURVE",
"263 457 CURVE",
"465 457 LINE",
"448 370 LINE",
"232 370 LINE",
"227 352 OFFCURVE",
"224 333 OFFCURVE",
"223 315 CURVE",
"446 315 LINE",
"429 227 LINE",
"231 227 LINE",
"257 145 OFFCURVE",
"328 95 OFFCURVE",
"407 95 CURVE SMOOTH",
"457 95 OFFCURVE",
"498 110 OFFCURVE",
"534 132 CURVE",
"603 66 LINE",
"543 25 OFFCURVE",
"474 0 OFFCURVE",
"413 0 CURVE SMOOTH"
);
}
);
userData = {
com.fontlab.hintData = {
hhints = (
{
position = 0;
width = 95;
},
{
position = 227;
width = 88;
},
{
position = 370;
width = 87;
},
{
position = 579;
width = 95;
}
);
};
};
width = 689;
}
);
unicode = 20AC;
},
{
glyphname = cent;
layers = (
{
layerId = master01;
paths = (
{
closed = 1;
nodes = (
"295 22 LINE",
"206 -9 LINE",
"208 98 LINE",
"102 135 OFFCURVE",
"48 216 OFFCURVE",
"48 308 CURVE SMOOTH",
"48 416 OFFCURVE",
"109 539 OFFCURVE",
"220 580 CURVE",
"222 648 LINE",
"310 682 LINE",
"308 588 LINE",
"357 579 OFFCURVE",
"407 547 OFFCURVE",
"442 499 CURVE",
"372 430 LINE",
"350 466 OFFCURVE",
"329 487 OFFCURVE",
"307 493 CURVE",
"304 383 OFFCURVE",
"297 185 OFFCURVE",
"297 185 CURVE",
"335 196 OFFCURVE",
"376 231 OFFCURVE",
"398 274 CURVE",
"468 203 LINE",
"428 141 OFFCURVE",
"367 98 OFFCURVE",
"297 90 CURVE"
);
},
{
closed = 1;
nodes = (
"218 476 LINE",
"161 433 OFFCURVE",
"140 349 OFFCURVE",
"140 311 CURVE SMOOTH",
"140 266 OFFCURVE",
"163 223 OFFCURVE",
"210 197 CURVE"
);
}
);
userData = {
com.fontlab.hintData = {
vhints = (
{
position = 48;
width = 92;
},
{
position = 208;
width = 89;
},
{
position = 220;
width = 88;
}
);
};
};
width = 532;
}
);
unicode = 00A2;
},
{
glyphname = currency;
layers = (
{
layerId = master01;
paths = (
{
closed = 1;
nodes = (
"419 222 OFFCURVE",
"412 195 OFFCURVE",
"399 171 CURVE",
"466 104 LINE",
"401 38 LINE",
"333 105 LINE",
"309 91 OFFCURVE",
"281 83 OFFCURVE",
"252 83 CURVE SMOOTH",
"222 83 OFFCURVE",
"193 91 OFFCURVE",
"169 105 CURVE",
"102 37 LINE",
"36 103 LINE",
"104 171 LINE",
"91 195 OFFCURVE",
"83 223 OFFCURVE",
"83 251 CURVE SMOOTH",
"83 280 OFFCURVE",
"92 308 OFFCURVE",
"105 333 CURVE",
"36 403 LINE",
"102 468 LINE",
"172 398 LINE",
"196 412 OFFCURVE",
"223 418 OFFCURVE",
"252 418 CURVE SMOOTH",
"281 418 OFFCURVE",
"307 412 OFFCURVE",
"332 398 CURVE",
"401 468 LINE",
"466 403 LINE",
"398 334 LINE",
"413 309 OFFCURVE",
"419 281 OFFCURVE",
"419 251 CURVE SMOOTH"
);
},
{
closed = 1;
nodes = (
"293 175 OFFCURVE",
"327 209 OFFCURVE",
"327 251 CURVE SMOOTH",
"327 293 OFFCURVE",
"293 326 OFFCURVE",
"252 326 CURVE SMOOTH",
"210 326 OFFCURVE",
"175 293 OFFCURVE",
"175 251 CURVE SMOOTH",
"175 209 OFFCURVE",
"210 175 OFFCURVE",
"252 175 CURVE SMOOTH"
);
}
);
userData = {
com.fontlab.hintData = {
hhints = (
{
position = 83;
width = 92;
},
{
position = 326;
width = 92;
}
);
vhints = (
{
position = 83;
width = 92;
},
{
position = 327;
width = 92;
}
);
};
};
width = 526;
}
);
unicode = 00A4;
},
{
glyphname = dollar;
layers = (
{
layerId = master01;
paths = (
{
closed = 1;
nodes = (
"356 387 LINE",
"481 347 OFFCURVE",
"542 285 OFFCURVE",
"542 196 CURVE SMOOTH",
"542 89 OFFCURVE",
"458 21 OFFCURVE",
"356 4 CURVE",
"356 -55 LINE",
"262 -73 LINE",
"262 3 LINE",
"166 18 OFFCURVE",
"86 85 OFFCURVE",
"55 180 CURVE",
"156 196 LINE",
"176 139 OFFCURVE",
"218 108 OFFCURVE",
"262 98 CURVE",
"262 314 LINE",
"177 343 OFFCURVE",
"95 396 OFFCURVE",
"95 487 CURVE SMOOTH",
"95 597 OFFCURVE",
"186 647 OFFCURVE",
"262 659 CURVE",
"262 716 LINE",
"356 733 LINE",
"356 664 LINE",
"429 658 OFFCURVE",
"539 630 OFFCURVE",
"539 513 CURVE SMOOTH",
"539 506 OFFCURVE",
"539 498 OFFCURVE",
"536 477 CURVE",
"440 458 LINE",
"447 484 OFFCURVE",
"446 503 OFFCURVE",
"446 507 CURVE SMOOTH",
"446 545 OFFCURVE",
"404 567 OFFCURVE",
"356 573 CURVE"
);
},
{
closed = 1;
nodes = (
"198 460 OFFCURVE",
"218 439 OFFCURVE",
"262 419 CURVE",
"262 566 LINE",
"212 550 OFFCURVE",
"198 512 OFFCURVE",
"198 487 CURVE SMOOTH"
);
},
{
closed = 1;
nodes = (
"439 243 OFFCURVE",
"403 265 OFFCURVE",
"356 283 CURVE",
"356 102 LINE",
"393 114 OFFCURVE",
"439 141 OFFCURVE",
"439 196 CURVE SMOOTH"
);
}
);
userData = {
com.fontlab.hintData = {
hhints = (
{
position = 3;
width = 95;
},
{
position = 566;
width = 93;
},
{
position = 573;
width = 91;
}
);
vhints = (
{
position = 95;
width = 103;
},
{
position = 262;
width = 94;
},
{
position = 439;
width = 103;
},
{
position = 446;
width = 93;
}
);
};
};
width = 631;
}
);
unicode = 0024;
},
{
glyphname = sterling;
layers = (
{
layerId = master01;
paths = (
{
closed = 1;
nodes = (
"683 177 LINE",
"662 11 OFFCURVE",
"560 -9 OFFCURVE",
"513 -9 CURVE SMOOTH",
"455 -9 OFFCURVE",
"406 16 OFFCURVE",
"350 52 CURVE SMOOTH",
"337 60 OFFCURVE",
"323 65 OFFCURVE",
"305 65 CURVE SMOOTH",
"278 65 OFFCURVE",
"239 47 OFFCURVE",
"181 -11 CURVE",
"118 64 LINE",
"177 107 OFFCURVE",
"209 168 OFFCURVE",
"209 201 CURVE SMOOTH",
"209 226 OFFCURVE",
"208 248 OFFCURVE",
"194 298 CURVE",
"69 298 LINE",
"87 392 LINE",
"172 392 LINE",
"169 416 OFFCURVE",
"169 439 OFFCURVE",
"169 461 CURVE SMOOTH",
"169 624 OFFCURVE",
"253 706 OFFCURVE",
"404 706 CURVE SMOOTH",
"575 706 OFFCURVE",
"626 552 OFFCURVE",
"633 471 CURVE",
"539 466 LINE",
"529 555 OFFCURVE",
"486 611 OFFCURVE",
"398 611 CURVE SMOOTH",
"307 611 OFFCURVE",
"264 563 OFFCURVE",
"264 460 CURVE SMOOTH",
"264 440 OFFCURVE",
"264 418 OFFCURVE",
"268 392 CURVE",
"513 392 LINE",
"496 298 LINE",
"289 298 LINE",
"301 253 OFFCURVE",
"304 226 OFFCURVE",
"304 210 CURVE SMOOTH",
"304 196 OFFCURVE",
"302 178 OFFCURVE",
"298 159 CURVE",
"311 159 LINE SMOOTH",
"346 159 OFFCURVE",
"379 147 OFFCURVE",
"408 126 CURVE",
"441 99 OFFCURVE",
"474 85 OFFCURVE",
"513 85 CURVE SMOOTH",
"554 85 OFFCURVE",
"580 120 OFFCURVE",
"590 189 CURVE"
);
}
);
userData = {
com.fontlab.hintData = {
hhints = (
{
position = -9;
width = 94;
},
{
position = 65;
width = 94;
},
{
position = 298;
width = 94;
},
{
position = 611;
width = 95;
}
);
vhints = (
{
position = 169;
width = 95;
},
{
position = 209;
width = 95;
},
{
position = 539;
width = 94;
},
{
position = 590;
width = 93;
}
);
};
};
width = 790;
}
);
unicode = 00A3;
},
{
glyphname = yen;
layers = (
{
layerId = master01;
paths = (
{
closed = 1;
nodes = (
"96 262 LINE",
"113 356 LINE",
"198 356 LINE",
"48 672 LINE",
"153 672 LINE",
"286 391 LINE",
"428 672 LINE",
"533 672 LINE",
"373 356 LINE",
"472 356 LINE",
"454 262 LINE",
"332 262 LINE",
"332 206 LINE",
"472 206 LINE",
"454 112 LINE",
"332 112 LINE",
"332 12 LINE",
"237 -5 LINE",
"237 112 LINE",
"96 112 LINE",
"113 206 LINE",
"237 206 LINE",
"237 262 LINE"
);
}
);
userData = {
com.fontlab.hintData = {
hhints = (
{
position = 112;
width = 94;
},
{
position = 262;
width = 94;
}
);
vhints = (
{
position = 237;
width = 95;
}
);
};
};
width = 611;
}
);
unicode = 00A5;
},
{
glyphname = plus;
layers = (
{
layerId = master01;
paths = (
{
closed = 1;
nodes = (
"384 204 LINE",
"270 204 LINE",
"270 89 LINE",
"176 73 LINE",
"176 204 LINE",
"45 204 LINE",
"61 298 LINE",
"176 298 LINE",
"176 407 LINE",
"270 426 LINE",
"270 298 LINE",
"402 298 LINE"
);
}
);
userData = {
com.fontlab.hintData = {
hhints = (
{
position = 204;
width = 94;
}
);
vhints = (
{
position = 176;
width = 94;
}
);
};
};
width = 467;
}
);
unicode = 002B;
},
{
glyphname = multiply;
layers = (
{
layerId = master01;
paths = (
{
closed = 1;
nodes = (
"326 176 LINE",
"259 109 LINE",
"182 186 LINE",
"103 108 LINE",
"37 174 LINE",
"117 253 LINE",
"46 324 LINE",
"112 390 LINE",
"183 319 LINE",
"260 397 LINE",
"327 330 LINE",
"249 253 LINE"
);
}
);
userData = {
com.fontlab.hintData = {
hhints = (
{
position = 109;
width = 288;
}
);
vhints = (
{
position = 37;
width = 289;
}
);
};
};
width = 380;
}
);
unicode = 00D7;
},
